CenturySchL-Bold.ufo
<glyph name="exclam" format="1">
  <advance width="296"/>
  <unicode hex="0021"/>
  <outline>
    <contour>
      <point x="177" y="228" type="curve"/>
      <point x="124" y="228" type="line"/>
      <point x="118" y="373"/>
      <point x="111" y="416"/>
      <point x="71" y="548" type="curve" smooth="yes"/>
      <point x="62" y="578"/>
      <point x="57" y="611"/>
      <point x="57" y="637" type="curve" smooth="yes"/>
      <point x="57" y="700"/>
      <point x="92" y="737"/>
      <point x="151" y="737" type="curve" smooth="yes"/>
      <point x="209" y="737"/>
      <point x="244" y="700"/>
      <point x="244" y="637" type="curve" smooth="yes"/>
      <point x="244" y="598"/>
      <point x="242" y="589"/>
      <point x="210" y="479" type="curve" smooth="yes"/>
      <point x="191" y="414"/>
      <point x="181" y="337"/>
    </contour>
    <contour>
      <point x="150" y="172" type="curve" smooth="yes"/>
      <point x="202" y="172"/>
      <point x="244" y="130"/>
      <point x="244" y="79" type="curve" smooth="yes"/>
      <point x="244" y="27"/>
      <point x="202" y="-15"/>
      <point x="149" y="-15" type="curve" smooth="yes"/>
      <point x="99" y="-15"/>
      <point x="57" y="28"/>
      <point x="57" y="79" type="curve" smooth="yes"/>
      <point x="57" y="130"/>
      <point x="99" y="172"/>
    </contour>
  </outline>
</glyph>
<glyph name="percent" format="1">
  <advance width="833"/>
  <unicode hex="0025"/>
  <outline>
    <contour>
      <point x="651" y="722" type="line"/>
      <point x="237" y="0" type="line"/>
      <point x="186" y="0" type="line"/>
      <point x="535" y="612" type="line"/>
      <point x="493" y="598"/>
      <point x="469" y="594"/>
      <point x="433" y="594" type="curve" smooth="yes"/>
      <point x="408" y="594"/>
      <point x="393" y="596"/>
      <point x="367" y="603" type="curve"/>
      <point x="369" y="589"/>
      <point x="370" y="581"/>
      <point x="370" y="573" type="curve" smooth="yes"/>
      <point x="370" y="515"/>
      <point x="342" y="443"/>
      <point x="299" y="392" type="curve" smooth="yes"/>
      <point x="255" y="339"/>
      <point x="207" y="315"/>
      <point x="150" y="315" type="curve" smooth="yes"/>
      <point x="73" y="315"/>
      <point x="17" y="369"/>
      <point x="17" y="443" type="curve" smooth="yes"/>
      <point x="17" y="512"/>
      <point x="63" y="603"/>
      <point x="123" y="655" type="curve" smooth="yes"/>
      <point x="163" y="689"/>
      <point x="209" y="708"/>
      <point x="252" y="708" type="curve" smooth="yes"/>
      <point x="293" y="708"/>
      <point x="320" y="694"/>
      <point x="346" y="660" type="curve"/>
      <point x="373" y="647"/>
      <point x="401" y="641"/>
      <point x="438" y="641" type="curve" smooth="yes"/>
      <point x="512" y="641"/>
      <point x="561" y="664"/>
      <point x="605" y="722" type="curve"/>
    </contour>
    <contour>
      <point x="266" y="658" type="curve"/>
      <point x="229" y="645"/>
      <point x="217" y="633"/>
      <point x="181" y="569" type="curve" smooth="yes"/>
      <point x="137" y="492"/>
      <point x="121" y="451"/>
      <point x="121" y="416" type="curve" smooth="yes"/>
      <point x="121" y="384"/>
      <point x="142" y="362"/>
      <point x="172" y="362" type="curve" smooth="yes"/>
      <point x="248" y="362"/>
      <point x="330" y="476"/>
      <point x="330" y="581" type="curve" smooth="yes"/>
      <point x="330" y="595"/>
      <point x="328" y="606"/>
      <point x="324" y="620" type="curve"/>
      <point x="298" y="629"/>
      <point x="283" y="639"/>
    </contour>
    <contour>
      <point x="699" y="407" type="curve" smooth="yes"/>
      <point x="770" y="407"/>
      <point x="821" y="355"/>
      <point x="821" y="283" type="curve" smooth="yes"/>
      <point x="821" y="223"/>
      <point x="791" y="147"/>
      <point x="745" y="89" type="curve" smooth="yes"/>
      <point x="707" y="42"/>
      <point x="654" y="14"/>
      <point x="601" y="14" type="curve" smooth="yes"/>
      <point x="523" y="14"/>
      <point x="466" y="67"/>
      <point x="466" y="140" type="curve" smooth="yes"/>
      <point x="466" y="197"/>
      <point x="493" y="266"/>
      <point x="535" y="319" type="curve"/>
      <point x="582" y="376"/>
      <point x="639" y="407"/>
    </contour>
    <contour>
      <point x="724" y="355" type="curve" smooth="yes"/>
      <point x="696" y="355"/>
      <point x="671" y="334"/>
      <point x="641" y="285" type="curve" smooth="yes"/>
      <point x="590" y="202"/>
      <point x="569" y="151"/>
      <point x="569" y="114" type="curve" smooth="yes"/>
      <point x="569" y="84"/>
      <point x="592" y="61"/>
      <point x="620" y="61" type="curve" smooth="yes"/>
      <point x="697" y="61"/>
      <point x="781" y="175"/>
      <point x="781" y="279" type="curve" smooth="yes"/>
      <point x="781" y="321"/>
      <point x="756" y="355"/>
    </contour>
  </outline>
</glyph>
<glyph name="ampersand" format="1">
  <advance width="852"/>
  <unicode hex="0026"/>
  <outline>
    <contour>
      <point x="797" y="408" type="line"/>
      <point x="797" y="354" type="line"/>
      <point x="726" y="352"/>
      <point x="703" y="336"/>
      <point x="664" y="260" type="curve"/>
      <point x="637" y="211"/>
      <point x="629" y="197"/>
      <point x="601" y="159" type="curve"/>
      <point x="635" y="114"/>
      <point x="667" y="93"/>
      <point x="703" y="93" type="curve" smooth="yes"/>
      <point x="737" y="93"/>
      <point x="760" y="122"/>
      <point x="772" y="177" type="curve"/>
      <point x="822" y="166" type="line"/>
      <point x="818" y="129"/>
      <point x="809" y="103"/>
      <point x="792" y="74" type="curve" smooth="yes"/>
      <point x="754" y="11"/>
      <point x="708" y="-15"/>
      <point x="638" y="-15" type="curve" smooth="yes"/>
      <point x="576" y="-15"/>
      <point x="524" y="7"/>
      <point x="480" y="51" type="curve"/>
      <point x="417" y="6"/>
      <point x="349" y="-16"/>
      <point x="269" y="-16" type="curve" smooth="yes"/>
      <point x="194" y="-16"/>
      <point x="132" y="6"/>
      <point x="93" y="47" type="curve" smooth="yes"/>
      <point x="58" y="84"/>
      <point x="39" y="130"/>
      <point x="39" y="179" type="curve" smooth="yes"/>
      <point x="39" y="254"/>
      <point x="81" y="319"/>
      <point x="158" y="365" type="curve" smooth="yes"/>
      <point x="183" y="380"/>
      <point x="203" y="390"/>
      <point x="241" y="407" type="curve"/>
      <point x="212" y="467"/>
      <point x="202" y="503"/>
      <point x="202" y="551" type="curve" smooth="yes"/>
      <point x="202" y="600"/>
      <point x="225" y="651"/>
      <point x="261" y="684" type="curve" smooth="yes"/>
      <point x="300" y="719"/>
      <point x="353" y="737"/>
      <point x="418" y="737" type="curve" smooth="yes"/>
      <point x="527" y="737"/>
      <point x="600" y="679"/>
      <point x="600" y="594" type="curve" smooth="yes"/>
      <point x="600" y="551"/>
      <point x="579" y="510"/>
      <point x="543" y="481" type="curve" smooth="yes"/>
      <point x="511" y="456"/>
      <point x="486" y="442"/>
      <point x="425" y="417" type="curve"/>
      <point x="476" y="330"/>
      <point x="541" y="232"/>
      <point x="565" y="206" type="curve"/>
      <point x="599" y="247"/>
      <point x="613" y="277"/>
      <point x="613" y="305" type="curve" smooth="yes"/>
      <point x="613" y="339"/>
      <point x="587" y="353"/>
      <point x="524" y="354" type="curve"/>
      <point x="524" y="408" type="line"/>
    </contour>
    <contour>
      <point x="265" y="357" type="curve"/>
      <point x="228" y="334"/>
      <point x="209" y="301"/>
      <point x="209" y="258" type="curve" smooth="yes"/>
      <point x="209" y="231"/>
      <point x="217" y="201"/>
      <point x="232" y="171" type="curve" smooth="yes"/>
      <point x="266" y="102"/>
      <point x="314" y="67"/>
      <point x="374" y="67" type="curve" smooth="yes"/>
      <point x="399" y="67"/>
      <point x="416" y="72"/>
      <point x="440" y="89" type="curve"/>
      <point x="366" y="179"/>
      <point x="308" y="268"/>
    </contour>
    <contour>
      <point x="397" y="464" type="curve"/>
      <point x="406" y="468"/>
      <point x="408" y="469"/>
      <point x="413" y="471" type="curve" smooth="yes"/>
      <point x="463" y="496"/>
      <point x="490" y="538"/>
      <point x="490" y="589" type="curve" smooth="yes"/>
      <point x="490" y="644"/>
      <point x="457" y="685"/>
      <point x="412" y="685" type="curve" smooth="yes"/>
      <point x="372" y="685"/>
      <point x="342" y="652"/>
      <point x="342" y="610" type="curve" smooth="yes"/>
      <point x="342" y="572"/>
      <point x="357" y="533"/>
    </contour>
  </outline>
</glyph>
<glyph name="quotesingle" format="1">
  <advance width="241"/>
  <unicode hex="0027"/>
  <outline>
    <contour>
      <point x="143" y="416" type="line"/>
      <point x="97" y="416" type="line"/>
      <point x="55" y="635" type="line" smooth="yes"/>
      <point x="53" y="647"/>
      <point x="52" y="657"/>
      <point x="52" y="668" type="curve" smooth="yes"/>
      <point x="52" y="707"/>
      <point x="81" y="737"/>
      <point x="120" y="737" type="curve" smooth="yes"/>
      <point x="159" y="737"/>
      <point x="188" y="707"/>
      <point x="188" y="667" type="curve" smooth="yes"/>
      <point x="188" y="658"/>
      <point x="187" y="647"/>
      <point x="185" y="635" type="curve" smooth="yes"/>
    </contour>
  </outline>
</glyph>
<glyph name="parenleft" format="1">
  <advance width="389"/>
  <unicode hex="0028"/>
  <outline>
    <contour>
      <point x="338" y="-68" type="curve"/>
      <point x="338" y="-118" type="line"/>
      <point x="265" y="-80"/>
      <point x="220" y="-43"/>
      <point x="173" y="17" type="curve" smooth="yes"/>
      <point x="107" y="101"/>
      <point x="72" y="204"/>
      <point x="72" y="310" type="curve" smooth="yes"/>
      <point x="72" y="424"/>
      <point x="113" y="533"/>
      <point x="188" y="621" type="curve" smooth="yes"/>
      <point x="233" y="673"/>
      <point x="271" y="702"/>
      <point x="338" y="737" type="curve"/>
      <point x="338" y="687" type="line"/>
      <point x="284" y="649"/>
      <point x="259" y="618"/>
      <point x="236" y="558" type="curve" smooth="yes"/>
      <point x="210" y="493"/>
      <point x="197" y="407"/>
      <point x="197" y="309" type="curve" smooth="yes"/>
      <point x="197" y="201"/>
      <point x="214" y="108"/>
      <point x="244" y="41" type="curve"/>
      <point x="267" y="-7"/>
      <point x="289" y="-34"/>
    </contour>
  </outline>
</glyph>
<glyph name="parenright" format="1">
  <advance width="389"/>
  <unicode hex="0029"/>
  <outline>
    <contour>
      <point x="50" y="687" type="curve"/>
      <point x="50" y="737" type="line"/>
      <point x="123" y="699"/>
      <point x="168" y="662"/>
      <point x="215" y="602" type="curve" smooth="yes"/>
      <point x="281" y="518"/>
      <point x="316" y="415"/>
      <point x="316" y="309" type="curve" smooth="yes"/>
      <point x="316" y="195"/>
      <point x="275" y="86"/>
      <point x="200" y="-2" type="curve" smooth="yes"/>
      <point x="155" y="-54"/>
      <point x="117" y="-83"/>
      <point x="50" y="-118" type="curve"/>
      <point x="50" y="-68" type="line"/>
      <point x="104" y="-30"/>
      <point x="129" y="1"/>
      <point x="152" y="61" type="curve" smooth="yes"/>
      <point x="178" y="126"/>
      <point x="191" y="212"/>
      <point x="191" y="310" type="curve" smooth="yes"/>
      <point x="191" y="418"/>
      <point x="174" y="511"/>
      <point x="144" y="578" type="curve"/>
      <point x="121" y="626"/>
      <point x="99" y="653"/>
    </contour>
  </outline>
</glyph>
<glyph name="plus" format="1">
  <advance width="606"/>
  <unicode hex="002B"/>
  <outline>
    <contour>
      <point x="246" y="195" type="line"/>
      <point x="51" y="195" type="line"/>
      <point x="51" y="310" type="line"/>
      <point x="246" y="310" type="line"/>
      <point x="246" y="505" type="line"/>
      <point x="361" y="505" type="line"/>
      <point x="361" y="310" type="line"/>
      <point x="555" y="310" type="line"/>
      <point x="555" y="195" type="line"/>
      <point x="361" y="195" type="line"/>
      <point x="361" y="0" type="line"/>
      <point x="246" y="0" type="line"/>
    </contour>
  </outline>
</glyph>
<glyph name="comma" format="1">
  <advance width="278"/>
  <unicode hex="002C"/>
  <outline>
    <contour>
      <point x="67" y="-186" type="curve"/>
      <point x="40" y="-145" type="line"/>
      <point x="102" y="-102"/>
      <point x="139" y="-54"/>
      <point x="139" y="-16" type="curve" smooth="yes"/>
      <point x="139" y="-12"/>
      <point x="138" y="-10"/>
      <point x="135" y="-10" type="curve" smooth="yes"/>
      <point x="131" y="-10" type="line"/>
      <point x="129" y="-11"/>
      <point x="127" y="-11"/>
      <point x="123" y="-11" type="curve" smooth="yes"/>
      <point x="75" y="-11"/>
      <point x="39" y="26"/>
      <point x="39" y="75" type="curve" smooth="yes"/>
      <point x="39" y="130"/>
      <point x="81" y="173"/>
      <point x="135" y="173" type="curve" smooth="yes"/>
      <point x="195" y="173"/>
      <point x="236" y="124"/>
      <point x="236" y="52" type="curve" smooth="yes"/>
      <point x="236" y="-37"/>
      <point x="178" y="-119"/>
    </contour>
  </outline>
</glyph>
<glyph name="hyphen" format="1">
  <advance width="333"/>
  <unicode hex="002D"/>
  <outline>
    <contour>
      <point x="42" y="310" type="line"/>
      <point x="291" y="310" type="line"/>
      <point x="291" y="180" type="line"/>
      <point x="42" y="180" type="line"/>
    </contour>
  </outline>
</glyph>
<glyph name="period" format="1">
  <advance width="278"/>
  <unicode hex="002E"/>
  <outline>
    <contour>
      <point x="139" y="173" type="curve" smooth="yes"/>
      <point x="191" y="173"/>
      <point x="233" y="131"/>
      <point x="233" y="79" type="curve" smooth="yes"/>
      <point x="233" y="27"/>
      <point x="191" y="-15"/>
      <point x="138" y="-15" type="curve" smooth="yes"/>
      <point x="87" y="-15"/>
      <point x="45" y="28"/>
      <point x="45" y="79" type="curve" smooth="yes"/>
      <point x="45" y="131"/>
      <point x="87" y="173"/>
    </contour>
  </outline>
</glyph>
<glyph name="slash" format="1">
  <advance width="278"/>
  <unicode hex="002F"/>
  <outline>
    <contour>
      <point x="228" y="737" type="line"/>
      <point x="302" y="737" type="line"/>
      <point x="51" y="-15" type="line"/>
      <point x="-23" y="-15" type="line"/>
    </contour>
  </outline>
</glyph>
<glyph name="one" format="1">
  <advance width="574"/>
  <unicode hex="0031"/>
  <outline>
    <contour>
      <point x="371" y="708" type="line"/>
      <point x="371" y="144" type="line" smooth="yes"/>
      <point x="371" y="81"/>
      <point x="371" y="77"/>
      <point x="378" y="69" type="curve" smooth="yes"/>
      <point x="386" y="58"/>
      <point x="408" y="54"/>
      <point x="459" y="54" type="curve" smooth="yes"/>
      <point x="491" y="54" type="line"/>
      <point x="491" y="0" type="line"/>
      <point x="92" y="0" type="line"/>
      <point x="92" y="54" type="line"/>
      <point x="124" y="54" type="line" smooth="yes"/>
      <point x="177" y="54"/>
      <point x="198" y="58"/>
      <point x="207" y="69" type="curve" smooth="yes"/>
      <point x="214" y="77"/>
      <point x="214" y="82"/>
      <point x="214" y="144" type="curve" smooth="yes"/>
      <point x="214" y="499" type="line" smooth="yes"/>
      <point x="214" y="582"/>
      <point x="214" y="582"/>
      <point x="125" y="583" type="curve"/>
      <point x="83" y="583" type="line"/>
      <point x="83" y="639" type="line"/>
      <point x="201" y="641"/>
      <point x="274" y="661"/>
      <point x="336" y="708" type="curve"/>
    </contour>
  </outline>
</glyph>
<glyph name="four" format="1">
  <advance width="574"/>
  <unicode hex="0034"/>
  <outline>
    <contour>
      <point x="446" y="248" type="line"/>
      <point x="546" y="248" type="line"/>
      <point x="546" y="181" type="line"/>
      <point x="446" y="181" type="line"/>
      <point x="446" y="144" type="line" smooth="yes"/>
      <point x="446" y="81"/>
      <point x="446" y="77"/>
      <point x="453" y="68" type="curve" smooth="yes"/>
      <point x="461" y="59"/>
      <point x="484" y="54"/>
      <point x="525" y="54" type="curve" smooth="yes"/>
      <point x="536" y="54" type="line"/>
      <point x="536" y="0" type="line"/>
      <point x="195" y="0" type="line"/>
      <point x="195" y="54" type="line"/>
      <point x="206" y="54" type="line" smooth="yes"/>
      <point x="251" y="54"/>
      <point x="274" y="58"/>
      <point x="282" y="68" type="curve" smooth="yes"/>
      <point x="289" y="77"/>
      <point x="289" y="81"/>
      <point x="289" y="144" type="curve" smooth="yes"/>
      <point x="289" y="181" type="line"/>
      <point x="19" y="181" type="line"/>
      <point x="19" y="255" type="line"/>
      <point x="383" y="708" type="line"/>
      <point x="452" y="708" type="line"/>
      <point x="448" y="634"/>
      <point x="446" y="578"/>
      <point x="446" y="556" type="curve" smooth="yes"/>
    </contour>
    <contour>
      <point x="289" y="248" type="line"/>
      <point x="289" y="498" type="line"/>
      <point x="92" y="248" type="line"/>
    </contour>
  </outline>
</glyph>
<glyph name="six" format="1">
  <advance width="574"/>
  <unicode hex="0036"/>
  <outline>
    <contour>
      <point x="202" y="361" type="curve"/>
      <point x="244" y="409"/>
      <point x="284" y="427"/>
      <point x="348" y="427" type="curve" smooth="yes"/>
      <point x="466" y="427"/>
      <point x="549" y="343"/>
      <point x="549" y="223" type="curve" smooth="yes"/>
      <point x="549" y="86"/>
      <point x="442" y="-14"/>
      <point x="295" y="-14" type="curve" smooth="yes"/>
      <point x="213" y="-14"/>
      <point x="146" y="17"/>
      <point x="97" y="77" type="curve" smooth="yes"/>
      <point x="50" y="135"/>
      <point x="29" y="206"/>
      <point x="29" y="306" type="curve" smooth="yes"/>
      <point x="29" y="425"/>
      <point x="56" y="517"/>
      <point x="115" y="594" type="curve" smooth="yes"/>
      <point x="173" y="671"/>
      <point x="247" y="708"/>
      <point x="342" y="708" type="curve" smooth="yes"/>
      <point x="457" y="708"/>
      <point x="530" y="654"/>
      <point x="530" y="568" type="curve" smooth="yes"/>
      <point x="530" y="513"/>
      <point x="494" y="478"/>
      <point x="437" y="478" type="curve" smooth="yes"/>
      <point x="385" y="478"/>
      <point x="349" y="510"/>
      <point x="349" y="555" type="curve" smooth="yes"/>
      <point x="349" y="575"/>
      <point x="356" y="597"/>
      <point x="369" y="614" type="curve" smooth="yes"/>
      <point x="376" y="623"/>
      <point x="377" y="627"/>
      <point x="377" y="633" type="curve" smooth="yes"/>
      <point x="377" y="647"/>
      <point x="359" y="656"/>
      <point x="334" y="656" type="curve" smooth="yes"/>
      <point x="266" y="656"/>
      <point x="221" y="579"/>
      <point x="207" y="437" type="curve" smooth="yes"/>
      <point x="205" y="418"/>
      <point x="202" y="373"/>
    </contour>
    <contour>
      <point x="296" y="352" type="curve" smooth="yes"/>
      <point x="258" y="354"/>
      <point x="227" y="327"/>
      <point x="216" y="284" type="curve" smooth="yes"/>
      <point x="211" y="261"/>
      <point x="208" y="229"/>
      <point x="208" y="194" type="curve" smooth="yes"/>
      <point x="208" y="91"/>
      <point x="239" y="33"/>
      <point x="293" y="33" type="curve" smooth="yes"/>
      <point x="346" y="33"/>
      <point x="375" y="96"/>
      <point x="375" y="212" type="curve" smooth="yes"/>
      <point x="375" y="302"/>
      <point x="348" y="350"/>
    </contour>
  </outline>
</glyph>
<glyph name="equal" format="1">
  <advance width="606"/>
  <unicode hex="003D"/>
  <outline>
    <contour>
      <point x="51" y="92" type="line"/>
      <point x="51" y="207" type="line"/>
      <point x="555" y="207" type="line"/>
      <point x="555" y="92" type="line"/>
    </contour>
    <contour>
      <point x="51" y="298" type="line"/>
      <point x="51" y="413" type="line"/>
      <point x="555" y="413" type="line"/>
      <point x="555" y="298" type="line"/>
    </contour>
  </outline>
</glyph>
<glyph name="question" format="1">
  <advance width="500"/>
  <unicode hex="003F"/>
  <outline>
    <contour>
      <point x="254" y="228" type="curve"/>
      <point x="200" y="228" type="line"/>
      <point x="198" y="244"/>
      <point x="197" y="260"/>
      <point x="197" y="270" type="curve" smooth="yes"/>
      <point x="197" y="315"/>
      <point x="205" y="335"/>
      <point x="260" y="433" type="curve" smooth="yes"/>
      <point x="285" y="478"/>
      <point x="300" y="529"/>
      <point x="300" y="570" type="curve" smooth="yes"/>
      <point x="300" y="640"/>
      <point x="266" y="680"/>
      <point x="206" y="680" type="curve" smooth="yes"/>
      <point x="175" y="680"/>
      <point x="153" y="669"/>
      <point x="153" y="655" type="curve" smooth="yes"/>
      <point x="153" y="648"/>
      <point x="154" y="647"/>
      <point x="172" y="633" type="curve" smooth="yes"/>
      <point x="193" y="617"/>
      <point x="204" y="595"/>
      <point x="204" y="568" type="curve" smooth="yes"/>
      <point x="204" y="521"/>
      <point x="169" y="488"/>
      <point x="118" y="488" type="curve" smooth="yes"/>
      <point x="63" y="488"/>
      <point x="23" y="527"/>
      <point x="23" y="581" type="curve" smooth="yes"/>
      <point x="23" y="673"/>
      <point x="116" y="737"/>
      <point x="248" y="737" type="curve" smooth="yes"/>
      <point x="388" y="737"/>
      <point x="476" y="668"/>
      <point x="476" y="559" type="curve" smooth="yes"/>
      <point x="476" y="511"/>
      <point x="456" y="465"/>
      <point x="421" y="435" type="curve" smooth="yes"/>
      <point x="414" y="429"/>
      <point x="405" y="422"/>
      <point x="328" y="363" type="curve" smooth="yes"/>
      <point x="266" y="315"/>
      <point x="257" y="298"/>
    </contour>
    <contour>
      <point x="229" y="173" type="curve" smooth="yes"/>
      <point x="281" y="173"/>
      <point x="323" y="131"/>
      <point x="323" y="79" type="curve" smooth="yes"/>
      <point x="323" y="27"/>
      <point x="281" y="-15"/>
      <point x="228" y="-15" type="curve" smooth="yes"/>
      <point x="177" y="-15"/>
      <point x="135" y="28"/>
      <point x="135" y="79" type="curve" smooth="yes"/>
      <point x="135" y="131"/>
      <point x="177" y="173"/>
    </contour>
  </outline>
</glyph>
<glyph name="at" format="1">
  <advance width="747"/>
  <unicode hex="0040"/>
  <outline>
    <contour>
      <point x="644" y="190" type="curve"/>
      <point x="713" y="190" type="line"/>
      <point x="698" y="153"/>
      <point x="681" y="130"/>
      <point x="649" y="98" type="curve" smooth="yes"/>
      <point x="573" y="21"/>
      <point x="488" y="-15"/>
      <point x="387" y="-15" type="curve" smooth="yes"/>
      <point x="185" y="-15"/>
      <point x="24" y="152"/>
      <point x="24" y="362" type="curve" smooth="yes"/>
      <point x="24" y="570"/>
      <point x="186" y="737"/>
      <point x="389" y="737" type="curve" smooth="yes"/>
      <point x="574" y="737"/>
      <point x="722" y="599"/>
      <point x="722" y="426" type="curve" smooth="yes"/>
      <point x="722" y="281"/>
      <point x="606" y="148"/>
      <point x="480" y="148" type="curve" smooth="yes"/>
      <point x="434" y="148"/>
      <point x="403" y="170"/>
      <point x="403" y="204" type="curve" smooth="yes"/>
      <point x="403" y="207"/>
      <point x="404" y="213"/>
      <point x="405" y="220" type="curve"/>
      <point x="378" y="169"/>
      <point x="342" y="145"/>
      <point x="292" y="145" type="curve" smooth="yes"/>
      <point x="217" y="145"/>
      <point x="160" y="210"/>
      <point x="160" y="294" type="curve" smooth="yes"/>
      <point x="160" y="357"/>
      <point x="186" y="431"/>
      <point x="228" y="488" type="curve" smooth="yes"/>
      <point x="268" y="542"/>
      <point x="326" y="573"/>
      <point x="385" y="573" type="curve" smooth="yes"/>
      <point x="429" y="573"/>
      <point x="453" y="559"/>
      <point x="478" y="522" type="curve"/>
      <point x="490" y="556" type="line"/>
      <point x="594" y="556" type="line"/>
      <point x="502" y="268" type="line" smooth="yes"/>
      <point x="498" y="253"/>
      <point x="495" y="240"/>
      <point x="495" y="231" type="curve" smooth="yes"/>
      <point x="495" y="217"/>
      <point x="503" y="209"/>
      <point x="519" y="209" type="curve" smooth="yes"/>
      <point x="538" y="209"/>
      <point x="561" y="220"/>
      <point x="583" y="239" type="curve" smooth="yes"/>
      <point x="632" y="280"/>
      <point x="658" y="343"/>
      <point x="658" y="419" type="curve" smooth="yes"/>
      <point x="658" y="568"/>
      <point x="545" y="676"/>
      <point x="388" y="676" type="curve" smooth="yes"/>
      <point x="216" y="676"/>
      <point x="88" y="543"/>
      <point x="88" y="366" type="curve" smooth="yes"/>
      <point x="88" y="185"/>
      <point x="219" y="46"/>
      <point x="389" y="46" type="curve" smooth="yes"/>
      <point x="496" y="46"/>
      <point x="587" y="97"/>
    </contour>
    <contour>
      <point x="406" y="521" type="curve" smooth="yes"/>
      <point x="375" y="521"/>
      <point x="347" y="497"/>
      <point x="320" y="448" type="curve" smooth="yes"/>
      <point x="285" y="386"/>
      <point x="263" y="312"/>
      <point x="263" y="256" type="curve" smooth="yes"/>
      <point x="263" y="218"/>
      <point x="280" y="197"/>
      <point x="309" y="197" type="curve" smooth="yes"/>
      <point x="341" y="197"/>
      <point x="370" y="226"/>
      <point x="393" y="280" type="curve" smooth="yes"/>
      <point x="420" y="343"/>
      <point x="453" y="450"/>
      <point x="453" y="476" type="curve" smooth="yes"/>
      <point x="453" y="500"/>
      <point x="432" y="521"/>
    </contour>
  </outline>
</glyph>
<glyph name="D" format="1">
  <advance width="833"/>
  <unicode hex="0044"/>
  <outline>
    <contour>
      <point x="123" y="144" type="curve" smooth="yes"/>
      <point x="123" y="578" type="line" smooth="yes"/>
      <point x="123" y="641"/>
      <point x="123" y="645"/>
      <point x="116" y="653" type="curve" smooth="yes"/>
      <point x="107" y="664"/>
      <point x="86" y="668"/>
      <point x="34" y="668" type="curve" smooth="yes"/>
      <point x="19" y="668" type="line"/>
      <point x="19" y="722" type="line"/>
      <point x="375" y="722" type="line" smooth="yes"/>
      <point x="516" y="722"/>
      <point x="590" y="708"/>
      <point x="650" y="668" type="curve" smooth="yes"/>
      <point x="744" y="607"/>
      <point x="793" y="503"/>
      <point x="793" y="369" type="curve" smooth="yes"/>
      <point x="793" y="232"/>
      <point x="744" y="123"/>
      <point x="655" y="61" type="curve" smooth="yes"/>
      <point x="593" y="18"/>
      <point x="513" y="0"/>
      <point x="387" y="0" type="curve" smooth="yes"/>
      <point x="19" y="0" type="line"/>
      <point x="19" y="54" type="line"/>
      <point x="34" y="54" type="line" smooth="yes"/>
      <point x="86" y="54"/>
      <point x="107" y="58"/>
      <point x="116" y="69" type="curve" smooth="yes"/>
      <point x="123" y="77"/>
      <point x="123" y="81"/>
    </contour>
    <contour>
      <point x="363" y="54" type="curve" smooth="yes"/>
      <point x="384" y="54" type="line" smooth="yes"/>
      <point x="451" y="54"/>
      <point x="510" y="79"/>
      <point x="540" y="122" type="curve"/>
      <point x="573" y="167"/>
      <point x="594" y="264"/>
      <point x="594" y="371" type="curve" smooth="yes"/>
      <point x="594" y="571"/>
      <point x="527" y="668"/>
      <point x="388" y="668" type="curve" smooth="yes"/>
      <point x="363" y="668" type="line" smooth="yes"/>
      <point x="315" y="668"/>
      <point x="303" y="656"/>
      <point x="303" y="608" type="curve" smooth="yes"/>
      <point x="303" y="119" type="line" smooth="yes"/>
      <point x="303" y="66"/>
      <point x="314" y="54"/>
    </contour>
  </outline>
</glyph>
<glyph name="F" format="1">
  <advance width="722"/>
  <unicode hex="0046"/>
  <outline>
    <contour>
      <point x="684" y="722" type="line"/>
      <point x="690" y="462" type="line"/>
      <point x="638" y="462" type="line"/>
      <point x="623" y="515"/>
      <point x="601" y="565"/>
      <point x="580" y="594" type="curve" smooth="yes"/>
      <point x="546" y="641"/>
      <point x="485" y="668"/>
      <point x="411" y="668" type="curve" smooth="yes"/>
      <point x="392" y="668" type="line" smooth="yes"/>
      <point x="351" y="668"/>
      <point x="327" y="661"/>
      <point x="316" y="646" type="curve" smooth="yes"/>
      <point x="308" y="634"/>
      <point x="306" y="623"/>
      <point x="306" y="582" type="curve" smooth="yes"/>
      <point x="306" y="401" type="line"/>
      <point x="323" y="401" type="line" smooth="yes"/>
      <point x="402" y="401"/>
      <point x="450" y="450"/>
      <point x="461" y="543" type="curve"/>
      <point x="515" y="543" type="line"/>
      <point x="515" y="204" type="line"/>
      <point x="461" y="204" type="line"/>
      <point x="450" y="296"/>
      <point x="402" y="346"/>
      <point x="323" y="346" type="curve" smooth="yes"/>
      <point x="306" y="346" type="line"/>
      <point x="306" y="144" type="line" smooth="yes"/>
      <point x="306" y="81"/>
      <point x="306" y="77"/>
      <point x="313" y="69" type="curve" smooth="yes"/>
      <point x="322" y="58"/>
      <point x="343" y="54"/>
      <point x="396" y="54" type="curve" smooth="yes"/>
      <point x="422" y="54" type="line"/>
      <point x="422" y="0" type="line"/>
      <point x="22" y="0" type="line"/>
      <point x="22" y="54" type="line"/>
      <point x="37" y="54" type="line" smooth="yes"/>
      <point x="89" y="54"/>
      <point x="110" y="58"/>
      <point x="119" y="69" type="curve" smooth="yes"/>
      <point x="126" y="77"/>
      <point x="126" y="81"/>
      <point x="126" y="144" type="curve" smooth="yes"/>
      <point x="126" y="578" type="line" smooth="yes"/>
      <point x="126" y="641"/>
      <point x="126" y="645"/>
      <point x="119" y="653" type="curve" smooth="yes"/>
      <point x="110" y="664"/>
      <point x="89" y="668"/>
      <point x="37" y="668" type="curve" smooth="yes"/>
      <point x="22" y="668" type="line"/>
      <point x="22" y="722" type="line"/>
    </contour>
  </outline>
</glyph>
<glyph name="V" format="1">
  <advance width="759"/>
  <unicode hex="0056"/>
  <outline>
    <contour>
      <point x="429" y="206" type="line"/>
      <point x="571" y="562" type="line" smooth="yes"/>
      <point x="577" y="577"/>
      <point x="580" y="589"/>
      <point x="580" y="600" type="curve" smooth="yes"/>
      <point x="580" y="624"/>
      <point x="567" y="646"/>
      <point x="545" y="657" type="curve" smooth="yes"/>
      <point x="531" y="665"/>
      <point x="515" y="668"/>
      <point x="483" y="668" type="curve"/>
      <point x="483" y="722" type="line"/>
      <point x="778" y="722" type="line"/>
      <point x="778" y="668" type="line"/>
      <point x="717" y="662"/>
      <point x="672" y="621"/>
      <point x="640" y="541" type="curve" smooth="yes"/>
      <point x="411" y="-15" type="line"/>
      <point x="323" y="-15" type="line"/>
      <point x="80" y="599" type="line" smooth="yes"/>
      <point x="57" y="657"/>
      <point x="41" y="668"/>
      <point x="-18" y="668" type="curve"/>
      <point x="-18" y="722" type="line"/>
      <point x="344" y="722" type="line"/>
      <point x="344" y="668" type="line"/>
      <point x="323" y="668" type="line" smooth="yes"/>
      <point x="279" y="668"/>
      <point x="261" y="661"/>
      <point x="261" y="643" type="curve" smooth="yes"/>
      <point x="261" y="637"/>
      <point x="264" y="626"/>
      <point x="270" y="610" type="curve" smooth="yes"/>
    </contour>
  </outline>
</glyph>
<glyph name="W" format="1">
  <advance width="981"/>
  <unicode hex="0057"/>
  <outline>
    <contour>
      <point x="711" y="258" type="line"/>
      <point x="798" y="543" type="line" smooth="yes"/>
      <point x="809" y="579"/>
      <point x="811" y="590"/>
      <point x="811" y="604" type="curve" smooth="yes"/>
      <point x="811" y="628"/>
      <point x="798" y="649"/>
      <point x="777" y="659" type="curve" smooth="yes"/>
      <point x="764" y="665"/>
      <point x="750" y="667"/>
      <point x="721" y="668" type="curve"/>
      <point x="721" y="722" type="line"/>
      <point x="973" y="722" type="line"/>
      <point x="973" y="668" type="line"/>
      <point x="913" y="656"/>
      <point x="894" y="633"/>
      <point x="865" y="534" type="curve"/>
      <point x="691" y="-15" type="line"/>
      <point x="618" y="-15" type="line"/>
      <point x="493" y="392" type="line"/>
      <point x="361" y="-15" type="line"/>
      <point x="286" y="-15" type="line"/>
      <point x="82" y="610" type="line" smooth="yes"/>
      <point x="66" y="658"/>
      <point x="53" y="668"/>
      <point x="8" y="668" type="curve" smooth="yes"/>
      <point x="6" y="668" type="line"/>
      <point x="6" y="722" type="line"/>
      <point x="316" y="722" type="line"/>
      <point x="316" y="668" type="line"/>
      <point x="269" y="666"/>
      <point x="257" y="661"/>
      <point x="257" y="643" type="curve" smooth="yes"/>
      <point x="257" y="636"/>
      <point x="259" y="626"/>
      <point x="265" y="609" type="curve" smooth="yes"/>
      <point x="381" y="251" type="line"/>
      <point x="461" y="502" type="line"/>
      <point x="425" y="615" type="line"/>
      <point x="410" y="658"/>
      <point x="400" y="666"/>
      <point x="361" y="668" type="curve"/>
      <point x="361" y="722" type="line"/>
      <point x="657" y="722" type="line"/>
      <point x="657" y="668" type="line"/>
      <point x="610" y="665"/>
      <point x="598" y="660"/>
      <point x="598" y="641" type="curve" smooth="yes"/>
      <point x="598" y="635"/>
      <point x="599" y="629"/>
      <point x="604" y="614" type="curve" smooth="yes"/>
    </contour>
  </outline>
</glyph>
<glyph name="X" format="1">
  <advance width="722"/>
  <unicode hex="0058"/>
  <outline>
    <contour>
      <point x="431" y="413" type="line"/>
      <point x="608" y="155" type="line" smooth="yes"/>
      <point x="670" y="65"/>
      <point x="682" y="56"/>
      <point x="735" y="54" type="curve"/>
      <point x="735" y="0" type="line"/>
      <point x="375" y="0" type="line"/>
      <point x="375" y="54" type="line"/>
      <point x="425" y="55"/>
      <point x="441" y="61"/>
      <point x="441" y="78" type="curve" smooth="yes"/>
      <point x="441" y="88"/>
      <point x="436" y="102"/>
      <point x="428" y="112" type="curve" smooth="yes"/>
      <point x="319" y="268" type="line"/>
      <point x="231" y="156" type="line" smooth="yes"/>
      <point x="218" y="140"/>
      <point x="211" y="122"/>
      <point x="211" y="106" type="curve" smooth="yes"/>
      <point x="211" y="71"/>
      <point x="243" y="56"/>
      <point x="319" y="54" type="curve"/>
      <point x="319" y="0" type="line"/>
      <point x="-12" y="0" type="line"/>
      <point x="-12" y="54" type="line"/>
      <point x="46" y="56"/>
      <point x="74" y="73"/>
      <point x="132" y="144" type="curve" smooth="yes"/>
      <point x="279" y="325" type="line"/>
      <point x="74" y="617" type="line" smooth="yes"/>
      <point x="46" y="657"/>
      <point x="32" y="665"/>
      <point x="-12" y="668" type="curve"/>
      <point x="-12" y="722" type="line"/>
      <point x="346" y="722" type="line"/>
      <point x="346" y="668" type="line"/>
      <point x="287" y="666"/>
      <point x="278" y="663"/>
      <point x="278" y="644" type="curve" smooth="yes"/>
      <point x="278" y="636"/>
      <point x="281" y="628"/>
      <point x="288" y="618" type="curve" smooth="yes"/>
      <point x="393" y="467" type="line"/>
      <point x="463" y="553" type="line" smooth="yes"/>
      <point x="487" y="581"/>
      <point x="497" y="601"/>
      <point x="497" y="617" type="curve" smooth="yes"/>
      <point x="497" y="650"/>
      <point x="464" y="668"/>
      <point x="401" y="668" type="curve"/>
      <point x="401" y="722" type="line"/>
      <point x="709" y="722" type="line"/>
      <point x="709" y="668" type="line"/>
      <point x="657" y="664"/>
      <point x="622" y="644"/>
      <point x="577" y="591" type="curve"/>
    </contour>
  </outline>
</glyph>
<glyph name="bracketleft" format="1">
  <advance width="389"/>
  <unicode hex="005B"/>
  <outline>
    <contour>
      <point x="339" y="722" type="line"/>
      <point x="339" y="672" type="line"/>
      <point x="207" y="672" type="line"/>
      <point x="207" y="-58" type="line"/>
      <point x="339" y="-58" type="line"/>
      <point x="339" y="-108" type="line"/>
      <point x="84" y="-108" type="line"/>
      <point x="84" y="722" type="line"/>
    </contour>
  </outline>
</glyph>
<glyph name="backslash" format="1">
  <advance width="606"/>
  <unicode hex="005C"/>
  <outline>
    <contour>
      <point x="124" y="737" type="line"/>
      <point x="555" y="0" type="line"/>
      <point x="481" y="0" type="line"/>
      <point x="50" y="737" type="line"/>
    </contour>
  </outline>
</glyph>
<glyph name="bracketright" format="1">
  <advance width="389"/>
  <unicode hex="005D"/>
  <outline>
    <contour>
      <point x="31" y="-108" type="line"/>
      <point x="31" y="-58" type="line"/>
      <point x="163" y="-58" type="line"/>
      <point x="163" y="672" type="line"/>
      <point x="31" y="672" type="line"/>
      <point x="31" y="722" type="line"/>
      <point x="286" y="722" type="line"/>
      <point x="286" y="-108" type="line"/>
    </contour>
  </outline>
</glyph>
<glyph name="underscore" format="1">
  <advance width="500"/>
  <unicode hex="005F"/>
  <outline>
    <contour>
      <point x="0" y="-58" type="line"/>
      <point x="500" y="-58" type="line"/>
      <point x="500" y="-148" type="line"/>
      <point x="0" y="-148" type="line"/>
    </contour>
  </outline>
</glyph>
<glyph name="grave" format="1">
  <advance width="333"/>
  <unicode hex="0060"/>
  <outline>
    <contour>
      <point x="249" y="545" type="line"/>
      <point x="185" y="545" type="line"/>
      <point x="38" y="632" type="line" smooth="yes"/>
      <point x="14" y="646"/>
      <point x="2" y="664"/>
      <point x="2" y="684" type="curve" smooth="yes"/>
      <point x="2" y="712"/>
      <point x="27" y="734"/>
      <point x="59" y="734" type="curve" smooth="yes"/>
      <point x="76" y="734"/>
      <point x="92" y="728"/>
      <point x="107" y="716" type="curve" smooth="yes"/>
      <point x="113" y="712"/>
      <point x="113" y="712"/>
      <point x="136" y="683" type="curve" smooth="yes"/>
    </contour>
  </outline>
</glyph>
<glyph name="b" format="1">
  <advance width="648"/>
  <unicode hex="0062"/>
  <outline>
    <contour>
      <point x="240" y="737" type="line"/>
      <point x="240" y="413" type="line"/>
      <point x="281" y="465"/>
      <point x="328" y="488"/>
      <point x="395" y="488" type="curve" smooth="yes"/>
      <point x="522" y="488"/>
      <point x="612" y="387"/>
      <point x="612" y="245" type="curve" smooth="yes"/>
      <point x="612" y="91"/>
      <point x="508" y="-15"/>
      <point x="356" y="-15" type="curve" smooth="yes"/>
      <point x="281" y="-15"/>
      <point x="230" y="9"/>
      <point x="183" y="66" type="curve"/>
      <point x="118" y="-14" type="line"/>
      <point x="69" y="-14" type="line"/>
      <point x="79" y="41"/>
      <point x="83" y="109"/>
      <point x="83" y="206" type="curve" smooth="yes"/>
      <point x="83" y="578" type="line" smooth="yes"/>
      <point x="83" y="667"/>
      <point x="80" y="671"/>
      <point x="19" y="671" type="curve" smooth="yes"/>
      <point x="0" y="671" type="line"/>
      <point x="0" y="722" type="line"/>
    </contour>
    <contour>
      <point x="345" y="413" type="curve" smooth="yes"/>
      <point x="275" y="413"/>
      <point x="239" y="345"/>
      <point x="239" y="212" type="curve" smooth="yes"/>
      <point x="239" y="99"/>
      <point x="274" y="37"/>
      <point x="340" y="37" type="curve" smooth="yes"/>
      <point x="405" y="37"/>
      <point x="439" y="104"/>
      <point x="439" y="233" type="curve" smooth="yes"/>
      <point x="439" y="353"/>
      <point x="408" y="413"/>
    </contour>
  </outline>
</glyph>
<glyph name="d" format="1">
  <advance width="667"/>
  <unicode hex="0064"/>
  <outline>
    <contour>
      <point x="568" y="737" type="line"/>
      <point x="568" y="122" type="line" smooth="yes"/>
      <point x="568" y="92"/>
      <point x="571" y="80"/>
      <point x="580" y="72" type="curve" smooth="yes"/>
      <point x="588" y="65"/>
      <point x="591" y="65"/>
      <point x="627" y="65" type="curve" smooth="yes"/>
      <point x="654" y="65" type="line"/>
      <point x="654" y="11" type="line"/>
      <point x="420" y="0" type="line"/>
      <point x="420" y="72" type="line"/>
      <point x="379" y="12"/>
      <point x="328" y="-15"/>
      <point x="256" y="-15" type="curve" smooth="yes"/>
      <point x="126" y="-15"/>
      <point x="37" y="84"/>
      <point x="37" y="229" type="curve" smooth="yes"/>
      <point x="37" y="375"/>
      <point x="137" y="488"/>
      <point x="265" y="488" type="curve" smooth="yes"/>
      <point x="328" y="488"/>
      <point x="373" y="467"/>
      <point x="411" y="421" type="curve"/>
      <point x="411" y="578" type="line" smooth="yes"/>
      <point x="411" y="667"/>
      <point x="408" y="671"/>
      <point x="347" y="671" type="curve" smooth="yes"/>
      <point x="315" y="671" type="line"/>
      <point x="315" y="722" type="line"/>
    </contour>
    <contour>
      <point x="311" y="420" type="curve" smooth="yes"/>
      <point x="247" y="420"/>
      <point x="210" y="350"/>
      <point x="210" y="231" type="curve" smooth="yes"/>
      <point x="210" y="117"/>
      <point x="246" y="53"/>
      <point x="309" y="53" type="curve" smooth="yes"/>
      <point x="371" y="53"/>
      <point x="413" y="128"/>
      <point x="413" y="237" type="curve" smooth="yes"/>
      <point x="413" y="348"/>
      <point x="373" y="420"/>
    </contour>
  </outline>
</glyph>
<glyph name="e" format="1">
  <advance width="574"/>
  <unicode hex="0065"/>
  <outline>
    <contour>
      <point x="540" y="228" type="line"/>
      <point x="205" y="228" type="line"/>
      <point x="206" y="171"/>
      <point x="213" y="140"/>
      <point x="230" y="113" type="curve" smooth="yes"/>
      <point x="255" y="75"/>
      <point x="295" y="53"/>
      <point x="341" y="53" type="curve" smooth="yes"/>
      <point x="406" y="53"/>
      <point x="451" y="86"/>
      <point x="491" y="164" type="curve"/>
      <point x="540" y="144" type="line"/>
      <point x="496" y="37"/>
      <point x="419" y="-15"/>
      <point x="302" y="-15" type="curve" smooth="yes"/>
      <point x="226" y="-15"/>
      <point x="159" y="7"/>
      <point x="113" y="46" type="curve" smooth="yes"/>
      <point x="63" y="89"/>
      <point x="32" y="161"/>
      <point x="32" y="232" type="curve" smooth="yes"/>
      <point x="32" y="298"/>
      <point x="59" y="364"/>
      <point x="104" y="411" type="curve" smooth="yes"/>
      <point x="154" y="462"/>
      <point x="221" y="488"/>
      <point x="301" y="488" type="curve" smooth="yes"/>
      <point x="447" y="488"/>
      <point x="540" y="393"/>
      <point x="540" y="244" type="curve" smooth="yes"/>
    </contour>
    <contour>
      <point x="206" y="283" type="curve"/>
      <point x="356" y="283" type="line" smooth="yes"/>
      <point x="376" y="283"/>
      <point x="383" y="291"/>
      <point x="383" y="315" type="curve" smooth="yes"/>
      <point x="383" y="394"/>
      <point x="355" y="436"/>
      <point x="304" y="436" type="curve" smooth="yes"/>
      <point x="244" y="436"/>
      <point x="206" y="378"/>
    </contour>
  </outline>
</glyph>
<glyph name="h" format="1">
  <advance width="685"/>
  <unicode hex="0068"/>
  <outline>
    <contour>
      <point x="256" y="737" type="line"/>
      <point x="256" y="396" type="line"/>
      <point x="298" y="460"/>
      <point x="350" y="488"/>
      <point x="426" y="488" type="curve" smooth="yes"/>
      <point x="478" y="488"/>
      <point x="522" y="471"/>
      <point x="549" y="440" type="curve"/>
      <point x="576" y="411"/>
      <point x="587" y="373"/>
      <point x="587" y="311" type="curve" smooth="yes"/>
      <point x="587" y="144" type="line"/>
      <point x="587" y="98" type="line" smooth="yes"/>
      <point x="587" y="57"/>
      <point x="598" y="51"/>
      <point x="662" y="51" type="curve" smooth="yes"/>
      <point x="666" y="51" type="line"/>
      <point x="666" y="0" type="line"/>
      <point x="361" y="0" type="line"/>
      <point x="361" y="51" type="line"/>
      <point x="420" y="51"/>
      <point x="430" y="58"/>
      <point x="430" y="97" type="curve" smooth="yes"/>
      <point x="430" y="144" type="line"/>
      <point x="430" y="297" type="line" smooth="yes"/>
      <point x="430" y="361"/>
      <point x="405" y="395"/>
      <point x="359" y="395" type="curve" smooth="yes"/>
      <point x="322" y="395"/>
      <point x="287" y="372"/>
      <point x="271" y="336" type="curve" smooth="yes"/>
      <point x="260" y="312"/>
      <point x="256" y="286"/>
      <point x="256" y="241" type="curve" smooth="yes"/>
      <point x="256" y="144" type="line"/>
      <point x="256" y="98" type="line" smooth="yes"/>
      <point x="256" y="57"/>
      <point x="266" y="51"/>
      <point x="324" y="51" type="curve"/>
      <point x="324" y="0" type="line"/>
      <point x="19" y="0" type="line"/>
      <point x="19" y="51" type="line"/>
      <point x="23" y="51" type="line" smooth="yes"/>
      <point x="88" y="51"/>
      <point x="99" y="57"/>
      <point x="99" y="97" type="curve" smooth="yes"/>
      <point x="99" y="144" type="line"/>
      <point x="99" y="574" type="line"/>
      <point x="98" y="669"/>
      <point x="97" y="671"/>
      <point x="35" y="671" type="curve" smooth="yes"/>
      <point x="16" y="671" type="line"/>
      <point x="16" y="722" type="line"/>
    </contour>
  </outline>
</glyph>
<glyph name="l" format="1">
  <advance width="352"/>
  <unicode hex="006C"/>
  <outline>
    <contour>
      <point x="256" y="737" type="line"/>
      <point x="256" y="144" type="line"/>
      <point x="256" y="97" type="line" smooth="yes"/>
      <point x="256" y="72"/>
      <point x="259" y="64"/>
      <point x="271" y="58" type="curve" smooth="yes"/>
      <point x="278" y="54"/>
      <point x="305" y="51"/>
      <point x="324" y="51" type="curve" smooth="yes"/>
      <point x="331" y="51" type="line"/>
      <point x="331" y="0" type="line"/>
      <point x="19" y="0" type="line"/>
      <point x="19" y="51" type="line"/>
      <point x="23" y="51" type="line" smooth="yes"/>
      <point x="88" y="51"/>
      <point x="99" y="57"/>
      <point x="99" y="97" type="curve" smooth="yes"/>
      <point x="99" y="144" type="line"/>
      <point x="99" y="578" type="line" smooth="yes"/>
      <point x="99" y="667"/>
      <point x="96" y="671"/>
      <point x="35" y="671" type="curve" smooth="yes"/>
      <point x="16" y="671" type="line"/>
      <point x="16" y="722" type="line"/>
    </contour>
  </outline>
</glyph>
<glyph name="m" format="1">
  <advance width="963"/>
  <unicode hex="006D"/>
  <outline>
    <contour>
      <point x="248" y="473" type="line"/>
      <point x="248" y="394" type="line"/>
      <point x="288" y="457"/>
      <point x="341" y="488"/>
      <point x="408" y="488" type="curve" smooth="yes"/>
      <point x="475" y="488"/>
      <point x="528" y="454"/>
      <point x="549" y="398" type="curve"/>
      <point x="596" y="462"/>
      <point x="642" y="488"/>
      <point x="706" y="488" type="curve" smooth="yes"/>
      <point x="795" y="488"/>
      <point x="863" y="425"/>
      <point x="863" y="343" type="curve" smooth="yes"/>
      <point x="863" y="144" type="line"/>
      <point x="863" y="97" type="line" smooth="yes"/>
      <point x="863" y="58"/>
      <point x="874" y="51"/>
      <point x="938" y="51" type="curve" smooth="yes"/>
      <point x="942" y="51" type="line"/>
      <point x="942" y="0" type="line"/>
      <point x="648" y="0" type="line"/>
      <point x="648" y="51" type="line"/>
      <point x="699" y="52"/>
      <point x="706" y="58"/>
      <point x="706" y="97" type="curve" smooth="yes"/>
      <point x="706" y="144" type="line"/>
      <point x="706" y="306" type="line" smooth="yes"/>
      <point x="706" y="368"/>
      <point x="689" y="395"/>
      <point x="651" y="395" type="curve" smooth="yes"/>
      <point x="595" y="395"/>
      <point x="560" y="349"/>
      <point x="560" y="278" type="curve" smooth="yes"/>
      <point x="560" y="144" type="line"/>
      <point x="560" y="97" type="line" smooth="yes"/>
      <point x="560" y="58"/>
      <point x="567" y="52"/>
      <point x="618" y="51" type="curve"/>
      <point x="618" y="0" type="line"/>
      <point x="346" y="0" type="line"/>
      <point x="346" y="51" type="line"/>
      <point x="396" y="52"/>
      <point x="403" y="58"/>
      <point x="403" y="98" type="curve" smooth="yes"/>
      <point x="403" y="144" type="line"/>
      <point x="403" y="302" type="line" smooth="yes"/>
      <point x="403" y="368"/>
      <point x="387" y="395"/>
      <point x="348" y="395" type="curve" smooth="yes"/>
      <point x="293" y="395"/>
      <point x="257" y="349"/>
      <point x="257" y="278" type="curve" smooth="yes"/>
      <point x="257" y="144" type="line"/>
      <point x="257" y="97" type="line" smooth="yes"/>
      <point x="257" y="58"/>
      <point x="264" y="52"/>
      <point x="315" y="51" type="curve"/>
      <point x="315" y="0" type="line"/>
      <point x="20" y="0" type="line"/>
      <point x="20" y="51" type="line"/>
      <point x="25" y="51" type="line" smooth="yes"/>
      <point x="89" y="51"/>
      <point x="100" y="57"/>
      <point x="100" y="98" type="curve" smooth="yes"/>
      <point x="100" y="144" type="line"/>
      <point x="100" y="321" type="line" smooth="yes"/>
      <point x="100" y="410"/>
      <point x="97" y="415"/>
      <point x="36" y="415" type="curve" smooth="yes"/>
      <point x="20" y="415" type="line"/>
      <point x="20" y="466" type="line"/>
    </contour>
  </outline>
</glyph>
<glyph name="q" format="1">
  <advance width="648"/>
  <unicode hex="0071"/>
  <outline>
    <contour>
      <point x="527" y="487" type="line"/>
      <point x="576" y="487" type="line"/>
      <point x="566" y="408"/>
      <point x="561" y="333"/>
      <point x="561" y="272" type="curve" smooth="yes"/>
      <point x="561" y="-58" type="line"/>
      <point x="561" y="-105" type="line" smooth="yes"/>
      <point x="561" y="-145"/>
      <point x="572" y="-152"/>
      <point x="636" y="-152" type="curve" smooth="yes"/>
      <point x="640" y="-152" type="line"/>
      <point x="640" y="-202" type="line"/>
      <point x="317" y="-202" type="line"/>
      <point x="317" y="-152" type="line"/>
      <point x="328" y="-152" type="line" smooth="yes"/>
      <point x="393" y="-152"/>
      <point x="404" y="-145"/>
      <point x="404" y="-105" type="curve" smooth="yes"/>
      <point x="404" y="-58" type="line"/>
      <point x="404" y="58" type="line"/>
      <point x="361" y="8"/>
      <point x="313" y="-15"/>
      <point x="250" y="-15" type="curve" smooth="yes"/>
      <point x="192" y="-15"/>
      <point x="130" y="12"/>
      <point x="95" y="53" type="curve"/>
      <point x="58" y="94"/>
      <point x="34" y="166"/>
      <point x="34" y="232" type="curve" smooth="yes"/>
      <point x="34" y="379"/>
      <point x="143" y="488"/>
      <point x="289" y="488" type="curve" smooth="yes"/>
      <point x="365" y="488"/>
      <point x="418" y="463"/>
      <point x="463" y="407" type="curve"/>
    </contour>
    <contour>
      <point x="308" y="436" type="curve" smooth="yes"/>
      <point x="242" y="436"/>
      <point x="207" y="368"/>
      <point x="207" y="236" type="curve" smooth="yes"/>
      <point x="207" y="116"/>
      <point x="240" y="53"/>
      <point x="304" y="53" type="curve" smooth="yes"/>
      <point x="368" y="53"/>
      <point x="407" y="129"/>
      <point x="407" y="253" type="curve" smooth="yes"/>
      <point x="407" y="306"/>
      <point x="402" y="342"/>
      <point x="390" y="372" type="curve" smooth="yes"/>
      <point x="374" y="411"/>
      <point x="342" y="436"/>
    </contour>
  </outline>
</glyph>
<glyph name="u" format="1">
  <advance width="685"/>
  <unicode hex="0075"/>
  <outline>
    <contour>
      <point x="584" y="473" type="line"/>
      <point x="584" y="131" type="line"/>
      <point x="584" y="108" type="line" smooth="yes"/>
      <point x="584" y="72"/>
      <point x="592" y="65"/>
      <point x="639" y="65" type="curve" smooth="yes"/>
      <point x="667" y="65" type="line"/>
      <point x="667" y="11" type="line"/>
      <point x="434" y="0" type="line"/>
      <point x="434" y="82" type="line"/>
      <point x="376" y="11"/>
      <point x="328" y="-15"/>
      <point x="257" y="-15" type="curve" smooth="yes"/>
      <point x="189" y="-15"/>
      <point x="136" y="16"/>
      <point x="109" y="71" type="curve" smooth="yes"/>
      <point x="95" y="99"/>
      <point x="93" y="117"/>
      <point x="93" y="191" type="curve" smooth="yes"/>
      <point x="93" y="318" type="line"/>
      <point x="92" y="413"/>
      <point x="91" y="415"/>
      <point x="29" y="415" type="curve" smooth="yes"/>
      <point x="13" y="415" type="line"/>
      <point x="13" y="466" type="line"/>
      <point x="250" y="473" type="line"/>
      <point x="250" y="185" type="line" smooth="yes"/>
      <point x="250" y="109"/>
      <point x="271" y="78"/>
      <point x="321" y="78" type="curve" smooth="yes"/>
      <point x="359" y="78"/>
      <point x="394" y="101"/>
      <point x="410" y="135" type="curve"/>
      <point x="423" y="160"/>
      <point x="427" y="188"/>
      <point x="427" y="238" type="curve" smooth="yes"/>
      <point x="427" y="318" type="line" smooth="yes"/>
      <point x="427" y="411"/>
      <point x="424" y="415"/>
      <point x="363" y="415" type="curve" smooth="yes"/>
      <point x="347" y="415" type="line"/>
      <point x="347" y="466" type="line"/>
    </contour>
  </outline>
</glyph>
<glyph name="v" format="1">
  <advance width="611"/>
  <unicode hex="0076"/>
  <outline>
    <contour>
      <point x="357" y="140" type="line"/>
      <point x="430" y="324" type="line" smooth="yes"/>
      <point x="445" y="361"/>
      <point x="448" y="370"/>
      <point x="448" y="384" type="curve" smooth="yes"/>
      <point x="448" y="412"/>
      <point x="426" y="423"/>
      <point x="371" y="423" type="curve"/>
      <point x="371" y="473" type="line"/>
      <point x="598" y="473" type="line"/>
      <point x="598" y="423" type="line"/>
      <point x="594" y="423" type="line" smooth="yes"/>
      <point x="554" y="423"/>
      <point x="532" y="402"/>
      <point x="503" y="335" type="curve" smooth="yes"/>
      <point x="349" y="-14" type="line"/>
      <point x="264" y="-14" type="line"/>
      <point x="80" y="370" type="line" smooth="yes"/>
      <point x="59" y="414"/>
      <point x="49" y="421"/>
      <point x="12" y="423" type="curve"/>
      <point x="12" y="473" type="line"/>
      <point x="294" y="473" type="line"/>
      <point x="294" y="423" type="line"/>
      <point x="256" y="423"/>
      <point x="242" y="417"/>
      <point x="242" y="400" type="curve" smooth="yes"/>
      <point x="242" y="394"/>
      <point x="245" y="384"/>
      <point x="250" y="374" type="curve" smooth="yes"/>
    </contour>
  </outline>
</glyph>
<glyph name="bar" format="1">
  <advance width="606"/>
  <unicode hex="007C"/>
  <outline>
    <contour>
      <point x="362" y="722" type="line"/>
      <point x="362" y="0" type="line"/>
      <point x="243" y="0" type="line"/>
      <point x="243" y="722" type="line"/>
    </contour>
  </outline>
</glyph>
<glyph name="braceright" format="1">
  <advance width="389"/>
  <unicode hex="007D"/>
  <outline>
    <contour>
      <point x="290" y="329" type="curve"/>
      <point x="290" y="285" type="line"/>
      <point x="249" y="275"/>
      <point x="234" y="265"/>
      <point x="224" y="239" type="curve" smooth="yes"/>
      <point x="217" y="221"/>
      <point x="216" y="212"/>
      <point x="216" y="152" type="curve" smooth="yes"/>
      <point x="216" y="42" type="line" smooth="yes"/>
      <point x="216" y="-24"/>
      <point x="206" y="-60"/>
      <point x="180" y="-81" type="curve"/>
      <point x="162" y="-97"/>
      <point x="122" y="-108"/>
      <point x="85" y="-108" type="curve" smooth="yes"/>
      <point x="31" y="-108" type="line"/>
      <point x="31" y="-62" type="line"/>
      <point x="60" y="-59"/>
      <point x="73" y="-53"/>
      <point x="83" y="-37" type="curve" smooth="yes"/>
      <point x="93" y="-22"/>
      <point x="93" y="-22"/>
      <point x="93" y="64" type="curve" smooth="yes"/>
      <point x="93" y="182" type="line" smooth="yes"/>
      <point x="93" y="259"/>
      <point x="116" y="287"/>
      <point x="195" y="307" type="curve"/>
      <point x="116" y="327"/>
      <point x="93" y="355"/>
      <point x="93" y="432" type="curve" smooth="yes"/>
      <point x="93" y="550" type="line"/>
      <point x="93" y="606" type="line" smooth="yes"/>
      <point x="93" y="653"/>
      <point x="77" y="672"/>
      <point x="31" y="676" type="curve"/>
      <point x="31" y="722" type="line"/>
      <point x="85" y="722" type="line" smooth="yes"/>
      <point x="122" y="722"/>
      <point x="162" y="711"/>
      <point x="180" y="695" type="curve"/>
      <point x="206" y="674"/>
      <point x="216" y="638"/>
      <point x="216" y="572" type="curve" smooth="yes"/>
      <point x="216" y="462" type="line" smooth="yes"/>
      <point x="216" y="397"/>
      <point x="217" y="386"/>
      <point x="228" y="367" type="curve" smooth="yes"/>
      <point x="239" y="347"/>
      <point x="253" y="338"/>
    </contour>
  </outline>
</glyph>
<glyph name="asciitilde" format="1">
  <advance width="606"/>
  <unicode hex="007E"/>
  <outline>
    <contour>
      <point x="135" y="169" type="curve"/>
      <point x="51" y="222" type="line"/>
      <point x="91" y="297"/>
      <point x="140" y="335"/>
      <point x="195" y="335" type="curve" smooth="yes"/>
      <point x="218" y="335"/>
      <point x="240" y="329"/>
      <point x="285" y="312" type="curve" smooth="yes"/>
      <point x="338" y="293" type="line"/>
      <point x="381" y="276"/>
      <point x="389" y="274"/>
      <point x="404" y="274" type="curve" smooth="yes"/>
      <point x="427" y="274"/>
      <point x="443" y="286"/>
      <point x="471" y="326" type="curve"/>
      <point x="555" y="273" type="line"/>
      <point x="514" y="198"/>
      <point x="466" y="160"/>
      <point x="411" y="160" type="curve" smooth="yes"/>
      <point x="388" y="160"/>
      <point x="366" y="165"/>
      <point x="321" y="183" type="curve"/>
      <point x="268" y="202" type="line"/>
      <point x="225" y="219"/>
      <point x="217" y="221"/>
      <point x="202" y="221" type="curve" smooth="yes"/>
      <point x="179" y="221"/>
      <point x="163" y="209"/>
    </contour>
  </outline>
</glyph>
<glyph name="cent" format="1">
  <advance width="574"/>
  <unicode hex="00A2"/>
  <outline>
    <contour>
      <point x="522" y="567" type="line"/>
      <point x="460" y="454" type="line"/>
      <point x="502" y="428"/>
      <point x="523" y="395"/>
      <point x="523" y="353" type="curve" smooth="yes"/>
      <point x="523" y="302"/>
      <point x="486" y="265"/>
      <point x="436" y="265" type="curve" smooth="yes"/>
      <point x="410" y="265"/>
      <point x="388" y="274"/>
      <point x="372" y="291" type="curve"/>
      <point x="259" y="83" type="line"/>
      <point x="278" y="64"/>
      <point x="305" y="54"/>
      <point x="339" y="54" type="curve" smooth="yes"/>
      <point x="407" y="54"/>
      <point x="458" y="96"/>
      <point x="482" y="174" type="curve"/>
      <point x="534" y="158" type="line"/>
      <point x="493" y="39"/>
      <point x="419" y="-14"/>
      <point x="295" y="-14" type="curve" smooth="yes"/>
      <point x="264" y="-14"/>
      <point x="238" y="-11"/>
      <point x="213" y="-3" type="curve"/>
      <point x="156" y="-107" type="line"/>
      <point x="98" y="-107" type="line"/>
      <point x="165" y="16" type="line"/>
      <point x="82" y="62"/>
      <point x="36" y="138"/>
      <point x="36" y="229" type="curve" smooth="yes"/>
      <point x="36" y="377"/>
      <point x="157" y="488"/>
      <point x="320" y="488" type="curve" smooth="yes"/>
      <point x="353" y="488"/>
      <point x="386" y="483"/>
      <point x="415" y="474" type="curve"/>
      <point x="466" y="567" type="line"/>
    </contour>
    <contour>
      <point x="229" y="133" type="curve"/>
      <point x="361" y="375" type="line" smooth="yes"/>
      <point x="365" y="382"/>
      <point x="368" y="385"/>
      <point x="377" y="395" type="curve" smooth="yes"/>
      <point x="381" y="399"/>
      <point x="384" y="405"/>
      <point x="384" y="410" type="curve" smooth="yes"/>
      <point x="384" y="424"/>
      <point x="360" y="436"/>
      <point x="331" y="436" type="curve" smooth="yes"/>
      <point x="256" y="436"/>
      <point x="209" y="361"/>
      <point x="209" y="241" type="curve" smooth="yes"/>
      <point x="209" y="203"/>
      <point x="215" y="170"/>
    </contour>
  </outline>
</glyph>
<glyph name="sterling" format="1">
  <advance width="574"/>
  <unicode hex="00A3"/>
  <outline>
    <contour>
      <point x="459" y="378" type="line"/>
      <point x="459" y="318" type="line"/>
      <point x="313" y="318" type="line"/>
      <point x="316" y="295"/>
      <point x="317" y="284"/>
      <point x="317" y="273" type="curve" smooth="yes"/>
      <point x="317" y="230"/>
      <point x="306" y="191"/>
      <point x="280" y="139" type="curve"/>
      <point x="319" y="125"/>
      <point x="354" y="119"/>
      <point x="392" y="119" type="curve" smooth="yes"/>
      <point x="455" y="119"/>
      <point x="490" y="143"/>
      <point x="510" y="200" type="curve"/>
      <point x="561" y="186" type="line"/>
      <point x="537" y="57"/>
      <point x="474" y="-14"/>
      <point x="384" y="-14" type="curve" smooth="yes"/>
      <point x="331" y="-14"/>
      <point x="283" y="6"/>
      <point x="231" y="50" type="curve"/>
      <point x="200" y="5"/>
      <point x="165" y="-14"/>
      <point x="117" y="-14" type="curve" smooth="yes"/>
      <point x="59" y="-14"/>
      <point x="19" y="23"/>
      <point x="19" y="77" type="curve" smooth="yes"/>
      <point x="19" y="132"/>
      <point x="65" y="174"/>
      <point x="126" y="174" type="curve" smooth="yes"/>
      <point x="148" y="174"/>
      <point x="166" y="171"/>
      <point x="196" y="161" type="curve"/>
      <point x="197" y="171"/>
      <point x="197" y="179"/>
      <point x="197" y="184" type="curve" smooth="yes"/>
      <point x="197" y="220"/>
      <point x="179" y="283"/>
      <point x="158" y="318" type="curve"/>
      <point x="34" y="318" type="line"/>
      <point x="34" y="378" type="line"/>
      <point x="136" y="378" type="line"/>
      <point x="118" y="431"/>
      <point x="112" y="462"/>
      <point x="112" y="500" type="curve" smooth="yes"/>
      <point x="112" y="620"/>
      <point x="211" y="708"/>
      <point x="345" y="708" type="curve" smooth="yes"/>
      <point x="460" y="708"/>
      <point x="543" y="641"/>
      <point x="543" y="548" type="curve" smooth="yes"/>
      <point x="543" y="491"/>
      <point x="503" y="449"/>
      <point x="448" y="449" type="curve" smooth="yes"/>
      <point x="403" y="449"/>
      <point x="369" y="482"/>
      <point x="369" y="526" type="curve" smooth="yes"/>
      <point x="369" y="554"/>
      <point x="381" y="573"/>
      <point x="409" y="588" type="curve" smooth="yes"/>
      <point x="429" y="599"/>
      <point x="433" y="603"/>
      <point x="433" y="612" type="curve" smooth="yes"/>
      <point x="433" y="636"/>
      <point x="398" y="656"/>
      <point x="357" y="656" type="curve" smooth="yes"/>
      <point x="303" y="656"/>
      <point x="265" y="619"/>
      <point x="265" y="566" type="curve" smooth="yes"/>
      <point x="265" y="528"/>
      <point x="277" y="472"/>
      <point x="304" y="378" type="curve"/>
    </contour>
    <contour>
      <point x="182" y="92" type="curve"/>
      <point x="156" y="115"/>
      <point x="140" y="122"/>
      <point x="116" y="122" type="curve" smooth="yes"/>
      <point x="88" y="122"/>
      <point x="69" y="104"/>
      <point x="69" y="79" type="curve" smooth="yes"/>
      <point x="69" y="55"/>
      <point x="88" y="38"/>
      <point x="113" y="38" type="curve" smooth="yes"/>
      <point x="146" y="38"/>
      <point x="166" y="54"/>
    </contour>
  </outline>
</glyph>
<glyph name="brokenbar" format="1">
  <advance width="606"/>
  <unicode hex="00A6"/>
  <outline>
    <contour>
      <point x="362" y="722" type="line"/>
      <point x="362" y="400" type="line"/>
      <point x="243" y="400" type="line"/>
      <point x="243" y="722" type="line"/>
    </contour>
    <contour>
      <point x="362" y="322" type="line"/>
      <point x="362" y="0" type="line"/>
      <point x="243" y="0" type="line"/>
      <point x="243" y="322" type="line"/>
    </contour>
  </outline>
</glyph>
<glyph name="logicalnot" format="1">
  <advance width="606"/>
  <unicode hex="00AC"/>
  <outline>
    <contour>
      <point x="51" y="310" type="line"/>
      <point x="555" y="310" type="line"/>
      <point x="555" y="0" type="line"/>
      <point x="440" y="0" type="line"/>
      <point x="440" y="195" type="line"/>
      <point x="51" y="195" type="line"/>
    </contour>
  </outline>
</glyph>
<glyph name="registered" format="1">
  <advance width="747"/>
  <unicode hex="00AE"/>
  <outline>
    <contour>
      <point x="330" y="340" type="line"/>
      <point x="330" y="237" type="line" smooth="yes"/>
      <point x="330" y="205"/>
      <point x="330" y="203"/>
      <point x="333" y="200" type="curve" smooth="yes"/>
      <point x="337" y="196"/>
      <point x="348" y="194"/>
      <point x="374" y="194" type="curve" smooth="yes"/>
      <point x="392" y="194" type="line"/>
      <point x="392" y="157" type="line"/>
      <point x="171" y="157" type="line"/>
      <point x="171" y="194" type="line"/>
      <point x="183" y="194" type="line" smooth="yes"/>
      <point x="209" y="194"/>
      <point x="220" y="196"/>
      <point x="224" y="200" type="curve" smooth="yes"/>
      <point x="227" y="203"/>
      <point x="227" y="203"/>
      <point x="227" y="237" type="curve" smooth="yes"/>
      <point x="227" y="467" type="line" smooth="yes"/>
      <point x="227" y="500"/>
      <point x="227" y="501"/>
      <point x="224" y="505" type="curve" smooth="yes"/>
      <point x="220" y="509"/>
      <point x="209" y="511"/>
      <point x="183" y="511" type="curve" smooth="yes"/>
      <point x="171" y="511" type="line"/>
      <point x="171" y="548" type="line"/>
      <point x="403" y="548" type="line" smooth="yes"/>
      <point x="454" y="548"/>
      <point x="488" y="542"/>
      <point x="509" y="528" type="curve" smooth="yes"/>
      <point x="537" y="510"/>
      <point x="554" y="480"/>
      <point x="554" y="447" type="curve" smooth="yes"/>
      <point x="554" y="418"/>
      <point x="541" y="392"/>
      <point x="518" y="374" type="curve" smooth="yes"/>
      <point x="503" y="363"/>
      <point x="490" y="357"/>
      <point x="459" y="350" type="curve"/>
      <point x="496" y="335"/>
      <point x="515" y="309"/>
      <point x="523" y="265" type="curve"/>
      <point x="526" y="245" type="line" smooth="yes"/>
      <point x="527" y="238"/>
      <point x="528" y="232"/>
      <point x="528" y="230" type="curve" smooth="yes"/>
      <point x="532" y="206"/>
      <point x="535" y="201"/>
      <point x="546" y="201" type="curve" smooth="yes"/>
      <point x="560" y="201"/>
      <point x="567" y="217"/>
      <point x="566" y="251" type="curve"/>
      <point x="603" y="251" type="line"/>
      <point x="603" y="239" type="line" smooth="yes"/>
      <point x="603" y="184"/>
      <point x="567" y="149"/>
      <point x="509" y="149" type="curve" smooth="yes"/>
      <point x="461" y="149"/>
      <point x="429" y="173"/>
      <point x="420" y="215" type="curve" smooth="yes"/>
      <point x="418" y="224"/>
      <point x="416" y="246"/>
      <point x="412" y="281" type="curve"/>
      <point x="409" y="329"/>
      <point x="398" y="340"/>
      <point x="356" y="340" type="curve" smooth="yes"/>
    </contour>
    <contour>
      <point x="330" y="377" type="line"/>
      <point x="355" y="377" type="line" smooth="yes"/>
      <point x="423" y="377"/>
      <point x="444" y="393"/>
      <point x="444" y="444" type="curve" smooth="yes"/>
      <point x="444" y="492"/>
      <point x="424" y="511"/>
      <point x="377" y="511" type="curve" smooth="yes"/>
      <point x="364" y="511" type="line" smooth="yes"/>
      <point x="332" y="511"/>
      <point x="330" y="509"/>
      <point x="330" y="481" type="curve" smooth="yes"/>
    </contour>
    <contour>
      <point x="373" y="721" type="curve" smooth="yes"/>
      <point x="576" y="721"/>
      <point x="741" y="556"/>
      <point x="741" y="354" type="curve" smooth="yes"/>
      <point x="741" y="148"/>
      <point x="577" y="-15"/>
      <point x="369" y="-15" type="curve" smooth="yes"/>
      <point x="170" y="-15"/>
      <point x="5" y="152"/>
      <point x="5" y="353" type="curve" smooth="yes"/>
      <point x="5" y="556"/>
      <point x="170" y="721"/>
    </contour>
    <contour>
      <point x="374" y="669" type="curve" smooth="yes"/>
      <point x="205" y="669"/>
      <point x="68" y="528"/>
      <point x="68" y="355" type="curve" smooth="yes"/>
      <point x="68" y="185"/>
      <point x="206" y="42"/>
      <point x="370" y="42" type="curve" smooth="yes"/>
      <point x="542" y="42"/>
      <point x="679" y="181"/>
      <point x="679" y="356" type="curve" smooth="yes"/>
      <point x="679" y="528"/>
      <point x="542" y="669"/>
    </contour>
  </outline>
</glyph>
<glyph name="macron" format="1">
  <advance width="333"/>
  <unicode hex="00AF"/>
  <outline>
    <contour>
      <point x="-5" y="663" type="line"/>
      <point x="339" y="663" type="line"/>
      <point x="339" y="583" type="line"/>
      <point x="-5" y="583" type="line"/>
    </contour>
  </outline>
</glyph>
<glyph name="plusminus" format="1">
  <advance width="606"/>
  <unicode hex="00B1"/>
  <outline>
    <contour>
      <point x="246" y="300" type="line"/>
      <point x="51" y="300" type="line"/>
      <point x="51" y="415" type="line"/>
      <point x="246" y="415" type="line"/>
      <point x="246" y="610" type="line"/>
      <point x="361" y="610" type="line"/>
      <point x="361" y="415" type="line"/>
      <point x="555" y="415" type="line"/>
      <point x="555" y="300" type="line"/>
      <point x="361" y="300" type="line"/>
      <point x="361" y="158" type="line"/>
      <point x="246" y="158" type="line"/>
    </contour>
    <contour>
      <point x="51" y="0" type="line"/>
      <point x="51" y="115" type="line"/>
      <point x="555" y="115" type="line"/>
      <point x="555" y="0" type="line"/>
    </contour>
  </outline>
</glyph>
<glyph name="twosuperior" format="1">
  <advance width="344"/>
  <unicode hex="00B2"/>
  <outline>
    <contour>
      <point x="5" y="281" type="curve"/>
      <point x="5" y="313" type="line"/>
      <point x="38" y="357"/>
      <point x="63" y="385"/>
      <point x="131" y="453" type="curve" smooth="yes"/>
      <point x="198" y="519"/>
      <point x="217" y="552"/>
      <point x="217" y="599" type="curve" smooth="yes"/>
      <point x="217" y="642"/>
      <point x="193" y="666"/>
      <point x="150" y="666" type="curve" smooth="yes"/>
      <point x="121" y="666"/>
      <point x="87" y="647"/>
      <point x="87" y="630" type="curve" smooth="yes"/>
      <point x="87" y="626"/>
      <point x="90" y="624"/>
      <point x="95" y="622" type="curve" smooth="yes"/>
      <point x="127" y="610"/>
      <point x="141" y="593"/>
      <point x="141" y="566" type="curve" smooth="yes"/>
      <point x="141" y="535"/>
      <point x="118" y="514"/>
      <point x="84" y="514" type="curve" smooth="yes"/>
      <point x="45" y="514"/>
      <point x="19" y="542"/>
      <point x="19" y="585" type="curve" smooth="yes"/>
      <point x="19" y="654"/>
      <point x="87" y="708"/>
      <point x="174" y="708" type="curve" smooth="yes"/>
      <point x="264" y="708"/>
      <point x="332" y="658"/>
      <point x="332" y="593" type="curve" smooth="yes"/>
      <point x="332" y="546"/>
      <point x="306" y="505"/>
      <point x="252" y="467" type="curve" smooth="yes"/>
      <point x="231" y="453"/>
      <point x="230" y="452"/>
      <point x="171" y="416" type="curve" smooth="yes"/>
      <point x="150" y="404"/>
      <point x="134" y="392"/>
      <point x="116" y="378" type="curve"/>
      <point x="231" y="378" type="line"/>
      <point x="263" y="379" type="line" smooth="yes"/>
      <point x="280" y="380"/>
      <point x="281" y="382"/>
      <point x="290" y="415" type="curve"/>
      <point x="297" y="447" type="line"/>
      <point x="338" y="447" type="line"/>
      <point x="322" y="281" type="line"/>
      <point x="302" y="282"/>
      <point x="294" y="283"/>
      <point x="281" y="283" type="curve" smooth="yes"/>
      <point x="41" y="283" type="line" smooth="yes"/>
      <point x="32" y="283"/>
      <point x="23" y="282"/>
    </contour>
  </outline>
</glyph>
<glyph name="paragraph" format="1">
  <advance width="747"/>
  <unicode hex="00B6"/>
  <outline>
    <contour>
      <point x="254" y="-3" type="curve" smooth="yes"/>
      <point x="254" y="325" type="line"/>
      <point x="246" y="324"/>
      <point x="245" y="324"/>
      <point x="245" y="324" type="curve"/>
      <point x="120" y="324"/>
      <point x="35" y="403"/>
      <point x="35" y="521" type="curve" smooth="yes"/>
      <point x="35" y="596"/>
      <point x="67" y="659"/>
      <point x="121" y="691" type="curve" smooth="yes"/>
      <point x="160" y="714"/>
      <point x="199" y="722"/>
      <point x="268" y="722" type="curve" smooth="yes"/>
      <point x="713" y="722" type="line"/>
      <point x="713" y="667" type="line"/>
      <point x="693" y="667" type="line" smooth="yes"/>
      <point x="673" y="667"/>
      <point x="647" y="663"/>
      <point x="640" y="658" type="curve" smooth="yes"/>
      <point x="631" y="652"/>
      <point x="628" y="643"/>
      <point x="628" y="620" type="curve" smooth="yes"/>
      <point x="628" y="581" type="line"/>
      <point x="628" y="-3" type="line" smooth="yes"/>
      <point x="628" y="-68"/>
      <point x="628" y="-68"/>
      <point x="635" y="-76" type="curve" smooth="yes"/>
      <point x="641" y="-83"/>
      <point x="668" y="-90"/>
      <point x="693" y="-90" type="curve" smooth="yes"/>
      <point x="713" y="-90" type="line"/>
      <point x="713" y="-144" type="line"/>
      <point x="155" y="-144" type="line"/>
      <point x="155" y="-90" type="line"/>
      <point x="179" y="-90" type="line" smooth="yes"/>
      <point x="214" y="-90"/>
      <point x="240" y="-85"/>
      <point x="248" y="-76" type="curve" smooth="yes"/>
      <point x="254" y="-68"/>
      <point x="254" y="-68"/>
    </contour>
    <contour>
      <point x="476" y="667" type="line"/>
      <point x="406" y="667" type="line"/>
      <point x="406" y="-89" type="line"/>
      <point x="476" y="-89" type="line"/>
    </contour>
  </outline>
</glyph>
<glyph name="cedilla" format="1">
  <advance width="333"/>
  <unicode hex="00B8"/>
  <outline>
    <contour>
      <point x="111" y="0" type="line"/>
      <point x="156" y="0" type="line"/>
      <point x="127" y="-61" type="line"/>
      <point x="148" y="-57"/>
      <point x="157" y="-56"/>
      <point x="168" y="-56" type="curve" smooth="yes"/>
      <point x="215" y="-56"/>
      <point x="251" y="-88"/>
      <point x="251" y="-132" type="curve" smooth="yes"/>
      <point x="251" y="-185"/>
      <point x="194" y="-222"/>
      <point x="112" y="-222" type="curve" smooth="yes"/>
      <point x="77" y="-222"/>
      <point x="48" y="-216"/>
      <point x="17" y="-203" type="curve"/>
      <point x="35" y="-158" type="line"/>
      <point x="63" y="-171"/>
      <point x="79" y="-175"/>
      <point x="98" y="-175" type="curve" smooth="yes"/>
      <point x="128" y="-175"/>
      <point x="147" y="-160"/>
      <point x="147" y="-136" type="curve" smooth="yes"/>
      <point x="147" y="-115"/>
      <point x="131" y="-102"/>
      <point x="106" y="-102" type="curve" smooth="yes"/>
      <point x="98" y="-102"/>
      <point x="92" y="-103"/>
      <point x="83" y="-108" type="curve"/>
      <point x="64" y="-98" type="line"/>
    </contour>
  </outline>
</glyph>
<glyph name="onesuperior" format="1">
  <advance width="344"/>
  <unicode hex="00B9"/>
  <outline>
    <contour>
      <point x="226" y="708" type="line"/>
      <point x="226" y="373" type="line" smooth="yes"/>
      <point x="226" y="336"/>
      <point x="226" y="334"/>
      <point x="230" y="330" type="curve" smooth="yes"/>
      <point x="234" y="325"/>
      <point x="248" y="323"/>
      <point x="280" y="323" type="curve" smooth="yes"/>
      <point x="304" y="323" type="line"/>
      <point x="304" y="284" type="line"/>
      <point x="39" y="284" type="line"/>
      <point x="39" y="323" type="line"/>
      <point x="70" y="323" type="line" smooth="yes"/>
      <point x="101" y="323"/>
      <point x="115" y="325"/>
      <point x="119" y="330" type="curve" smooth="yes"/>
      <point x="123" y="334"/>
      <point x="123" y="337"/>
      <point x="123" y="373" type="curve" smooth="yes"/>
      <point x="123" y="582" type="line" smooth="yes"/>
      <point x="123" y="627"/>
      <point x="123" y="627"/>
      <point x="70" y="628" type="curve"/>
      <point x="40" y="628" type="line"/>
      <point x="40" y="668" type="line"/>
      <point x="118" y="669"/>
      <point x="161" y="679"/>
      <point x="200" y="708" type="curve"/>
    </contour>
  </outline>
</glyph>
<glyph name="ordmasculine" format="1">
  <advance width="367"/>
  <unicode hex="00BA"/>
  <outline>
    <contour>
      <point x="181" y="737" type="curve" smooth="yes"/>
      <point x="279" y="737"/>
      <point x="357" y="669"/>
      <point x="357" y="584" type="curve" smooth="yes"/>
      <point x="357" y="499"/>
      <point x="281" y="435"/>
      <point x="179" y="435" type="curve" smooth="yes"/>
      <point x="76" y="435"/>
      <point x="1" y="498"/>
      <point x="1" y="585" type="curve" smooth="yes"/>
      <point x="1" y="672"/>
      <point x="78" y="737"/>
    </contour>
    <contour>
      <point x="180" y="705" type="curve" smooth="yes"/>
      <point x="135" y="705"/>
      <point x="111" y="664"/>
      <point x="111" y="586" type="curve" smooth="yes"/>
      <point x="111" y="508"/>
      <point x="134" y="467"/>
      <point x="178" y="467" type="curve" smooth="yes"/>
      <point x="222" y="467"/>
      <point x="247" y="509"/>
      <point x="247" y="584" type="curve" smooth="yes"/>
      <point x="247" y="664"/>
      <point x="224" y="705"/>
    </contour>
    <contour>
      <point x="16" y="293" type="line"/>
      <point x="16" y="353" type="line"/>
      <point x="342" y="353" type="line"/>
      <point x="342" y="293" type="line"/>
    </contour>
  </outline>
</glyph>
<glyph name="guillemotright" format="1">
  <advance width="500"/>
  <unicode hex="00BB"/>
  <outline>
    <contour>
      <point x="251" y="266" type="line"/>
      <point x="251" y="252" type="line"/>
      <point x="97" y="120" type="line"/>
      <point x="82" y="105"/>
      <point x="75" y="100"/>
      <point x="68" y="100" type="curve" smooth="yes"/>
      <point x="63" y="100"/>
      <point x="56" y="107"/>
      <point x="56" y="112" type="curve" smooth="yes"/>
      <point x="56" y="118"/>
      <point x="63" y="133"/>
      <point x="75" y="152" type="curve" smooth="yes"/>
      <point x="139" y="259" type="line"/>
      <point x="75" y="366" type="line" smooth="yes"/>
      <point x="63" y="385"/>
      <point x="56" y="401"/>
      <point x="56" y="407" type="curve" smooth="yes"/>
      <point x="56" y="412"/>
      <point x="63" y="419"/>
      <point x="69" y="419" type="curve" smooth="yes"/>
      <point x="75" y="419"/>
      <point x="83" y="413"/>
      <point x="97" y="399" type="curve"/>
    </contour>
    <contour>
      <point x="451" y="266" type="line"/>
      <point x="451" y="252" type="line"/>
      <point x="297" y="120" type="line"/>
      <point x="282" y="105"/>
      <point x="275" y="100"/>
      <point x="268" y="100" type="curve" smooth="yes"/>
      <point x="263" y="100"/>
      <point x="256" y="107"/>
      <point x="256" y="112" type="curve" smooth="yes"/>
      <point x="256" y="118"/>
      <point x="263" y="133"/>
      <point x="275" y="152" type="curve" smooth="yes"/>
      <point x="339" y="259" type="line"/>
      <point x="275" y="366" type="line" smooth="yes"/>
      <point x="263" y="385"/>
      <point x="256" y="401"/>
      <point x="256" y="407" type="curve" smooth="yes"/>
      <point x="256" y="412"/>
      <point x="263" y="419"/>
      <point x="269" y="419" type="curve" smooth="yes"/>
      <point x="275" y="419"/>
      <point x="283" y="413"/>
      <point x="297" y="399" type="curve"/>
    </contour>
  </outline>
</glyph>
<glyph name="onehalf" format="1">
  <advance width="861"/>
  <unicode hex="00BD"/>
  <outline>
    <contour>
      <point x="593" y="722" type="line"/>
      <point x="672" y="722" type="line"/>
      <point x="252" y="0" type="line"/>
      <point x="173" y="0" type="line"/>
    </contour>
    <contour>
      <point x="226" y="708" type="line"/>
      <point x="226" y="373" type="line" smooth="yes"/>
      <point x="226" y="336"/>
      <point x="226" y="334"/>
      <point x="230" y="330" type="curve" smooth="yes"/>
      <point x="234" y="325"/>
      <point x="248" y="323"/>
      <point x="280" y="323" type="curve" smooth="yes"/>
      <point x="304" y="323" type="line"/>
      <point x="304" y="284" type="line"/>
      <point x="39" y="284" type="line"/>
      <point x="39" y="323" type="line"/>
      <point x="70" y="323" type="line" smooth="yes"/>
      <point x="101" y="323"/>
      <point x="115" y="325"/>
      <point x="119" y="330" type="curve" smooth="yes"/>
      <point x="123" y="334"/>
      <point x="123" y="337"/>
      <point x="123" y="373" type="curve" smooth="yes"/>
      <point x="123" y="582" type="line" smooth="yes"/>
      <point x="123" y="627"/>
      <point x="123" y="627"/>
      <point x="70" y="628" type="curve"/>
      <point x="40" y="628" type="line"/>
      <point x="40" y="668" type="line"/>
      <point x="118" y="669"/>
      <point x="161" y="679"/>
      <point x="200" y="708" type="curve"/>
    </contour>
    <contour>
      <point x="499" y="-2" type="curve"/>
      <point x="499" y="30" type="line"/>
      <point x="532" y="74"/>
      <point x="558" y="102"/>
      <point x="625" y="170" type="curve"/>
      <point x="692" y="236"/>
      <point x="711" y="269"/>
      <point x="711" y="317" type="curve" smooth="yes"/>
      <point x="711" y="359"/>
      <point x="687" y="383"/>
      <point x="644" y="383" type="curve" smooth="yes"/>
      <point x="615" y="383"/>
      <point x="581" y="364"/>
      <point x="581" y="347" type="curve" smooth="yes"/>
      <point x="581" y="343"/>
      <point x="584" y="341"/>
      <point x="589" y="339" type="curve" smooth="yes"/>
      <point x="621" y="327"/>
      <point x="635" y="310"/>
      <point x="635" y="283" type="curve" smooth="yes"/>
      <point x="635" y="252"/>
      <point x="612" y="231"/>
      <point x="578" y="231" type="curve" smooth="yes"/>
      <point x="539" y="231"/>
      <point x="513" y="259"/>
      <point x="513" y="302" type="curve" smooth="yes"/>
      <point x="513" y="371"/>
      <point x="581" y="425"/>
      <point x="668" y="425" type="curve" smooth="yes"/>
      <point x="758" y="425"/>
      <point x="826" y="375"/>
      <point x="826" y="310" type="curve" smooth="yes"/>
      <point x="826" y="263"/>
      <point x="800" y="222"/>
      <point x="746" y="184" type="curve" smooth="yes"/>
      <point x="725" y="170"/>
      <point x="724" y="169"/>
      <point x="665" y="133" type="curve" smooth="yes"/>
      <point x="645" y="121"/>
      <point x="628" y="109"/>
      <point x="610" y="95" type="curve"/>
      <point x="725" y="95" type="line"/>
      <point x="757" y="96" type="line" smooth="yes"/>
      <point x="774" y="97"/>
      <point x="775" y="99"/>
      <point x="784" y="132" type="curve"/>
      <point x="791" y="164" type="line"/>
      <point x="832" y="164" type="line"/>
      <point x="816" y="-2" type="line"/>
      <point x="796" y="-1"/>
      <point x="788" y="0"/>
      <point x="775" y="0" type="curve" smooth="yes"/>
      <point x="535" y="0" type="line" smooth="yes"/>
      <point x="526" y="0"/>
      <point x="517" y="-1"/>
    </contour>
  </outline>
</glyph>
<glyph name="Atilde" format="1">
  <advance width="759"/>
  <unicode hex="00C3"/>
  <outline>
    <contour>
      <point x="351" y="737" type="line"/>
      <point x="427" y="737" type="line"/>
      <point x="684" y="117" type="line" smooth="yes"/>
      <point x="705" y="66"/>
      <point x="721" y="56"/>
      <point x="778" y="54" type="curve"/>
      <point x="778" y="0" type="line"/>
      <point x="427" y="0" type="line"/>
      <point x="427" y="54" type="line"/>
      <point x="444" y="55" type="line"/>
      <point x="489" y="55"/>
      <point x="502" y="61"/>
      <point x="502" y="79" type="curve" smooth="yes"/>
      <point x="502" y="87"/>
      <point x="498" y="102"/>
      <point x="490" y="120" type="curve" smooth="yes"/>
      <point x="452" y="218" type="line"/>
      <point x="203" y="218" type="line"/>
      <point x="187" y="180" type="line" smooth="yes"/>
      <point x="174" y="151"/>
      <point x="171" y="140"/>
      <point x="171" y="123" type="curve" smooth="yes"/>
      <point x="171" y="77"/>
      <point x="199" y="58"/>
      <point x="271" y="54" type="curve"/>
      <point x="271" y="0" type="line"/>
      <point x="-18" y="0" type="line"/>
      <point x="-18" y="54" type="line"/>
      <point x="41" y="60"/>
      <point x="78" y="99"/>
      <point x="124" y="207" type="curve" smooth="yes"/>
    </contour>
    <contour>
      <point x="330" y="524" type="line"/>
      <point x="229" y="285" type="line"/>
      <point x="427" y="285" type="line"/>
    </contour>
    <contour>
      <point x="535" y="932" type="curve"/>
      <point x="584" y="932" type="line"/>
      <point x="580" y="898"/>
      <point x="571" y="874"/>
      <point x="550" y="847" type="curve" smooth="yes"/>
      <point x="523" y="811"/>
      <point x="497" y="797"/>
      <point x="458" y="797" type="curve" smooth="yes"/>
      <point x="425" y="797"/>
      <point x="410" y="802"/>
      <point x="357" y="830" type="curve" smooth="yes"/>
      <point x="334" y="843"/>
      <point x="310" y="851"/>
      <point x="297" y="851" type="curve" smooth="yes"/>
      <point x="278" y="851"/>
      <point x="262" y="833"/>
      <point x="253" y="801" type="curve"/>
      <point x="203" y="801" type="line"/>
      <point x="215" y="880"/>
      <point x="265" y="936"/>
      <point x="322" y="936" type="curve" smooth="yes"/>
      <point x="349" y="936"/>
      <point x="366" y="931"/>
      <point x="418" y="906" type="curve" smooth="yes"/>
      <point x="452" y="890"/>
      <point x="474" y="882"/>
      <point x="489" y="882" type="curve" smooth="yes"/>
      <point x="510" y="882"/>
      <point x="521" y="894"/>
    </contour>
  </outline>
</glyph>
<glyph name="Adieresis" format="1">
  <advance width="759"/>
  <unicode hex="00C4"/>
  <outline>
    <contour>
      <point x="351" y="737" type="line"/>
      <point x="427" y="737" type="line"/>
      <point x="684" y="117" type="line" smooth="yes"/>
      <point x="705" y="66"/>
      <point x="721" y="56"/>
      <point x="778" y="54" type="curve"/>
      <point x="778" y="0" type="line"/>
      <point x="427" y="0" type="line"/>
      <point x="427" y="54" type="line"/>
      <point x="444" y="55" type="line"/>
      <point x="489" y="55"/>
      <point x="502" y="61"/>
      <point x="502" y="79" type="curve" smooth="yes"/>
      <point x="502" y="87"/>
      <point x="498" y="102"/>
      <point x="490" y="120" type="curve" smooth="yes"/>
      <point x="452" y="218" type="line"/>
      <point x="203" y="218" type="line"/>
      <point x="187" y="180" type="line" smooth="yes"/>
      <point x="174" y="151"/>
      <point x="171" y="140"/>
      <point x="171" y="123" type="curve" smooth="yes"/>
      <point x="171" y="77"/>
      <point x="199" y="58"/>
      <point x="271" y="54" type="curve"/>
      <point x="271" y="0" type="line"/>
      <point x="-18" y="0" type="line"/>
      <point x="-18" y="54" type="line"/>
      <point x="41" y="60"/>
      <point x="78" y="99"/>
      <point x="124" y="207" type="curve" smooth="yes"/>
    </contour>
    <contour>
      <point x="330" y="524" type="line"/>
      <point x="229" y="285" type="line"/>
      <point x="427" y="285" type="line"/>
    </contour>
    <contour>
      <point x="280" y="938" type="curve" smooth="yes"/>
      <point x="318" y="938"/>
      <point x="350" y="906"/>
      <point x="350" y="868" type="curve" smooth="yes"/>
      <point x="350" y="828"/>
      <point x="318" y="797"/>
      <point x="279" y="797" type="curve" smooth="yes"/>
      <point x="241" y="797"/>
      <point x="209" y="829"/>
      <point x="209" y="868" type="curve" smooth="yes"/>
      <point x="209" y="906"/>
      <point x="241" y="938"/>
    </contour>
    <contour>
      <point x="495" y="938" type="curve" smooth="yes"/>
      <point x="533" y="938"/>
      <point x="565" y="906"/>
      <point x="565" y="868" type="curve" smooth="yes"/>
      <point x="565" y="828"/>
      <point x="533" y="797"/>
      <point x="494" y="797" type="curve" smooth="yes"/>
      <point x="456" y="797"/>
      <point x="424" y="829"/>
      <point x="424" y="868" type="curve" smooth="yes"/>
      <point x="424" y="906"/>
      <point x="456" y="938"/>
    </contour>
  </outline>
</glyph>
<glyph name="Eacute" format="1">
  <advance width="759"/>
  <unicode hex="00C9"/>
  <outline>
    <contour>
      <point x="687" y="722" type="line"/>
      <point x="693" y="462" type="line"/>
      <point x="641" y="462" type="line"/>
      <point x="626" y="514"/>
      <point x="604" y="564"/>
      <point x="583" y="594" type="curve" smooth="yes"/>
      <point x="549" y="641"/>
      <point x="488" y="668"/>
      <point x="414" y="668" type="curve" smooth="yes"/>
      <point x="386" y="668" type="line" smooth="yes"/>
      <point x="345" y="668"/>
      <point x="321" y="661"/>
      <point x="310" y="646" type="curve" smooth="yes"/>
      <point x="302" y="634"/>
      <point x="300" y="623"/>
      <point x="300" y="582" type="curve" smooth="yes"/>
      <point x="300" y="401" type="line"/>
      <point x="317" y="401" type="line" smooth="yes"/>
      <point x="395" y="401"/>
      <point x="444" y="451"/>
      <point x="455" y="543" type="curve"/>
      <point x="509" y="543" type="line"/>
      <point x="509" y="204" type="line"/>
      <point x="455" y="204" type="line"/>
      <point x="444" y="296"/>
      <point x="395" y="346"/>
      <point x="317" y="346" type="curve" smooth="yes"/>
      <point x="300" y="346" type="line"/>
      <point x="300" y="124" type="line" smooth="yes"/>
      <point x="300" y="91"/>
      <point x="303" y="80"/>
      <point x="316" y="68" type="curve" smooth="yes"/>
      <point x="328" y="56"/>
      <point x="341" y="54"/>
      <point x="390" y="54" type="curve" smooth="yes"/>
      <point x="420" y="54" type="line" smooth="yes"/>
      <point x="541" y="54"/>
      <point x="612" y="119"/>
      <point x="654" y="269" type="curve"/>
      <point x="707" y="269" type="line"/>
      <point x="695" y="0" type="line"/>
      <point x="16" y="0" type="line"/>
      <point x="16" y="54" type="line"/>
      <point x="31" y="54" type="line" smooth="yes"/>
      <point x="83" y="54"/>
      <point x="104" y="58"/>
      <point x="113" y="69" type="curve" smooth="yes"/>
      <point x="120" y="77"/>
      <point x="120" y="81"/>
      <point x="120" y="144" type="curve" smooth="yes"/>
      <point x="120" y="578" type="line" smooth="yes"/>
      <point x="120" y="641"/>
      <point x="120" y="645"/>
      <point x="113" y="653" type="curve" smooth="yes"/>
      <point x="104" y="664"/>
      <point x="83" y="668"/>
      <point x="31" y="668" type="curve" smooth="yes"/>
      <point x="16" y="668" type="line"/>
      <point x="16" y="722" type="line"/>
    </contour>
    <contour>
      <point x="317" y="790" type="line"/>
      <point x="430" y="928" type="line" smooth="yes"/>
      <point x="465" y="971"/>
      <point x="477" y="979"/>
      <point x="507" y="979" type="curve" smooth="yes"/>
      <point x="539" y="979"/>
      <point x="564" y="957"/>
      <point x="564" y="929" type="curve" smooth="yes"/>
      <point x="564" y="908"/>
      <point x="552" y="891"/>
      <point x="528" y="877" type="curve" smooth="yes"/>
      <point x="381" y="790" type="line"/>
    </contour>
  </outline>
</glyph>
<glyph name="Ograve" format="1">
  <advance width="833"/>
  <unicode hex="00D2"/>
  <outline>
    <contour>
      <point x="417" y="737" type="curve" smooth="yes"/>
      <point x="515" y="737"/>
      <point x="593" y="710"/>
      <point x="660" y="652" type="curve" smooth="yes"/>
      <point x="743" y="581"/>
      <point x="794" y="467"/>
      <point x="794" y="351" type="curve" smooth="yes"/>
      <point x="794" y="234"/>
      <point x="746" y="132"/>
      <point x="660" y="63" type="curve" smooth="yes"/>
      <point x="593" y="10"/>
      <point x="514" y="-15"/>
      <point x="412" y="-15" type="curve" smooth="yes"/>
      <point x="195" y="-15"/>
      <point x="39" y="138"/>
      <point x="39" y="350" type="curve" smooth="yes"/>
      <point x="39" y="467"/>
      <point x="89" y="580"/>
      <point x="173" y="652" type="curve" smooth="yes"/>
      <point x="238" y="709"/>
      <point x="320" y="737"/>
    </contour>
    <contour>
      <point x="418" y="685" type="curve" smooth="yes"/>
      <point x="359" y="685"/>
      <point x="319" y="663"/>
      <point x="290" y="614" type="curve" smooth="yes"/>
      <point x="256" y="557"/>
      <point x="239" y="477"/>
      <point x="239" y="369" type="curve" smooth="yes"/>
      <point x="239" y="264"/>
      <point x="257" y="176"/>
      <point x="290" y="114" type="curve" smooth="yes"/>
      <point x="318" y="62"/>
      <point x="360" y="37"/>
      <point x="418" y="37" type="curve" smooth="yes"/>
      <point x="532" y="37"/>
      <point x="594" y="147"/>
      <point x="594" y="350" type="curve" smooth="yes"/>
      <point x="594" y="458"/>
      <point x="576" y="548"/>
      <point x="543" y="608" type="curve" smooth="yes"/>
      <point x="514" y="659"/>
      <point x="472" y="685"/>
    </contour>
    <contour>
      <point x="499" y="790" type="line"/>
      <point x="435" y="790" type="line"/>
      <point x="288" y="877" type="line" smooth="yes"/>
      <point x="264" y="891"/>
      <point x="252" y="909"/>
      <point x="252" y="929" type="curve" smooth="yes"/>
      <point x="252" y="957"/>
      <point x="277" y="979"/>
      <point x="309" y="979" type="curve" smooth="yes"/>
      <point x="326" y="979"/>
      <point x="342" y="973"/>
      <point x="357" y="961" type="curve" smooth="yes"/>
      <point x="363" y="957"/>
      <point x="363" y="957"/>
      <point x="386" y="928" type="curve" smooth="yes"/>
    </contour>
  </outline>
</glyph>
<glyph name="Oslash" format="1">
  <advance width="833"/>
  <unicode hex="00D8"/>
  <outline>
    <contour>
      <point x="613" y="688" type="curve"/>
      <point x="666" y="762" type="line"/>
      <point x="731" y="762" type="line"/>
      <point x="656" y="657" type="line"/>
      <point x="741" y="587"/>
      <point x="793" y="476"/>
      <point x="793" y="365" type="curve" smooth="yes"/>
      <point x="793" y="266"/>
      <point x="749" y="160"/>
      <point x="679" y="90" type="curve" smooth="yes"/>
      <point x="610" y="20"/>
      <point x="521" y="-15"/>
      <point x="413" y="-15" type="curve" smooth="yes"/>
      <point x="336" y="-15"/>
      <point x="272" y="2"/>
      <point x="213" y="39" type="curve"/>
      <point x="156" y="-40" type="line"/>
      <point x="91" y="-40" type="line"/>
      <point x="170" y="71" type="line"/>
      <point x="85" y="146"/>
      <point x="39" y="249"/>
      <point x="39" y="363" type="curve" smooth="yes"/>
      <point x="39" y="577"/>
      <point x="204" y="738"/>
      <point x="421" y="738" type="curve" smooth="yes"/>
      <point x="493" y="738"/>
      <point x="556" y="721"/>
    </contour>
    <contour>
      <point x="258" y="193" type="curve"/>
      <point x="549" y="599" type="line"/>
      <point x="518" y="660"/>
      <point x="478" y="686"/>
      <point x="417" y="686" type="curve" smooth="yes"/>
      <point x="300" y="686"/>
      <point x="239" y="578"/>
      <point x="239" y="372" type="curve" smooth="yes"/>
      <point x="239" y="302"/>
      <point x="245" y="245"/>
    </contour>
    <contour>
      <point x="573" y="541" type="curve"/>
      <point x="279" y="132" type="line"/>
      <point x="308" y="66"/>
      <point x="351" y="37"/>
      <point x="420" y="37" type="curve" smooth="yes"/>
      <point x="480" y="37"/>
      <point x="528" y="66"/>
      <point x="550" y="116" type="curve" smooth="yes"/>
      <point x="577" y="177"/>
      <point x="593" y="272"/>
      <point x="593" y="373" type="curve" smooth="yes"/>
      <point x="593" y="436"/>
      <point x="586" y="495"/>
    </contour>
  </outline>
</glyph>
<glyph name="Yacute" format="1">
  <advance width="722"/>
  <unicode hex="00DD"/>
  <outline>
    <contour>
      <point x="420" y="396" type="line"/>
      <point x="520" y="574" type="line" smooth="yes"/>
      <point x="528" y="590"/>
      <point x="534" y="608"/>
      <point x="534" y="620" type="curve" smooth="yes"/>
      <point x="534" y="649"/>
      <point x="505" y="668"/>
      <point x="461" y="668" type="curve" smooth="yes"/>
      <point x="440" y="668" type="line"/>
      <point x="440" y="722" type="line"/>
      <point x="735" y="722" type="line"/>
      <point x="735" y="668" type="line"/>
      <point x="679" y="664"/>
      <point x="639" y="637"/>
      <point x="601" y="575" type="curve"/>
      <point x="451" y="318" type="line"/>
      <point x="451" y="144" type="line" smooth="yes"/>
      <point x="451" y="81"/>
      <point x="451" y="77"/>
      <point x="458" y="69" type="curve" smooth="yes"/>
      <point x="467" y="58"/>
      <point x="488" y="54"/>
      <point x="541" y="54" type="curve" smooth="yes"/>
      <point x="563" y="54" type="line"/>
      <point x="563" y="0" type="line"/>
      <point x="159" y="0" type="line"/>
      <point x="159" y="54" type="line"/>
      <point x="181" y="54" type="line" smooth="yes"/>
      <point x="234" y="54"/>
      <point x="255" y="58"/>
      <point x="264" y="69" type="curve" smooth="yes"/>
      <point x="271" y="77"/>
      <point x="271" y="82"/>
      <point x="271" y="144" type="curve" smooth="yes"/>
      <point x="271" y="305" type="line"/>
      <point x="67" y="632" type="line" smooth="yes"/>
      <point x="48" y="661"/>
      <point x="33" y="668"/>
      <point x="-12" y="668" type="curve"/>
      <point x="-12" y="722" type="line"/>
      <point x="348" y="722" type="line"/>
      <point x="348" y="668" type="line"/>
      <point x="332" y="668" type="line" smooth="yes"/>
      <point x="294" y="668"/>
      <point x="276" y="661"/>
      <point x="276" y="646" type="curve" smooth="yes"/>
      <point x="276" y="637"/>
      <point x="278" y="631"/>
      <point x="288" y="615" type="curve" smooth="yes"/>
    </contour>
    <contour>
      <point x="307" y="790" type="line"/>
      <point x="420" y="928" type="line" smooth="yes"/>
      <point x="455" y="971"/>
      <point x="467" y="979"/>
      <point x="497" y="979" type="curve" smooth="yes"/>
      <point x="529" y="979"/>
      <point x="554" y="957"/>
      <point x="554" y="929" type="curve" smooth="yes"/>
      <point x="554" y="908"/>
      <point x="542" y="891"/>
      <point x="518" y="877" type="curve" smooth="yes"/>
      <point x="371" y="790" type="line"/>
    </contour>
  </outline>
</glyph>
<glyph name="germandbls" format="1">
  <advance width="611"/>
  <unicode hex="00DF"/>
  <outline>
    <contour>
      <point x="85" y="144" type="line"/>
      <point x="85" y="497" type="line" smooth="yes"/>
      <point x="85" y="665"/>
      <point x="153" y="737"/>
      <point x="313" y="737" type="curve" smooth="yes"/>
      <point x="382" y="737"/>
      <point x="436" y="724"/>
      <point x="474" y="698" type="curve" smooth="yes"/>
      <point x="513" y="671"/>
      <point x="537" y="623"/>
      <point x="537" y="574" type="curve" smooth="yes"/>
      <point x="537" y="501"/>
      <point x="493" y="446"/>
      <point x="415" y="422" type="curve"/>
      <point x="515" y="399"/>
      <point x="575" y="321"/>
      <point x="575" y="215" type="curve" smooth="yes"/>
      <point x="575" y="83"/>
      <point x="486" y="-15"/>
      <point x="367" y="-15" type="curve" smooth="yes"/>
      <point x="339" y="-15"/>
      <point x="321" y="-11"/>
      <point x="293" y="0" type="curve"/>
      <point x="293" y="63" type="line"/>
      <point x="313" y="46"/>
      <point x="335" y="37"/>
      <point x="354" y="37" type="curve" smooth="yes"/>
      <point x="372" y="37"/>
      <point x="387" y="50"/>
      <point x="396" y="72" type="curve" smooth="yes"/>
      <point x="406" y="96"/>
      <point x="414" y="163"/>
      <point x="414" y="218" type="curve" smooth="yes"/>
      <point x="414" y="286"/>
      <point x="403" y="348"/>
      <point x="386" y="371" type="curve" smooth="yes"/>
      <point x="379" y="382"/>
      <point x="357" y="392"/>
      <point x="342" y="392" type="curve" smooth="yes"/>
      <point x="316" y="391" type="line"/>
      <point x="295" y="395"/>
      <point x="290" y="399"/>
      <point x="290" y="413" type="curve" smooth="yes"/>
      <point x="290" y="422"/>
      <point x="294" y="429"/>
      <point x="301" y="435" type="curve" smooth="yes"/>
      <point x="304" y="437"/>
      <point x="310" y="440"/>
      <point x="311" y="440" type="curve" smooth="yes"/>
      <point x="338" y="437" type="line"/>
      <point x="360" y="441"/>
      <point x="363" y="442"/>
      <point x="370" y="451" type="curve" smooth="yes"/>
      <point x="383" y="469"/>
      <point x="391" y="507"/>
      <point x="391" y="560" type="curve" smooth="yes"/>
      <point x="391" y="647"/>
      <point x="367" y="686"/>
      <point x="313" y="686" type="curve" smooth="yes"/>
      <point x="258" y="686"/>
      <point x="242" y="653"/>
      <point x="242" y="541" type="curve" smooth="yes"/>
      <point x="242" y="0" type="line"/>
      <point x="6" y="0" type="line"/>
      <point x="6" y="51" type="line"/>
      <point x="10" y="51" type="line" smooth="yes"/>
      <point x="74" y="51"/>
      <point x="85" y="57"/>
      <point x="85" y="98" type="curve" smooth="yes"/>
    </contour>
  </outline>
</glyph>
<glyph name="ccedilla" format="1">
  <advance width="556"/>
  <unicode hex="00E7"/>
  <outline>
    <contour>
      <point x="305" y="-15" type="curve"/>
      <point x="283" y="-61" type="line"/>
      <point x="304" y="-57"/>
      <point x="313" y="-56"/>
      <point x="324" y="-56" type="curve" smooth="yes"/>
      <point x="372" y="-56"/>
      <point x="407" y="-88"/>
      <point x="407" y="-132" type="curve" smooth="yes"/>
      <point x="407" y="-185"/>
      <point x="350" y="-222"/>
      <point x="268" y="-222" type="curve" smooth="yes"/>
      <point x="233" y="-222"/>
      <point x="204" y="-216"/>
      <point x="173" y="-203" type="curve"/>
      <point x="191" y="-158" type="line"/>
      <point x="219" y="-171"/>
      <point x="235" y="-175"/>
      <point x="254" y="-175" type="curve" smooth="yes"/>
      <point x="284" y="-175"/>
      <point x="303" y="-160"/>
      <point x="303" y="-136" type="curve" smooth="yes"/>
      <point x="303" y="-115"/>
      <point x="287" y="-102"/>
      <point x="262" y="-102" type="curve" smooth="yes"/>
      <point x="254" y="-102"/>
      <point x="248" y="-103"/>
      <point x="239" y="-108" type="curve"/>
      <point x="220" y="-98" type="line"/>
      <point x="261" y="-13" type="line"/>
      <point x="118" y="4"/>
      <point x="31" y="95"/>
      <point x="31" y="229" type="curve" smooth="yes"/>
      <point x="31" y="380"/>
      <point x="150" y="488"/>
      <point x="317" y="488" type="curve" smooth="yes"/>
      <point x="438" y="488"/>
      <point x="516" y="434"/>
      <point x="516" y="352" type="curve" smooth="yes"/>
      <point x="516" y="301"/>
      <point x="481" y="267"/>
      <point x="426" y="267" type="curve" smooth="yes"/>
      <point x="378" y="267"/>
      <point x="344" y="297"/>
      <point x="344" y="340" type="curve" smooth="yes"/>
      <point x="344" y="359"/>
      <point x="348" y="368"/>
      <point x="365" y="389" type="curve" smooth="yes"/>
      <point x="374" y="400"/>
      <point x="376" y="405"/>
      <point x="376" y="408" type="curve" smooth="yes"/>
      <point x="376" y="424"/>
      <point x="352" y="436"/>
      <point x="323" y="436" type="curve" smooth="yes"/>
      <point x="248" y="436"/>
      <point x="204" y="367"/>
      <point x="204" y="248" type="curve" smooth="yes"/>
      <point x="204" y="125"/>
      <point x="251" y="55"/>
      <point x="333" y="55" type="curve" smooth="yes"/>
      <point x="373" y="55"/>
      <point x="413" y="74"/>
      <point x="437" y="106" type="curve" smooth="yes"/>
      <point x="452" y="125"/>
      <point x="461" y="141"/>
      <point x="475" y="177" type="curve"/>
      <point x="527" y="160" type="line"/>
      <point x="491" y="46"/>
      <point x="411" y="-17"/>
    </contour>
  </outline>
</glyph>
<glyph name="igrave" format="1">
  <advance width="370"/>
  <unicode hex="00EC"/>
  <outline>
    <contour>
      <point x="263" y="473" type="line"/>
      <point x="263" y="144" type="line"/>
      <point x="263" y="97" type="line" smooth="yes"/>
      <point x="263" y="58"/>
      <point x="274" y="51"/>
      <point x="335" y="51" type="curve" smooth="yes"/>
      <point x="341" y="51" type="line"/>
      <point x="341" y="0" type="line"/>
      <point x="28" y="0" type="line"/>
      <point x="28" y="51" type="line"/>
      <point x="32" y="51" type="line" smooth="yes"/>
      <point x="95" y="51"/>
      <point x="106" y="58"/>
      <point x="106" y="98" type="curve" smooth="yes"/>
      <point x="106" y="144" type="line"/>
      <point x="106" y="321" type="line" smooth="yes"/>
      <point x="106" y="410"/>
      <point x="103" y="415"/>
      <point x="42" y="415" type="curve" smooth="yes"/>
      <point x="28" y="415" type="line"/>
      <point x="28" y="466" type="line"/>
    </contour>
    <contour>
      <point x="268" y="545" type="line"/>
      <point x="204" y="545" type="line"/>
      <point x="57" y="632" type="line" smooth="yes"/>
      <point x="33" y="646"/>
      <point x="21" y="664"/>
      <point x="21" y="684" type="curve" smooth="yes"/>
      <point x="21" y="712"/>
      <point x="46" y="734"/>
      <point x="78" y="734" type="curve" smooth="yes"/>
      <point x="95" y="734"/>
      <point x="111" y="728"/>
      <point x="126" y="716" type="curve" smooth="yes"/>
      <point x="132" y="712"/>
      <point x="132" y="712"/>
      <point x="155" y="683" type="curve" smooth="yes"/>
    </contour>
  </outline>
</glyph>
<glyph name="icircumflex" format="1">
  <advance width="370"/>
  <unicode hex="00EE"/>
  <outline>
    <contour>
      <point x="263" y="473" type="line"/>
      <point x="263" y="144" type="line"/>
      <point x="263" y="97" type="line" smooth="yes"/>
      <point x="263" y="58"/>
      <point x="274" y="51"/>
      <point x="335" y="51" type="curve" smooth="yes"/>
      <point x="341" y="51" type="line"/>
      <point x="341" y="0" type="line"/>
      <point x="28" y="0" type="line"/>
      <point x="28" y="51" type="line"/>
      <point x="32" y="51" type="line" smooth="yes"/>
      <point x="95" y="51"/>
      <point x="106" y="58"/>
      <point x="106" y="98" type="curve" smooth="yes"/>
      <point x="106" y="144" type="line"/>
      <point x="106" y="321" type="line" smooth="yes"/>
      <point x="106" y="410"/>
      <point x="103" y="415"/>
      <point x="42" y="415" type="curve" smooth="yes"/>
      <point x="28" y="415" type="line"/>
      <point x="28" y="466" type="line"/>
    </contour>
    <contour>
      <point x="11" y="544" type="line"/>
      <point x="132" y="722" type="line"/>
      <point x="241" y="722" type="line"/>
      <point x="362" y="544" type="line"/>
      <point x="295" y="544" type="line"/>
      <point x="187" y="637" type="line"/>
      <point x="78" y="544" type="line"/>
    </contour>
  </outline>
</glyph>
<glyph name="ograve" format="1">
  <advance width="611"/>
  <unicode hex="00F2"/>
  <outline>
    <contour>
      <point x="308" y="488" type="curve" smooth="yes"/>
      <point x="460" y="488"/>
      <point x="579" y="376"/>
      <point x="579" y="234" type="curve" smooth="yes"/>
      <point x="579" y="91"/>
      <point x="462" y="-15"/>
      <point x="304" y="-15" type="curve" smooth="yes"/>
      <point x="146" y="-15"/>
      <point x="31" y="91"/>
      <point x="31" y="236" type="curve" smooth="yes"/>
      <point x="31" y="380"/>
      <point x="149" y="488"/>
    </contour>
    <contour>
      <point x="306" y="436" type="curve" smooth="yes"/>
      <point x="239" y="436"/>
      <point x="204" y="368"/>
      <point x="204" y="236" type="curve" smooth="yes"/>
      <point x="204" y="104"/>
      <point x="238" y="37"/>
      <point x="305" y="37" type="curve" smooth="yes"/>
      <point x="369" y="37"/>
      <point x="406" y="108"/>
      <point x="406" y="235" type="curve" smooth="yes"/>
      <point x="406" y="287"/>
      <point x="398" y="344"/>
      <point x="386" y="377" type="curve" smooth="yes"/>
      <point x="373" y="412"/>
      <point x="341" y="436"/>
    </contour>
    <contour>
      <point x="387" y="545" type="line"/>
      <point x="323" y="545" type="line"/>
      <point x="176" y="632" type="line" smooth="yes"/>
      <point x="152" y="646"/>
      <point x="140" y="664"/>
      <point x="140" y="684" type="curve" smooth="yes"/>
      <point x="140" y="712"/>
      <point x="165" y="734"/>
      <point x="197" y="734" type="curve" smooth="yes"/>
      <point x="214" y="734"/>
      <point x="230" y="728"/>
      <point x="245" y="716" type="curve" smooth="yes"/>
      <point x="251" y="712"/>
      <point x="251" y="712"/>
      <point x="274" y="683" type="curve" smooth="yes"/>
    </contour>
  </outline>
</glyph>
<glyph name="oacute" format="1">
  <advance width="611"/>
  <unicode hex="00F3"/>
  <outline>
    <contour>
      <point x="308" y="488" type="curve" smooth="yes"/>
      <point x="460" y="488"/>
      <point x="579" y="376"/>
      <point x="579" y="234" type="curve" smooth="yes"/>
      <point x="579" y="91"/>
      <point x="462" y="-15"/>
      <point x="304" y="-15" type="curve" smooth="yes"/>
      <point x="146" y="-15"/>
      <point x="31" y="91"/>
      <point x="31" y="236" type="curve" smooth="yes"/>
      <point x="31" y="380"/>
      <point x="149" y="488"/>
    </contour>
    <contour>
      <point x="306" y="436" type="curve" smooth="yes"/>
      <point x="239" y="436"/>
      <point x="204" y="368"/>
      <point x="204" y="236" type="curve" smooth="yes"/>
      <point x="204" y="104"/>
      <point x="238" y="37"/>
      <point x="305" y="37" type="curve" smooth="yes"/>
      <point x="369" y="37"/>
      <point x="406" y="108"/>
      <point x="406" y="235" type="curve" smooth="yes"/>
      <point x="406" y="287"/>
      <point x="398" y="344"/>
      <point x="386" y="377" type="curve" smooth="yes"/>
      <point x="373" y="412"/>
      <point x="341" y="436"/>
    </contour>
    <contour>
      <point x="240" y="545" type="line"/>
      <point x="353" y="683" type="line" smooth="yes"/>
      <point x="388" y="726"/>
      <point x="400" y="734"/>
      <point x="430" y="734" type="curve" smooth="yes"/>
      <point x="462" y="734"/>
      <point x="487" y="712"/>
      <point x="487" y="684" type="curve" smooth="yes"/>
      <point x="487" y="663"/>
      <point x="475" y="646"/>
      <point x="451" y="632" type="curve" smooth="yes"/>
      <point x="304" y="545" type="line"/>
    </contour>
  </outline>
</glyph>
<glyph name="divide" format="1">
  <advance width="606"/>
  <unicode hex="00F7"/>
  <outline>
    <contour>
      <point x="305" y="136" type="curve" smooth="yes"/>
      <point x="349" y="136"/>
      <point x="387" y="98"/>
      <point x="387" y="53" type="curve" smooth="yes"/>
      <point x="387" y="7"/>
      <point x="349" y="-31"/>
      <point x="304" y="-31" type="curve" smooth="yes"/>
      <point x="257" y="-31"/>
      <point x="220" y="7"/>
      <point x="220" y="53" type="curve" smooth="yes"/>
      <point x="220" y="99"/>
      <point x="258" y="136"/>
    </contour>
    <contour>
      <point x="305" y="536" type="curve" smooth="yes"/>
      <point x="349" y="536"/>
      <point x="387" y="498"/>
      <point x="387" y="453" type="curve" smooth="yes"/>
      <point x="387" y="407"/>
      <point x="349" y="369"/>
      <point x="304" y="369" type="curve" smooth="yes"/>
      <point x="257" y="369"/>
      <point x="220" y="407"/>
      <point x="220" y="453" type="curve" smooth="yes"/>
      <point x="220" y="499"/>
      <point x="258" y="536"/>
    </contour>
    <contour>
      <point x="51" y="195" type="line"/>
      <point x="51" y="310" type="line"/>
      <point x="555" y="310" type="line"/>
      <point x="555" y="195" type="line"/>
    </contour>
  </outline>
</glyph>
<glyph name="oslash" format="1">
  <advance width="611"/>
  <unicode hex="00F8"/>
  <outline>
    <contour>
      <point x="411" y="469" type="curve"/>
      <point x="465" y="563" type="line"/>
      <point x="523" y="563" type="line"/>
      <point x="456" y="447" type="line"/>
      <point x="538" y="394"/>
      <point x="579" y="323"/>
      <point x="579" y="234" type="curve" smooth="yes"/>
      <point x="579" y="91"/>
      <point x="462" y="-15"/>
      <point x="305" y="-15" type="curve" smooth="yes"/>
      <point x="266" y="-15"/>
      <point x="232" y="-9"/>
      <point x="198" y="3" type="curve"/>
      <point x="144" y="-90" type="line"/>
      <point x="86" y="-90" type="line"/>
      <point x="152" y="24" type="line"/>
      <point x="77" y="66"/>
      <point x="31" y="147"/>
      <point x="31" y="236" type="curve" smooth="yes"/>
      <point x="31" y="378"/>
      <point x="150" y="488"/>
      <point x="302" y="488" type="curve" smooth="yes"/>
      <point x="339" y="488"/>
      <point x="376" y="482"/>
    </contour>
    <contour>
      <point x="214" y="130" type="curve"/>
      <point x="372" y="403" type="line"/>
      <point x="354" y="425"/>
      <point x="332" y="436"/>
      <point x="305" y="436" type="curve" smooth="yes"/>
      <point x="239" y="436"/>
      <point x="204" y="366"/>
      <point x="204" y="235" type="curve" smooth="yes"/>
      <point x="204" y="195"/>
      <point x="207" y="161"/>
    </contour>
    <contour>
      <point x="396" y="343" type="curve"/>
      <point x="238" y="71" type="line"/>
      <point x="256" y="48"/>
      <point x="277" y="37"/>
      <point x="304" y="37" type="curve" smooth="yes"/>
      <point x="369" y="37"/>
      <point x="406" y="108"/>
      <point x="406" y="235" type="curve" smooth="yes"/>
      <point x="406" y="270"/>
      <point x="402" y="316"/>
    </contour>
  </outline>
</glyph>
<glyph name="Amacron" format="1">
  <advance width="759"/>
  <unicode hex="0100"/>
  <outline>
    <contour>
      <point x="351" y="737" type="line"/>
      <point x="427" y="737" type="line"/>
      <point x="684" y="117" type="line" smooth="yes"/>
      <point x="705" y="66"/>
      <point x="721" y="56"/>
      <point x="778" y="54" type="curve"/>
      <point x="778" y="0" type="line"/>
      <point x="427" y="0" type="line"/>
      <point x="427" y="54" type="line"/>
      <point x="444" y="55" type="line"/>
      <point x="489" y="55"/>
      <point x="502" y="61"/>
      <point x="502" y="79" type="curve" smooth="yes"/>
      <point x="502" y="87"/>
      <point x="498" y="102"/>
      <point x="490" y="120" type="curve" smooth="yes"/>
      <point x="452" y="218" type="line"/>
      <point x="203" y="218" type="line"/>
      <point x="187" y="180" type="line" smooth="yes"/>
      <point x="174" y="151"/>
      <point x="171" y="140"/>
      <point x="171" y="123" type="curve" smooth="yes"/>
      <point x="171" y="77"/>
      <point x="199" y="58"/>
      <point x="271" y="54" type="curve"/>
      <point x="271" y="0" type="line"/>
      <point x="-18" y="0" type="line"/>
      <point x="-18" y="54" type="line"/>
      <point x="41" y="60"/>
      <point x="78" y="99"/>
      <point x="124" y="207" type="curve" smooth="yes"/>
    </contour>
    <contour>
      <point x="330" y="524" type="line"/>
      <point x="229" y="285" type="line"/>
      <point x="427" y="285" type="line"/>
    </contour>
    <contour>
      <point x="218" y="908" type="line"/>
      <point x="562" y="908" type="line"/>
      <point x="562" y="828" type="line"/>
      <point x="218" y="828" type="line"/>
    </contour>
  </outline>
</glyph>
<glyph name="cacute" format="1">
  <advance width="556"/>
  <unicode hex="0107"/>
  <outline>
    <contour>
      <point x="475" y="177" type="curve"/>
      <point x="527" y="160" type="line"/>
      <point x="512" y="113"/>
      <point x="496" y="83"/>
      <point x="467" y="53" type="curve"/>
      <point x="423" y="5"/>
      <point x="374" y="-15"/>
      <point x="300" y="-15" type="curve" smooth="yes"/>
      <point x="139" y="-15"/>
      <point x="31" y="83"/>
      <point x="31" y="229" type="curve" smooth="yes"/>
      <point x="31" y="380"/>
      <point x="151" y="488"/>
      <point x="317" y="488" type="curve" smooth="yes"/>
      <point x="438" y="488"/>
      <point x="516" y="434"/>
      <point x="516" y="352" type="curve" smooth="yes"/>
      <point x="516" y="301"/>
      <point x="481" y="267"/>
      <point x="426" y="267" type="curve" smooth="yes"/>
      <point x="378" y="267"/>
      <point x="344" y="297"/>
      <point x="344" y="340" type="curve" smooth="yes"/>
      <point x="344" y="359"/>
      <point x="348" y="368"/>
      <point x="365" y="389" type="curve" smooth="yes"/>
      <point x="374" y="400"/>
      <point x="376" y="405"/>
      <point x="376" y="408" type="curve" smooth="yes"/>
      <point x="376" y="424"/>
      <point x="352" y="436"/>
      <point x="323" y="436" type="curve" smooth="yes"/>
      <point x="248" y="436"/>
      <point x="204" y="366"/>
      <point x="204" y="247" type="curve" smooth="yes"/>
      <point x="204" y="123"/>
      <point x="251" y="53"/>
      <point x="332" y="53" type="curve" smooth="yes"/>
      <point x="373" y="53"/>
      <point x="413" y="72"/>
      <point x="437" y="104" type="curve" smooth="yes"/>
      <point x="452" y="124"/>
      <point x="461" y="140"/>
    </contour>
    <contour>
      <point x="236" y="545" type="line"/>
      <point x="349" y="683" type="line" smooth="yes"/>
      <point x="384" y="726"/>
      <point x="396" y="734"/>
      <point x="426" y="734" type="curve" smooth="yes"/>
      <point x="458" y="734"/>
      <point x="483" y="712"/>
      <point x="483" y="684" type="curve" smooth="yes"/>
      <point x="483" y="663"/>
      <point x="471" y="646"/>
      <point x="447" y="632" type="curve" smooth="yes"/>
      <point x="300" y="545" type="line"/>
    </contour>
  </outline>
</glyph>
<glyph name="Cdotaccent" format="1">
  <advance width="778"/>
  <unicode hex="010A"/>
  <outline>
    <contour>
      <point x="382" y="963" type="curve" smooth="yes"/>
      <point x="420" y="963"/>
      <point x="452" y="931"/>
      <point x="452" y="893" type="curve" smooth="yes"/>
      <point x="452" y="853"/>
      <point x="420" y="822"/>
      <point x="381" y="822" type="curve" smooth="yes"/>
      <point x="343" y="822"/>
      <point x="311" y="854"/>
      <point x="311" y="893" type="curve" smooth="yes"/>
      <point x="311" y="931"/>
      <point x="343" y="963"/>
    </contour>
    <contour>
      <point x="698" y="733" type="line"/>
      <point x="708" y="447" type="line"/>
      <point x="655" y="441" type="line"/>
      <point x="610" y="608"/>
      <point x="537" y="685"/>
      <point x="426" y="685" type="curve" smooth="yes"/>
      <point x="303" y="685"/>
      <point x="239" y="577"/>
      <point x="239" y="370" type="curve" smooth="yes"/>
      <point x="239" y="150"/>
      <point x="303" y="47"/>
      <point x="439" y="47" type="curve" smooth="yes"/>
      <point x="554" y="47"/>
      <point x="634" y="126"/>
      <point x="661" y="265" type="curve"/>
      <point x="723" y="250" type="line"/>
      <point x="685" y="71"/>
      <point x="583" y="-15"/>
      <point x="406" y="-15" type="curve" smooth="yes"/>
      <point x="289" y="-15"/>
      <point x="204" y="19"/>
      <point x="135" y="95" type="curve" smooth="yes"/>
      <point x="71" y="166"/>
      <point x="40" y="248"/>
      <point x="40" y="352" type="curve" smooth="yes"/>
      <point x="40" y="576"/>
      <point x="198" y="737"/>
      <point x="418" y="737" type="curve" smooth="yes"/>
      <point x="489" y="737"/>
      <point x="535" y="724"/>
      <point x="601" y="684" type="curve"/>
      <point x="655" y="733" type="line"/>
    </contour>
  </outline>
</glyph>
<glyph name="Eogonek" format="1">
  <advance width="759"/>
  <unicode hex="0118"/>
  <outline>
    <contour>
      <point x="707" y="269" type="line"/>
      <point x="695" y="0" type="line"/>
      <point x="671" y="-25"/>
      <point x="665" y="-37"/>
      <point x="665" y="-59" type="curve" smooth="yes"/>
      <point x="665" y="-82"/>
      <point x="676" y="-95"/>
      <point x="695" y="-95" type="curve" smooth="yes"/>
      <point x="712" y="-95"/>
      <point x="726" y="-89"/>
      <point x="744" y="-73" type="curve"/>
      <point x="763" y="-105" type="line"/>
      <point x="737" y="-148"/>
      <point x="702" y="-170"/>
      <point x="661" y="-170" type="curve" smooth="yes"/>
      <point x="615" y="-170"/>
      <point x="585" y="-138"/>
      <point x="585" y="-89" type="curve" smooth="yes"/>
      <point x="585" y="-53"/>
      <point x="597" y="-29"/>
      <point x="628" y="0" type="curve"/>
      <point x="16" y="0" type="line"/>
      <point x="16" y="54" type="line"/>
      <point x="31" y="54" type="line" smooth="yes"/>
      <point x="83" y="54"/>
      <point x="104" y="58"/>
      <point x="113" y="68" type="curve" smooth="yes"/>
      <point x="120" y="77"/>
      <point x="120" y="80"/>
      <point x="120" y="144" type="curve" smooth="yes"/>
      <point x="120" y="578" type="line" smooth="yes"/>
      <point x="120" y="641"/>
      <point x="120" y="645"/>
      <point x="113" y="653" type="curve" smooth="yes"/>
      <point x="104" y="664"/>
      <point x="83" y="668"/>
      <point x="31" y="668" type="curve" smooth="yes"/>
      <point x="16" y="668" type="line"/>
      <point x="16" y="722" type="line"/>
      <point x="687" y="722" type="line"/>
      <point x="693" y="462" type="line"/>
      <point x="641" y="462" type="line"/>
      <point x="626" y="514"/>
      <point x="604" y="564"/>
      <point x="583" y="594" type="curve" smooth="yes"/>
      <point x="549" y="641"/>
      <point x="488" y="668"/>
      <point x="414" y="668" type="curve" smooth="yes"/>
      <point x="386" y="668" type="line" smooth="yes"/>
      <point x="345" y="668"/>
      <point x="321" y="661"/>
      <point x="310" y="646" type="curve" smooth="yes"/>
      <point x="302" y="634"/>
      <point x="300" y="623"/>
      <point x="300" y="582" type="curve" smooth="yes"/>
      <point x="300" y="401" type="line"/>
      <point x="317" y="401" type="line" smooth="yes"/>
      <point x="395" y="401"/>
      <point x="444" y="451"/>
      <point x="455" y="543" type="curve"/>
      <point x="509" y="543" type="line"/>
      <point x="509" y="204" type="line"/>
      <point x="455" y="204" type="line"/>
      <point x="444" y="296"/>
      <point x="395" y="346"/>
      <point x="317" y="346" type="curve" smooth="yes"/>
      <point x="300" y="346" type="line"/>
      <point x="300" y="124" type="line" smooth="yes"/>
      <point x="300" y="91"/>
      <point x="303" y="80"/>
      <point x="316" y="68" type="curve" smooth="yes"/>
      <point x="328" y="56"/>
      <point x="341" y="54"/>
      <point x="390" y="54" type="curve" smooth="yes"/>
      <point x="420" y="54" type="line" smooth="yes"/>
      <point x="541" y="54"/>
      <point x="612" y="119"/>
      <point x="654" y="269" type="curve"/>
    </contour>
  </outline>
</glyph>
<glyph name="Gcircumflex" format="1">
  <advance width="833"/>
  <unicode hex="011C"/>
  <outline>
    <contour>
      <point x="252" y="822" type="line"/>
      <point x="374" y="1000" type="line"/>
      <point x="482" y="1000" type="line"/>
      <point x="604" y="822" type="line"/>
      <point x="536" y="822" type="line"/>
      <point x="428" y="915" type="line"/>
      <point x="320" y="822" type="line"/>
    </contour>
    <contour>
      <point x="719" y="733" type="line"/>
      <point x="728" y="446" type="line"/>
      <point x="675" y="446" type="line"/>
      <point x="642" y="598"/>
      <point x="555" y="685"/>
      <point x="437" y="685" type="curve" smooth="yes"/>
      <point x="378" y="685"/>
      <point x="325" y="657"/>
      <point x="296" y="610" type="curve" smooth="yes"/>
      <point x="259" y="550"/>
      <point x="239" y="462"/>
      <point x="239" y="356" type="curve" smooth="yes"/>
      <point x="239" y="262"/>
      <point x="253" y="181"/>
      <point x="280" y="123" type="curve" smooth="yes"/>
      <point x="305" y="69"/>
      <point x="355" y="37"/>
      <point x="416" y="37" type="curve" smooth="yes"/>
      <point x="505" y="37"/>
      <point x="564" y="98"/>
      <point x="564" y="192" type="curve" smooth="yes"/>
      <point x="564" y="206" type="line" smooth="yes"/>
      <point x="564" y="279"/>
      <point x="560" y="282"/>
      <point x="473" y="282" type="curve" smooth="yes"/>
      <point x="462" y="282" type="line"/>
      <point x="462" y="336" type="line"/>
      <point x="817" y="336" type="line"/>
      <point x="817" y="282" type="line"/>
      <point x="760" y="281"/>
      <point x="744" y="278"/>
      <point x="735" y="268" type="curve" smooth="yes"/>
      <point x="728" y="260"/>
      <point x="728" y="255"/>
      <point x="728" y="192" type="curve" smooth="yes"/>
      <point x="728" y="-14" type="line"/>
      <point x="675" y="-14" type="line"/>
      <point x="626" y="84" type="line"/>
      <point x="597" y="54"/>
      <point x="581" y="41"/>
      <point x="556" y="26" type="curve" smooth="yes"/>
      <point x="510" y="0"/>
      <point x="449" y="-15"/>
      <point x="388" y="-15" type="curve" smooth="yes"/>
      <point x="181" y="-15"/>
      <point x="39" y="134"/>
      <point x="39" y="350" type="curve" smooth="yes"/>
      <point x="39" y="460"/>
      <point x="70" y="544"/>
      <point x="138" y="616" type="curve"/>
      <point x="212" y="696"/>
      <point x="310" y="737"/>
      <point x="425" y="737" type="curve" smooth="yes"/>
      <point x="497" y="737"/>
      <point x="546" y="723"/>
      <point x="616" y="683" type="curve"/>
      <point x="675" y="733" type="line"/>
    </contour>
  </outline>
</glyph>
<glyph name="gcommaaccent" format="1">
  <advance width="611"/>
  <unicode hex="0123"/>
  <outline>
    <contour>
      <point x="263" y="97" type="curve" smooth="yes"/>
      <point x="332" y="97" type="line" smooth="yes"/>
      <point x="404" y="97"/>
      <point x="448" y="93"/>
      <point x="481" y="82" type="curve"/>
      <point x="531" y="67"/>
      <point x="564" y="20"/>
      <point x="564" y="-36" type="curve" smooth="yes"/>
      <point x="564" y="-143"/>
      <point x="460" y="-202"/>
      <point x="274" y="-202" type="curve" smooth="yes"/>
      <point x="111" y="-202"/>
      <point x="30" y="-170"/>
      <point x="30" y="-104" type="curve" smooth="yes"/>
      <point x="30" y="-57"/>
      <point x="69" y="-25"/>
      <point x="136" y="-15" type="curve"/>
      <point x="78" y="1"/>
      <point x="45" y="34"/>
      <point x="45" y="78" type="curve" smooth="yes"/>
      <point x="45" y="130"/>
      <point x="83" y="162"/>
      <point x="161" y="176" type="curve"/>
      <point x="89" y="201"/>
      <point x="51" y="250"/>
      <point x="51" y="317" type="curve" smooth="yes"/>
      <point x="51" y="416"/>
      <point x="150" y="488"/>
      <point x="287" y="488" type="curve" smooth="yes"/>
      <point x="338" y="488"/>
      <point x="383" y="478"/>
      <point x="421" y="459" type="curve"/>
      <point x="465" y="514"/>
      <point x="504" y="538"/>
      <point x="549" y="538" type="curve" smooth="yes"/>
      <point x="593" y="538"/>
      <point x="623" y="512"/>
      <point x="623" y="473" type="curve" smooth="yes"/>
      <point x="623" y="437"/>
      <point x="596" y="409"/>
      <point x="561" y="409" type="curve" smooth="yes"/>
      <point x="534" y="409"/>
      <point x="507" y="431"/>
      <point x="507" y="454" type="curve" smooth="yes"/>
      <point x="507" y="458" type="line" smooth="yes"/>
      <point x="507" y="462"/>
      <point x="505" y="463"/>
      <point x="502" y="463" type="curve" smooth="yes"/>
      <point x="490" y="463"/>
      <point x="478" y="453"/>
      <point x="465" y="435" type="curve"/>
      <point x="509" y="399"/>
      <point x="525" y="369"/>
      <point x="525" y="322" type="curve" smooth="yes"/>
      <point x="525" y="261"/>
      <point x="491" y="210"/>
      <point x="433" y="183" type="curve" smooth="yes"/>
      <point x="395" y="165"/>
      <point x="358" y="159"/>
      <point x="292" y="159" type="curve" smooth="yes"/>
      <point x="274" y="159" type="line" smooth="yes"/>
      <point x="216" y="159"/>
      <point x="198" y="151"/>
      <point x="198" y="126" type="curve" smooth="yes"/>
      <point x="198" y="102"/>
      <point x="210" y="97"/>
    </contour>
    <contour>
      <point x="290" y="436" type="curve" smooth="yes"/>
      <point x="239" y="436"/>
      <point x="213" y="399"/>
      <point x="213" y="326" type="curve" smooth="yes"/>
      <point x="213" y="294"/>
      <point x="218" y="265"/>
      <point x="229" y="243" type="curve"/>
      <point x="240" y="218"/>
      <point x="259" y="207"/>
      <point x="289" y="207" type="curve" smooth="yes"/>
      <point x="336" y="207"/>
      <point x="363" y="249"/>
      <point x="363" y="320" type="curve" smooth="yes"/>
      <point x="363" y="396"/>
      <point x="338" y="436"/>
    </contour>
    <contour>
      <point x="328" y="-43" type="curve" smooth="yes"/>
      <point x="197" y="-43" type="line"/>
      <point x="172" y="-54"/>
      <point x="160" y="-70"/>
      <point x="160" y="-92" type="curve" smooth="yes"/>
      <point x="160" y="-129"/>
      <point x="204" y="-150"/>
      <point x="281" y="-150" type="curve" smooth="yes"/>
      <point x="384" y="-150"/>
      <point x="434" y="-130"/>
      <point x="434" y="-89" type="curve" smooth="yes"/>
      <point x="434" y="-76"/>
      <point x="428" y="-62"/>
      <point x="419" y="-56" type="curve" smooth="yes"/>
      <point x="402" y="-45"/>
      <point x="390" y="-43"/>
    </contour>
    <contour>
      <point x="369" y="837" type="curve"/>
      <point x="393" y="800" type="line"/>
      <point x="339" y="764"/>
      <point x="304" y="719"/>
      <point x="304" y="685" type="curve" smooth="yes"/>
      <point x="304" y="682"/>
      <point x="305" y="680"/>
      <point x="308" y="680" type="curve" smooth="yes"/>
      <point x="311" y="680" type="line"/>
      <point x="314" y="681"/>
      <point x="316" y="681"/>
      <point x="319" y="681" type="curve" smooth="yes"/>
      <point x="361" y="681"/>
      <point x="394" y="647"/>
      <point x="394" y="604" type="curve" smooth="yes"/>
      <point x="394" y="554"/>
      <point x="356" y="515"/>
      <point x="308" y="515" type="curve" smooth="yes"/>
      <point x="254" y="515"/>
      <point x="217" y="559"/>
      <point x="217" y="623" type="curve" smooth="yes"/>
      <point x="217" y="703"/>
      <point x="269" y="776"/>
    </contour>
  </outline>
</glyph>
<glyph name="Hcircumflex" format="1">
  <advance width="870"/>
  <unicode hex="0124"/>
  <outline>
    <contour>
      <point x="260" y="822" type="line"/>
      <point x="380" y="1000" type="line"/>
      <point x="490" y="1000" type="line"/>
      <point x="610" y="822" type="line"/>
      <point x="544" y="822" type="line"/>
      <point x="436" y="915" type="line"/>
      <point x="326" y="822" type="line"/>
    </contour>
    <contour>
      <point x="565" y="339" type="line"/>
      <point x="304" y="339" type="line"/>
      <point x="304" y="144" type="line" smooth="yes"/>
      <point x="304" y="80"/>
      <point x="304" y="77"/>
      <point x="311" y="69" type="curve" smooth="yes"/>
      <point x="320" y="58"/>
      <point x="342" y="54"/>
      <point x="394" y="54" type="curve" smooth="yes"/>
      <point x="409" y="54" type="line"/>
      <point x="409" y="0" type="line"/>
      <point x="20" y="0" type="line"/>
      <point x="20" y="54" type="line"/>
      <point x="35" y="54" type="line" smooth="yes"/>
      <point x="87" y="54"/>
      <point x="108" y="58"/>
      <point x="117" y="69" type="curve" smooth="yes"/>
      <point x="124" y="77"/>
      <point x="124" y="81"/>
      <point x="124" y="144" type="curve" smooth="yes"/>
      <point x="124" y="577" type="line" smooth="yes"/>
      <point x="124" y="641"/>
      <point x="124" y="645"/>
      <point x="117" y="653" type="curve" smooth="yes"/>
      <point x="108" y="664"/>
      <point x="87" y="668"/>
      <point x="35" y="668" type="curve" smooth="yes"/>
      <point x="20" y="668" type="line"/>
      <point x="20" y="722" type="line"/>
      <point x="409" y="722" type="line"/>
      <point x="409" y="668" type="line"/>
      <point x="394" y="668" type="line" smooth="yes"/>
      <point x="342" y="668"/>
      <point x="320" y="664"/>
      <point x="311" y="653" type="curve" smooth="yes"/>
      <point x="304" y="645"/>
      <point x="304" y="641"/>
      <point x="304" y="577" type="curve" smooth="yes"/>
      <point x="304" y="399" type="line"/>
      <point x="565" y="399" type="line"/>
      <point x="565" y="577" type="line" smooth="yes"/>
      <point x="565" y="640"/>
      <point x="565" y="645"/>
      <point x="558" y="653" type="curve" smooth="yes"/>
      <point x="549" y="664"/>
      <point x="528" y="668"/>
      <point x="476" y="668" type="curve" smooth="yes"/>
      <point x="461" y="668" type="line"/>
      <point x="461" y="722" type="line"/>
      <point x="850" y="722" type="line"/>
      <point x="850" y="668" type="line"/>
      <point x="835" y="668" type="line" smooth="yes"/>
      <point x="783" y="668"/>
      <point x="761" y="664"/>
      <point x="752" y="653" type="curve" smooth="yes"/>
      <point x="745" y="645"/>
      <point x="745" y="641"/>
      <point x="745" y="577" type="curve" smooth="yes"/>
      <point x="745" y="144" type="line" smooth="yes"/>
      <point x="745" y="80"/>
      <point x="745" y="77"/>
      <point x="752" y="69" type="curve" smooth="yes"/>
      <point x="761" y="58"/>
      <point x="783" y="54"/>
      <point x="835" y="54" type="curve" smooth="yes"/>
      <point x="850" y="54" type="line"/>
      <point x="850" y="0" type="line"/>
      <point x="461" y="0" type="line"/>
      <point x="461" y="54" type="line"/>
      <point x="476" y="54" type="line" smooth="yes"/>
      <point x="528" y="54"/>
      <point x="549" y="58"/>
      <point x="558" y="69" type="curve" smooth="yes"/>
      <point x="565" y="77"/>
      <point x="565" y="81"/>
      <point x="565" y="144" type="curve" smooth="yes"/>
    </contour>
  </outline>
</glyph>
<glyph name="Itilde" format="1">
  <advance width="444"/>
  <unicode hex="0128"/>
  <outline>
    <contour>
      <point x="364" y="957" type="curve"/>
      <point x="413" y="957" type="line"/>
      <point x="409" y="923"/>
      <point x="400" y="899"/>
      <point x="379" y="872" type="curve" smooth="yes"/>
      <point x="352" y="836"/>
      <point x="326" y="822"/>
      <point x="287" y="822" type="curve" smooth="yes"/>
      <point x="254" y="822"/>
      <point x="239" y="827"/>
      <point x="186" y="855" type="curve" smooth="yes"/>
      <point x="163" y="868"/>
      <point x="139" y="876"/>
      <point x="126" y="876" type="curve" smooth="yes"/>
      <point x="107" y="876"/>
      <point x="91" y="858"/>
      <point x="82" y="826" type="curve"/>
      <point x="32" y="826" type="line"/>
      <point x="44" y="905"/>
      <point x="94" y="961"/>
      <point x="151" y="961" type="curve" smooth="yes"/>
      <point x="178" y="961"/>
      <point x="195" y="956"/>
      <point x="247" y="931" type="curve" smooth="yes"/>
      <point x="281" y="915"/>
      <point x="303" y="907"/>
      <point x="318" y="907" type="curve" smooth="yes"/>
      <point x="339" y="907"/>
      <point x="350" y="919"/>
    </contour>
    <contour>
      <point x="132" y="144" type="curve" smooth="yes"/>
      <point x="132" y="578" type="line" smooth="yes"/>
      <point x="132" y="641"/>
      <point x="132" y="645"/>
      <point x="125" y="653" type="curve" smooth="yes"/>
      <point x="116" y="664"/>
      <point x="95" y="668"/>
      <point x="43" y="668" type="curve" smooth="yes"/>
      <point x="28" y="668" type="line"/>
      <point x="28" y="722" type="line"/>
      <point x="417" y="722" type="line"/>
      <point x="417" y="668" type="line"/>
      <point x="402" y="668" type="line" smooth="yes"/>
      <point x="350" y="668"/>
      <point x="328" y="664"/>
      <point x="319" y="653" type="curve" smooth="yes"/>
      <point x="312" y="645"/>
      <point x="312" y="642"/>
      <point x="312" y="578" type="curve" smooth="yes"/>
      <point x="312" y="144" type="line" smooth="yes"/>
      <point x="312" y="80"/>
      <point x="312" y="77"/>
      <point x="319" y="69" type="curve" smooth="yes"/>
      <point x="328" y="58"/>
      <point x="350" y="54"/>
      <point x="402" y="54" type="curve" smooth="yes"/>
      <point x="417" y="54" type="line"/>
      <point x="417" y="0" type="line"/>
      <point x="28" y="0" type="line"/>
      <point x="28" y="54" type="line"/>
      <point x="43" y="54" type="line" smooth="yes"/>
      <point x="95" y="54"/>
      <point x="116" y="58"/>
      <point x="125" y="69" type="curve" smooth="yes"/>
      <point x="132" y="77"/>
      <point x="132" y="81"/>
    </contour>
  </outline>
</glyph>
<glyph name="itilde" format="1">
  <advance width="370"/>
  <unicode hex="0129"/>
  <outline>
    <contour>
      <point x="326" y="708" type="curve"/>
      <point x="375" y="708" type="line"/>
      <point x="371" y="674"/>
      <point x="362" y="650"/>
      <point x="341" y="623" type="curve" smooth="yes"/>
      <point x="314" y="587"/>
      <point x="288" y="573"/>
      <point x="249" y="573" type="curve" smooth="yes"/>
      <point x="216" y="573"/>
      <point x="201" y="578"/>
      <point x="148" y="606" type="curve" smooth="yes"/>
      <point x="125" y="619"/>
      <point x="101" y="627"/>
      <point x="88" y="627" type="curve" smooth="yes"/>
      <point x="69" y="627"/>
      <point x="53" y="609"/>
      <point x="44" y="577" type="curve"/>
      <point x="-6" y="577" type="line"/>
      <point x="6" y="656"/>
      <point x="56" y="712"/>
      <point x="113" y="712" type="curve" smooth="yes"/>
      <point x="140" y="712"/>
      <point x="157" y="707"/>
      <point x="209" y="682" type="curve" smooth="yes"/>
      <point x="243" y="666"/>
      <point x="265" y="658"/>
      <point x="280" y="658" type="curve" smooth="yes"/>
      <point x="301" y="658"/>
      <point x="312" y="670"/>
    </contour>
    <contour>
      <point x="263" y="473" type="line"/>
      <point x="263" y="144" type="line"/>
      <point x="263" y="97" type="line" smooth="yes"/>
      <point x="263" y="58"/>
      <point x="274" y="51"/>
      <point x="335" y="51" type="curve" smooth="yes"/>
      <point x="341" y="51" type="line"/>
      <point x="341" y="0" type="line"/>
      <point x="28" y="0" type="line"/>
      <point x="28" y="51" type="line"/>
      <point x="32" y="51" type="line" smooth="yes"/>
      <point x="95" y="51"/>
      <point x="106" y="58"/>
      <point x="106" y="98" type="curve" smooth="yes"/>
      <point x="106" y="144" type="line"/>
      <point x="106" y="321" type="line" smooth="yes"/>
      <point x="106" y="410"/>
      <point x="103" y="415"/>
      <point x="42" y="415" type="curve" smooth="yes"/>
      <point x="28" y="415" type="line"/>
      <point x="28" y="466" type="line"/>
    </contour>
  </outline>
</glyph>
<glyph name="imacron" format="1">
  <advance width="370"/>
  <unicode hex="012B"/>
  <outline>
    <contour>
      <point x="264" y="473" type="line"/>
      <point x="264" y="144" type="line"/>
      <point x="264" y="97" type="line" smooth="yes"/>
      <point x="264" y="58"/>
      <point x="275" y="51"/>
      <point x="336" y="51" type="curve" smooth="yes"/>
      <point x="342" y="51" type="line"/>
      <point x="342" y="0" type="line"/>
      <point x="29" y="0" type="line"/>
      <point x="29" y="51" type="line"/>
      <point x="33" y="51" type="line" smooth="yes"/>
      <point x="96" y="51"/>
      <point x="107" y="58"/>
      <point x="107" y="98" type="curve" smooth="yes"/>
      <point x="107" y="144" type="line"/>
      <point x="107" y="321" type="line" smooth="yes"/>
      <point x="107" y="410"/>
      <point x="104" y="415"/>
      <point x="43" y="415" type="curve" smooth="yes"/>
      <point x="29" y="415" type="line"/>
      <point x="29" y="466" type="line"/>
    </contour>
    <contour>
      <point x="14" y="663" type="line"/>
      <point x="358" y="663" type="line"/>
      <point x="358" y="583" type="line"/>
      <point x="14" y="583" type="line"/>
    </contour>
  </outline>
</glyph>
<glyph name="Ibreve" format="1">
  <advance width="444"/>
  <unicode hex="012C"/>
  <outline>
    <contour>
      <point x="65" y="989" type="curve"/>
      <point x="118" y="989" type="line"/>
      <point x="125" y="934"/>
      <point x="159" y="907"/>
      <point x="223" y="907" type="curve" smooth="yes"/>
      <point x="286" y="907"/>
      <point x="320" y="934"/>
      <point x="327" y="989" type="curve"/>
      <point x="380" y="989" type="line"/>
      <point x="380" y="884"/>
      <point x="322" y="822"/>
      <point x="222" y="822" type="curve" smooth="yes"/>
      <point x="122" y="822"/>
      <point x="65" y="883"/>
    </contour>
    <contour>
      <point x="132" y="144" type="curve" smooth="yes"/>
      <point x="132" y="578" type="line" smooth="yes"/>
      <point x="132" y="641"/>
      <point x="132" y="645"/>
      <point x="125" y="653" type="curve" smooth="yes"/>
      <point x="116" y="664"/>
      <point x="95" y="668"/>
      <point x="43" y="668" type="curve" smooth="yes"/>
      <point x="28" y="668" type="line"/>
      <point x="28" y="722" type="line"/>
      <point x="417" y="722" type="line"/>
      <point x="417" y="668" type="line"/>
      <point x="402" y="668" type="line" smooth="yes"/>
      <point x="350" y="668"/>
      <point x="328" y="664"/>
      <point x="319" y="653" type="curve" smooth="yes"/>
      <point x="312" y="645"/>
      <point x="312" y="642"/>
      <point x="312" y="578" type="curve" smooth="yes"/>
      <point x="312" y="144" type="line" smooth="yes"/>
      <point x="312" y="80"/>
      <point x="312" y="77"/>
      <point x="319" y="69" type="curve" smooth="yes"/>
      <point x="328" y="58"/>
      <point x="350" y="54"/>
      <point x="402" y="54" type="curve" smooth="yes"/>
      <point x="417" y="54" type="line"/>
      <point x="417" y="0" type="line"/>
      <point x="28" y="0" type="line"/>
      <point x="28" y="54" type="line"/>
      <point x="43" y="54" type="line" smooth="yes"/>
      <point x="95" y="54"/>
      <point x="116" y="58"/>
      <point x="125" y="69" type="curve" smooth="yes"/>
      <point x="132" y="77"/>
      <point x="132" y="81"/>
    </contour>
  </outline>
</glyph>
<glyph name="ibreve" format="1">
  <advance width="370"/>
  <unicode hex="012D"/>
  <outline>
    <contour>
      <point x="27" y="740" type="curve"/>
      <point x="80" y="740" type="line"/>
      <point x="87" y="685"/>
      <point x="121" y="658"/>
      <point x="185" y="658" type="curve" smooth="yes"/>
      <point x="248" y="658"/>
      <point x="282" y="685"/>
      <point x="289" y="740" type="curve"/>
      <point x="342" y="740" type="line"/>
      <point x="342" y="635"/>
      <point x="284" y="573"/>
      <point x="184" y="573" type="curve" smooth="yes"/>
      <point x="84" y="573"/>
      <point x="27" y="634"/>
    </contour>
    <contour>
      <point x="263" y="473" type="line"/>
      <point x="263" y="144" type="line"/>
      <point x="263" y="97" type="line" smooth="yes"/>
      <point x="263" y="58"/>
      <point x="274" y="51"/>
      <point x="335" y="51" type="curve" smooth="yes"/>
      <point x="341" y="51" type="line"/>
      <point x="341" y="0" type="line"/>
      <point x="28" y="0" type="line"/>
      <point x="28" y="51" type="line"/>
      <point x="32" y="51" type="line" smooth="yes"/>
      <point x="95" y="51"/>
      <point x="106" y="58"/>
      <point x="106" y="98" type="curve" smooth="yes"/>
      <point x="106" y="144" type="line"/>
      <point x="106" y="321" type="line" smooth="yes"/>
      <point x="106" y="410"/>
      <point x="103" y="415"/>
      <point x="42" y="415" type="curve" smooth="yes"/>
      <point x="28" y="415" type="line"/>
      <point x="28" y="466" type="line"/>
    </contour>
  </outline>
</glyph>
<glyph name="iogonek" format="1">
  <advance width="370"/>
  <unicode hex="012F"/>
  <outline>
    <contour>
      <point x="28" y="0" type="line"/>
      <point x="28" y="51" type="line"/>
      <point x="32" y="51" type="line" smooth="yes"/>
      <point x="69" y="51"/>
      <point x="92" y="55"/>
      <point x="100" y="64" type="curve" smooth="yes"/>
      <point x="106" y="72"/>
      <point x="106" y="72"/>
      <point x="106" y="144" type="curve" smooth="yes"/>
      <point x="106" y="321" type="line" smooth="yes"/>
      <point x="106" y="410"/>
      <point x="103" y="415"/>
      <point x="42" y="415" type="curve" smooth="yes"/>
      <point x="28" y="415" type="line"/>
      <point x="28" y="466" type="line"/>
      <point x="263" y="473" type="line"/>
      <point x="263" y="144" type="line" smooth="yes"/>
      <point x="263" y="72"/>
      <point x="263" y="72"/>
      <point x="270" y="64" type="curve" smooth="yes"/>
      <point x="277" y="55"/>
      <point x="300" y="51"/>
      <point x="335" y="51" type="curve" smooth="yes"/>
      <point x="341" y="51" type="line"/>
      <point x="341" y="0" type="line"/>
      <point x="317" y="-25"/>
      <point x="311" y="-37"/>
      <point x="311" y="-59" type="curve" smooth="yes"/>
      <point x="311" y="-82"/>
      <point x="322" y="-95"/>
      <point x="341" y="-95" type="curve" smooth="yes"/>
      <point x="358" y="-95"/>
      <point x="372" y="-89"/>
      <point x="390" y="-73" type="curve"/>
      <point x="409" y="-105" type="line"/>
      <point x="383" y="-148"/>
      <point x="348" y="-170"/>
      <point x="307" y="-170" type="curve" smooth="yes"/>
      <point x="261" y="-170"/>
      <point x="231" y="-138"/>
      <point x="231" y="-89" type="curve" smooth="yes"/>
      <point x="231" y="-53"/>
      <point x="242" y="-29"/>
      <point x="273" y="0" type="curve"/>
    </contour>
    <contour>
      <point x="182" y="737" type="curve" smooth="yes"/>
      <point x="230" y="737"/>
      <point x="270" y="697"/>
      <point x="270" y="649" type="curve" smooth="yes"/>
      <point x="270" y="599"/>
      <point x="230" y="560"/>
      <point x="180" y="560" type="curve" smooth="yes"/>
      <point x="133" y="560"/>
      <point x="93" y="601"/>
      <point x="93" y="649" type="curve" smooth="yes"/>
      <point x="93" y="697"/>
      <point x="133" y="737"/>
    </contour>
  </outline>
</glyph>
<glyph name="dotlessi" format="1">
  <advance width="370"/>
  <unicode hex="0131"/>
  <outline>
    <contour>
      <point x="263" y="473" type="line"/>
      <point x="263" y="144" type="line"/>
      <point x="263" y="97" type="line" smooth="yes"/>
      <point x="263" y="58"/>
      <point x="274" y="51"/>
      <point x="335" y="51" type="curve" smooth="yes"/>
      <point x="341" y="51" type="line"/>
      <point x="341" y="0" type="line"/>
      <point x="28" y="0" type="line"/>
      <point x="28" y="51" type="line"/>
      <point x="32" y="51" type="line" smooth="yes"/>
      <point x="95" y="51"/>
      <point x="106" y="58"/>
      <point x="106" y="98" type="curve" smooth="yes"/>
      <point x="106" y="144" type="line"/>
      <point x="106" y="321" type="line" smooth="yes"/>
      <point x="106" y="410"/>
      <point x="103" y="415"/>
      <point x="42" y="415" type="curve" smooth="yes"/>
      <point x="28" y="415" type="line"/>
      <point x="28" y="466" type="line"/>
    </contour>
  </outline>
</glyph>
<glyph name="ij" format="1">
  <advance width="724"/>
  <unicode hex="0133"/>
  <outline>
    <contour>
      <point x="514" y="737" type="curve" smooth="yes"/>
      <point x="562" y="737"/>
      <point x="602" y="697"/>
      <point x="602" y="649" type="curve" smooth="yes"/>
      <point x="602" y="599"/>
      <point x="562" y="560"/>
      <point x="512" y="560" type="curve" smooth="yes"/>
      <point x="465" y="560"/>
      <point x="425" y="601"/>
      <point x="425" y="649" type="curve" smooth="yes"/>
      <point x="425" y="697"/>
      <point x="465" y="737"/>
    </contour>
    <contour>
      <point x="598" y="473" type="line"/>
      <point x="598" y="109" type="line" smooth="yes"/>
      <point x="598" y="5"/>
      <point x="589" y="-51"/>
      <point x="563" y="-101" type="curve" smooth="yes"/>
      <point x="532" y="-163"/>
      <point x="463" y="-202"/>
      <point x="388" y="-202" type="curve" smooth="yes"/>
      <point x="306" y="-202"/>
      <point x="248" y="-160"/>
      <point x="248" y="-102" type="curve" smooth="yes"/>
      <point x="248" y="-59"/>
      <point x="281" y="-27"/>
      <point x="326" y="-27" type="curve" smooth="yes"/>
      <point x="364" y="-27"/>
      <point x="391" y="-55"/>
      <point x="391" y="-94" type="curve" smooth="yes"/>
      <point x="391" y="-116"/>
      <point x="383" y="-130"/>
      <point x="362" y="-144" type="curve"/>
      <point x="368" y="-152"/>
      <point x="375" y="-155"/>
      <point x="388" y="-155" type="curve" smooth="yes"/>
      <point x="424" y="-155"/>
      <point x="441" y="-124"/>
      <point x="441" y="-56" type="curve" smooth="yes"/>
      <point x="441" y="329" type="line" smooth="yes"/>
      <point x="441" y="409"/>
      <point x="436" y="415"/>
      <point x="377" y="415" type="curve" smooth="yes"/>
      <point x="345" y="415" type="line"/>
      <point x="345" y="466" type="line"/>
    </contour>
    <contour>
      <point x="263" y="473" type="line"/>
      <point x="263" y="97" type="line" smooth="yes"/>
      <point x="263" y="58"/>
      <point x="274" y="51"/>
      <point x="335" y="51" type="curve" smooth="yes"/>
      <point x="341" y="51" type="line"/>
      <point x="341" y="0" type="line"/>
      <point x="28" y="0" type="line"/>
      <point x="28" y="51" type="line"/>
      <point x="32" y="51" type="line" smooth="yes"/>
      <point x="95" y="51"/>
      <point x="106" y="58"/>
      <point x="106" y="98" type="curve" smooth="yes"/>
      <point x="106" y="321" type="line" smooth="yes"/>
      <point x="106" y="410"/>
      <point x="103" y="415"/>
      <point x="42" y="415" type="curve" smooth="yes"/>
      <point x="28" y="415" type="line"/>
      <point x="28" y="466" type="line"/>
    </contour>
    <contour>
      <point x="182" y="737" type="curve" smooth="yes"/>
      <point x="230" y="737"/>
      <point x="270" y="697"/>
      <point x="270" y="649" type="curve" smooth="yes"/>
      <point x="270" y="599"/>
      <point x="230" y="560"/>
      <point x="180" y="560" type="curve" smooth="yes"/>
      <point x="133" y="560"/>
      <point x="93" y="601"/>
      <point x="93" y="649" type="curve" smooth="yes"/>
      <point x="93" y="697"/>
      <point x="133" y="737"/>
    </contour>
  </outline>
</glyph>
<glyph name="Jcircumflex" format="1">
  <advance width="648"/>
  <unicode hex="0134"/>
  <outline>
    <contour>
      <point x="263" y="822" type="line"/>
      <point x="384" y="1000" type="line"/>
      <point x="493" y="1000" type="line"/>
      <point x="614" y="822" type="line"/>
      <point x="547" y="822" type="line"/>
      <point x="439" y="915" type="line"/>
      <point x="330" y="822" type="line"/>
    </contour>
    <contour>
      <point x="534" y="578" type="curve" smooth="yes"/>
      <point x="534" y="280" type="line" smooth="yes"/>
      <point x="534" y="161"/>
      <point x="509" y="96"/>
      <point x="446" y="46" type="curve" smooth="yes"/>
      <point x="395" y="5"/>
      <point x="328" y="-15"/>
      <point x="246" y="-15" type="curve" smooth="yes"/>
      <point x="96" y="-15"/>
      <point x="4" y="60"/>
      <point x="4" y="182" type="curve" smooth="yes"/>
      <point x="4" y="268"/>
      <point x="56" y="330"/>
      <point x="128" y="330" type="curve" smooth="yes"/>
      <point x="188" y="330"/>
      <point x="231" y="287"/>
      <point x="231" y="228" type="curve" smooth="yes"/>
      <point x="231" y="174"/>
      <point x="192" y="134"/>
      <point x="139" y="134" type="curve" smooth="yes"/>
      <point x="131" y="134"/>
      <point x="124" y="135"/>
      <point x="115" y="137" type="curve" smooth="yes"/>
      <point x="110" y="138"/>
      <point x="106" y="139"/>
      <point x="103" y="139" type="curve" smooth="yes"/>
      <point x="92" y="139"/>
      <point x="84" y="131"/>
      <point x="84" y="120" type="curve" smooth="yes"/>
      <point x="84" y="81"/>
      <point x="140" y="46"/>
      <point x="202" y="46" type="curve" smooth="yes"/>
      <point x="254" y="46"/>
      <point x="302" y="69"/>
      <point x="327" y="105" type="curve" smooth="yes"/>
      <point x="347" y="135"/>
      <point x="354" y="173"/>
      <point x="354" y="245" type="curve" smooth="yes"/>
      <point x="354" y="578" type="line" smooth="yes"/>
      <point x="354" y="642"/>
      <point x="354" y="645"/>
      <point x="347" y="653" type="curve" smooth="yes"/>
      <point x="338" y="664"/>
      <point x="317" y="668"/>
      <point x="265" y="668" type="curve" smooth="yes"/>
      <point x="250" y="668" type="line"/>
      <point x="250" y="722" type="line"/>
      <point x="639" y="722" type="line"/>
      <point x="639" y="668" type="line"/>
      <point x="624" y="668" type="line" smooth="yes"/>
      <point x="572" y="668"/>
      <point x="550" y="664"/>
      <point x="541" y="653" type="curve" smooth="yes"/>
      <point x="534" y="645"/>
      <point x="534" y="642"/>
    </contour>
  </outline>
</glyph>
<glyph name="kcommaaccent" format="1">
  <advance width="667"/>
  <unicode hex="0137"/>
  <outline>
    <contour>
      <point x="252" y="737" type="line"/>
      <point x="252" y="246" type="line"/>
      <point x="376" y="354" type="line" smooth="yes"/>
      <point x="394" y="370"/>
      <point x="401" y="382"/>
      <point x="401" y="394" type="curve" smooth="yes"/>
      <point x="401" y="412"/>
      <point x="379" y="422"/>
      <point x="341" y="422" type="curve" smooth="yes"/>
      <point x="329" y="422" type="line"/>
      <point x="329" y="473" type="line"/>
      <point x="623" y="473" type="line"/>
      <point x="623" y="422" type="line"/>
      <point x="600" y="422" type="line" smooth="yes"/>
      <point x="562" y="422"/>
      <point x="533" y="410"/>
      <point x="492" y="375" type="curve" smooth="yes"/>
      <point x="415" y="311" type="line"/>
      <point x="572" y="115" type="line"/>
      <point x="616" y="58"/>
      <point x="625" y="51"/>
      <point x="660" y="51" type="curve"/>
      <point x="660" y="0" type="line"/>
      <point x="354" y="0" type="line"/>
      <point x="354" y="51" type="line"/>
      <point x="364" y="51" type="line" smooth="yes"/>
      <point x="390" y="51"/>
      <point x="403" y="58"/>
      <point x="403" y="71" type="curve" smooth="yes"/>
      <point x="403" y="80"/>
      <point x="398" y="92"/>
      <point x="390" y="102" type="curve" smooth="yes"/>
      <point x="298" y="213" type="line"/>
      <point x="252" y="172" type="line"/>
      <point x="252" y="144" type="line"/>
      <point x="252" y="98" type="line" smooth="yes"/>
      <point x="252" y="58"/>
      <point x="262" y="51"/>
      <point x="320" y="51" type="curve"/>
      <point x="320" y="0" type="line"/>
      <point x="15" y="0" type="line"/>
      <point x="15" y="51" type="line"/>
      <point x="19" y="51" type="line" smooth="yes"/>
      <point x="84" y="51"/>
      <point x="95" y="57"/>
      <point x="95" y="97" type="curve" smooth="yes"/>
      <point x="95" y="144" type="line"/>
      <point x="95" y="578" type="line" smooth="yes"/>
      <point x="95" y="667"/>
      <point x="92" y="671"/>
      <point x="31" y="671" type="curve" smooth="yes"/>
      <point x="12" y="671" type="line"/>
      <point x="12" y="722" type="line"/>
    </contour>
    <contour>
      <point x="270" y="-372" type="curve"/>
      <point x="246" y="-336" type="line"/>
      <point x="301" y="-298"/>
      <point x="335" y="-254"/>
      <point x="335" y="-220" type="curve" smooth="yes"/>
      <point x="335" y="-217"/>
      <point x="334" y="-215"/>
      <point x="331" y="-215" type="curve" smooth="yes"/>
      <point x="328" y="-215" type="line"/>
      <point x="325" y="-216"/>
      <point x="323" y="-216"/>
      <point x="320" y="-216" type="curve" smooth="yes"/>
      <point x="278" y="-216"/>
      <point x="245" y="-182"/>
      <point x="245" y="-139" type="curve" smooth="yes"/>
      <point x="245" y="-89"/>
      <point x="283" y="-50"/>
      <point x="331" y="-50" type="curve" smooth="yes"/>
      <point x="385" y="-50"/>
      <point x="422" y="-94"/>
      <point x="422" y="-158" type="curve" smooth="yes"/>
      <point x="422" y="-238"/>
      <point x="371" y="-310"/>
    </contour>
  </outline>
</glyph>
<glyph name="lcommaaccent" format="1">
  <advance width="352"/>
  <unicode hex="013C"/>
  <outline>
    <contour>
      <point x="256" y="737" type="line"/>
      <point x="256" y="144" type="line"/>
      <point x="256" y="97" type="line" smooth="yes"/>
      <point x="256" y="72"/>
      <point x="259" y="64"/>
      <point x="271" y="58" type="curve" smooth="yes"/>
      <point x="278" y="54"/>
      <point x="305" y="51"/>
      <point x="324" y="51" type="curve" smooth="yes"/>
      <point x="331" y="51" type="line"/>
      <point x="331" y="0" type="line"/>
      <point x="19" y="0" type="line"/>
      <point x="19" y="51" type="line"/>
      <point x="23" y="51" type="line" smooth="yes"/>
      <point x="88" y="51"/>
      <point x="99" y="57"/>
      <point x="99" y="97" type="curve" smooth="yes"/>
      <point x="99" y="144" type="line"/>
      <point x="99" y="578" type="line" smooth="yes"/>
      <point x="99" y="667"/>
      <point x="96" y="671"/>
      <point x="35" y="671" type="curve" smooth="yes"/>
      <point x="16" y="671" type="line"/>
      <point x="16" y="722" type="line"/>
    </contour>
    <contour>
      <point x="113" y="-372" type="curve"/>
      <point x="89" y="-336" type="line"/>
      <point x="144" y="-298"/>
      <point x="178" y="-254"/>
      <point x="178" y="-220" type="curve" smooth="yes"/>
      <point x="178" y="-217"/>
      <point x="177" y="-215"/>
      <point x="174" y="-215" type="curve" smooth="yes"/>
      <point x="171" y="-215" type="line"/>
      <point x="168" y="-216"/>
      <point x="166" y="-216"/>
      <point x="163" y="-216" type="curve" smooth="yes"/>
      <point x="121" y="-216"/>
      <point x="88" y="-182"/>
      <point x="88" y="-139" type="curve" smooth="yes"/>
      <point x="88" y="-89"/>
      <point x="126" y="-50"/>
      <point x="174" y="-50" type="curve" smooth="yes"/>
      <point x="228" y="-50"/>
      <point x="265" y="-94"/>
      <point x="265" y="-158" type="curve" smooth="yes"/>
      <point x="265" y="-238"/>
      <point x="214" y="-310"/>
    </contour>
  </outline>
</glyph>
<glyph name="lcaron" format="1">
  <advance width="436"/>
  <unicode hex="013E"/>
  <outline>
    <contour>
      <point x="256" y="737" type="line"/>
      <point x="256" y="144" type="line"/>
      <point x="256" y="97" type="line" smooth="yes"/>
      <point x="256" y="72"/>
      <point x="259" y="64"/>
      <point x="271" y="58" type="curve" smooth="yes"/>
      <point x="278" y="54"/>
      <point x="305" y="51"/>
      <point x="324" y="51" type="curve" smooth="yes"/>
      <point x="331" y="51" type="line"/>
      <point x="331" y="0" type="line"/>
      <point x="19" y="0" type="line"/>
      <point x="19" y="51" type="line"/>
      <point x="23" y="51" type="line" smooth="yes"/>
      <point x="88" y="51"/>
      <point x="99" y="57"/>
      <point x="99" y="97" type="curve" smooth="yes"/>
      <point x="99" y="144" type="line"/>
      <point x="99" y="578" type="line" smooth="yes"/>
      <point x="99" y="667"/>
      <point x="96" y="671"/>
      <point x="35" y="671" type="curve" smooth="yes"/>
      <point x="16" y="671" type="line"/>
      <point x="16" y="722" type="line"/>
    </contour>
    <contour>
      <point x="304" y="415" type="curve"/>
      <point x="280" y="451" type="line"/>
      <point x="335" y="489"/>
      <point x="369" y="533"/>
      <point x="369" y="567" type="curve" smooth="yes"/>
      <point x="369" y="570"/>
      <point x="368" y="572"/>
      <point x="365" y="572" type="curve" smooth="yes"/>
      <point x="362" y="572" type="line"/>
      <point x="359" y="571"/>
      <point x="357" y="571"/>
      <point x="354" y="571" type="curve" smooth="yes"/>
      <point x="312" y="571"/>
      <point x="279" y="605"/>
      <point x="279" y="648" type="curve" smooth="yes"/>
      <point x="279" y="698"/>
      <point x="317" y="737"/>
      <point x="365" y="737" type="curve" smooth="yes"/>
      <point x="419" y="737"/>
      <point x="456" y="693"/>
      <point x="456" y="629" type="curve" smooth="yes"/>
      <point x="456" y="549"/>
      <point x="405" y="477"/>
    </contour>
  </outline>
</glyph>
<glyph name="Ldot" format="1">
  <advance width="722"/>
  <unicode hex="013F"/>
  <outline>
    <contour>
      <point x="456" y="467" type="curve" smooth="yes"/>
      <point x="508" y="467"/>
      <point x="550" y="425"/>
      <point x="550" y="373" type="curve" smooth="yes"/>
      <point x="550" y="321"/>
      <point x="508" y="279"/>
      <point x="455" y="279" type="curve" smooth="yes"/>
      <point x="404" y="279"/>
      <point x="362" y="322"/>
      <point x="362" y="373" type="curve" smooth="yes"/>
      <point x="362" y="425"/>
      <point x="404" y="467"/>
    </contour>
    <contour>
      <point x="648" y="269" type="curve"/>
      <point x="701" y="269" type="line"/>
      <point x="689" y="0" type="line"/>
      <point x="19" y="0" type="line"/>
      <point x="19" y="54" type="line"/>
      <point x="34" y="54" type="line" smooth="yes"/>
      <point x="86" y="54"/>
      <point x="107" y="58"/>
      <point x="116" y="69" type="curve" smooth="yes"/>
      <point x="123" y="77"/>
      <point x="123" y="81"/>
      <point x="123" y="145" type="curve" smooth="yes"/>
      <point x="123" y="578" type="line" smooth="yes"/>
      <point x="123" y="641"/>
      <point x="123" y="645"/>
      <point x="116" y="653" type="curve" smooth="yes"/>
      <point x="107" y="664"/>
      <point x="86" y="668"/>
      <point x="34" y="668" type="curve" smooth="yes"/>
      <point x="19" y="668" type="line"/>
      <point x="19" y="722" type="line"/>
      <point x="415" y="722" type="line"/>
      <point x="415" y="668" type="line"/>
      <point x="393" y="668" type="line" smooth="yes"/>
      <point x="340" y="668"/>
      <point x="319" y="664"/>
      <point x="310" y="653" type="curve" smooth="yes"/>
      <point x="303" y="645"/>
      <point x="303" y="641"/>
      <point x="303" y="578" type="curve" smooth="yes"/>
      <point x="303" y="124" type="line" smooth="yes"/>
      <point x="303" y="91"/>
      <point x="306" y="80"/>
      <point x="319" y="68" type="curve" smooth="yes"/>
      <point x="331" y="56"/>
      <point x="344" y="54"/>
      <point x="393" y="54" type="curve" smooth="yes"/>
      <point x="414" y="54" type="line" smooth="yes"/>
      <point x="485" y="54"/>
      <point x="542" y="80"/>
      <point x="583" y="129" type="curve" smooth="yes"/>
      <point x="610" y="162"/>
      <point x="628" y="200"/>
    </contour>
  </outline>
</glyph>
<glyph name="ldot" format="1">
  <advance width="540"/>
  <unicode hex="0140"/>
  <outline>
    <contour>
      <point x="406" y="438" type="curve" smooth="yes"/>
      <point x="458" y="438"/>
      <point x="500" y="396"/>
      <point x="500" y="344" type="curve" smooth="yes"/>
      <point x="500" y="292"/>
      <point x="458" y="250"/>
      <point x="405" y="250" type="curve" smooth="yes"/>
      <point x="354" y="250"/>
      <point x="312" y="293"/>
      <point x="312" y="344" type="curve" smooth="yes"/>
      <point x="312" y="396"/>
      <point x="354" y="438"/>
    </contour>
    <contour>
      <point x="256" y="737" type="line"/>
      <point x="256" y="144" type="line"/>
      <point x="256" y="97" type="line" smooth="yes"/>
      <point x="256" y="72"/>
      <point x="259" y="64"/>
      <point x="271" y="58" type="curve" smooth="yes"/>
      <point x="278" y="54"/>
      <point x="305" y="51"/>
      <point x="324" y="51" type="curve" smooth="yes"/>
      <point x="331" y="51" type="line"/>
      <point x="331" y="0" type="line"/>
      <point x="19" y="0" type="line"/>
      <point x="19" y="51" type="line"/>
      <point x="23" y="51" type="line" smooth="yes"/>
      <point x="88" y="51"/>
      <point x="99" y="57"/>
      <point x="99" y="97" type="curve" smooth="yes"/>
      <point x="99" y="144" type="line"/>
      <point x="99" y="578" type="line" smooth="yes"/>
      <point x="99" y="667"/>
      <point x="96" y="671"/>
      <point x="35" y="671" type="curve" smooth="yes"/>
      <point x="16" y="671" type="line"/>
      <point x="16" y="722" type="line"/>
    </contour>
  </outline>
</glyph>
<glyph name="Lslash" format="1">
  <advance width="722"/>
  <unicode hex="0141"/>
  <outline>
    <contour>
      <point x="123" y="249" type="line"/>
      <point x="19" y="178" type="line"/>
      <point x="19" y="249" type="line"/>
      <point x="123" y="319" type="line"/>
      <point x="123" y="578" type="line" smooth="yes"/>
      <point x="123" y="641"/>
      <point x="123" y="645"/>
      <point x="116" y="653" type="curve" smooth="yes"/>
      <point x="107" y="664"/>
      <point x="86" y="668"/>
      <point x="34" y="668" type="curve" smooth="yes"/>
      <point x="19" y="668" type="line"/>
      <point x="19" y="722" type="line"/>
      <point x="415" y="722" type="line"/>
      <point x="415" y="668" type="line"/>
      <point x="393" y="668" type="line" smooth="yes"/>
      <point x="340" y="668"/>
      <point x="319" y="664"/>
      <point x="310" y="653" type="curve" smooth="yes"/>
      <point x="303" y="645"/>
      <point x="303" y="641"/>
      <point x="303" y="578" type="curve" smooth="yes"/>
      <point x="303" y="415" type="line"/>
      <point x="477" y="534" type="line"/>
      <point x="477" y="464" type="line"/>
      <point x="303" y="345" type="line"/>
      <point x="303" y="124" type="line" smooth="yes"/>
      <point x="303" y="91"/>
      <point x="306" y="80"/>
      <point x="319" y="68" type="curve" smooth="yes"/>
      <point x="331" y="56"/>
      <point x="344" y="54"/>
      <point x="393" y="54" type="curve" smooth="yes"/>
      <point x="414" y="54" type="line" smooth="yes"/>
      <point x="485" y="54"/>
      <point x="542" y="80"/>
      <point x="583" y="129" type="curve"/>
      <point x="609" y="162"/>
      <point x="627" y="200"/>
      <point x="648" y="269" type="curve"/>
      <point x="701" y="269" type="line"/>
      <point x="689" y="0" type="line"/>
      <point x="19" y="0" type="line"/>
      <point x="19" y="54" type="line"/>
      <point x="34" y="54" type="line" smooth="yes"/>
      <point x="86" y="54"/>
      <point x="107" y="58"/>
      <point x="116" y="69" type="curve" smooth="yes"/>
      <point x="123" y="77"/>
      <point x="123" y="81"/>
      <point x="123" y="145" type="curve" smooth="yes"/>
    </contour>
  </outline>
</glyph>
<glyph name="nacute" format="1">
  <advance width="685"/>
  <unicode hex="0144"/>
  <outline>
    <contour>
      <point x="249" y="473" type="line"/>
      <point x="249" y="385" type="line"/>
      <point x="298" y="459"/>
      <point x="348" y="488"/>
      <point x="427" y="488" type="curve" smooth="yes"/>
      <point x="479" y="488"/>
      <point x="524" y="471"/>
      <point x="551" y="440" type="curve"/>
      <point x="578" y="411"/>
      <point x="589" y="373"/>
      <point x="589" y="311" type="curve" smooth="yes"/>
      <point x="589" y="144" type="line"/>
      <point x="589" y="98" type="line" smooth="yes"/>
      <point x="589" y="57"/>
      <point x="600" y="51"/>
      <point x="664" y="51" type="curve" smooth="yes"/>
      <point x="668" y="51" type="line"/>
      <point x="668" y="0" type="line"/>
      <point x="363" y="0" type="line"/>
      <point x="363" y="51" type="line"/>
      <point x="422" y="51"/>
      <point x="432" y="58"/>
      <point x="432" y="97" type="curve" smooth="yes"/>
      <point x="432" y="144" type="line"/>
      <point x="432" y="297" type="line" smooth="yes"/>
      <point x="432" y="361"/>
      <point x="406" y="395"/>
      <point x="359" y="395" type="curve" smooth="yes"/>
      <point x="323" y="395"/>
      <point x="288" y="372"/>
      <point x="272" y="336" type="curve"/>
      <point x="260" y="312"/>
      <point x="256" y="286"/>
      <point x="256" y="241" type="curve" smooth="yes"/>
      <point x="256" y="144" type="line"/>
      <point x="256" y="97" type="line" smooth="yes"/>
      <point x="256" y="58"/>
      <point x="266" y="51"/>
      <point x="325" y="51" type="curve"/>
      <point x="325" y="0" type="line"/>
      <point x="20" y="0" type="line"/>
      <point x="20" y="51" type="line"/>
      <point x="24" y="51" type="line" smooth="yes"/>
      <point x="88" y="51"/>
      <point x="99" y="57"/>
      <point x="99" y="98" type="curve" smooth="yes"/>
      <point x="99" y="144" type="line"/>
      <point x="99" y="318" type="line" smooth="yes"/>
      <point x="99" y="411"/>
      <point x="96" y="415"/>
      <point x="35" y="415" type="curve" smooth="yes"/>
      <point x="20" y="415" type="line"/>
      <point x="20" y="466" type="line"/>
    </contour>
    <contour>
      <point x="260" y="545" type="line"/>
      <point x="373" y="683" type="line" smooth="yes"/>
      <point x="408" y="726"/>
      <point x="420" y="734"/>
      <point x="450" y="734" type="curve" smooth="yes"/>
      <point x="482" y="734"/>
      <point x="507" y="712"/>
      <point x="507" y="684" type="curve" smooth="yes"/>
      <point x="507" y="663"/>
      <point x="495" y="646"/>
      <point x="471" y="632" type="curve" smooth="yes"/>
      <point x="324" y="545" type="line"/>
    </contour>
  </outline>
</glyph>
<glyph name="ncommaaccent" format="1">
  <advance width="685"/>
  <unicode hex="0146"/>
  <outline>
    <contour>
      <point x="249" y="473" type="line"/>
      <point x="249" y="385" type="line"/>
      <point x="298" y="459"/>
      <point x="348" y="488"/>
      <point x="427" y="488" type="curve" smooth="yes"/>
      <point x="479" y="488"/>
      <point x="524" y="471"/>
      <point x="551" y="440" type="curve"/>
      <point x="578" y="411"/>
      <point x="589" y="373"/>
      <point x="589" y="311" type="curve" smooth="yes"/>
      <point x="589" y="144" type="line"/>
      <point x="589" y="98" type="line" smooth="yes"/>
      <point x="589" y="57"/>
      <point x="600" y="51"/>
      <point x="664" y="51" type="curve" smooth="yes"/>
      <point x="668" y="51" type="line"/>
      <point x="668" y="0" type="line"/>
      <point x="363" y="0" type="line"/>
      <point x="363" y="51" type="line"/>
      <point x="422" y="51"/>
      <point x="432" y="58"/>
      <point x="432" y="97" type="curve" smooth="yes"/>
      <point x="432" y="144" type="line"/>
      <point x="432" y="297" type="line" smooth="yes"/>
      <point x="432" y="361"/>
      <point x="406" y="395"/>
      <point x="359" y="395" type="curve" smooth="yes"/>
      <point x="323" y="395"/>
      <point x="288" y="372"/>
      <point x="272" y="336" type="curve"/>
      <point x="260" y="312"/>
      <point x="256" y="286"/>
      <point x="256" y="241" type="curve" smooth="yes"/>
      <point x="256" y="144" type="line"/>
      <point x="256" y="97" type="line" smooth="yes"/>
      <point x="256" y="58"/>
      <point x="266" y="51"/>
      <point x="325" y="51" type="curve"/>
      <point x="325" y="0" type="line"/>
      <point x="20" y="0" type="line"/>
      <point x="20" y="51" type="line"/>
      <point x="24" y="51" type="line" smooth="yes"/>
      <point x="88" y="51"/>
      <point x="99" y="57"/>
      <point x="99" y="98" type="curve" smooth="yes"/>
      <point x="99" y="144" type="line"/>
      <point x="99" y="318" type="line" smooth="yes"/>
      <point x="99" y="411"/>
      <point x="96" y="415"/>
      <point x="35" y="415" type="curve" smooth="yes"/>
      <point x="20" y="415" type="line"/>
      <point x="20" y="466" type="line"/>
    </contour>
    <contour>
      <point x="279" y="-372" type="curve"/>
      <point x="255" y="-336" type="line"/>
      <point x="310" y="-298"/>
      <point x="344" y="-254"/>
      <point x="344" y="-220" type="curve" smooth="yes"/>
      <point x="344" y="-217"/>
      <point x="343" y="-215"/>
      <point x="340" y="-215" type="curve" smooth="yes"/>
      <point x="337" y="-215" type="line"/>
      <point x="334" y="-216"/>
      <point x="332" y="-216"/>
      <point x="329" y="-216" type="curve" smooth="yes"/>
      <point x="287" y="-216"/>
      <point x="254" y="-182"/>
      <point x="254" y="-139" type="curve" smooth="yes"/>
      <point x="254" y="-89"/>
      <point x="292" y="-50"/>
      <point x="340" y="-50" type="curve" smooth="yes"/>
      <point x="394" y="-50"/>
      <point x="431" y="-94"/>
      <point x="431" y="-158" type="curve" smooth="yes"/>
      <point x="431" y="-238"/>
      <point x="380" y="-310"/>
    </contour>
  </outline>
</glyph>
<glyph name="napostrophe" format="1">
  <advance width="685"/>
  <unicode hex="0149"/>
  <outline>
    <contour>
      <point x="87" y="489" type="curve"/>
      <point x="60" y="530" type="line"/>
      <point x="122" y="572"/>
      <point x="159" y="621"/>
      <point x="159" y="658" type="curve" smooth="yes"/>
      <point x="159" y="662"/>
      <point x="157" y="664"/>
      <point x="155" y="664" type="curve" smooth="yes"/>
      <point x="154" y="664"/>
      <point x="153" y="664"/>
      <point x="151" y="663" type="curve" smooth="yes"/>
      <point x="148" y="662"/>
      <point x="146" y="662"/>
      <point x="143" y="662" type="curve" smooth="yes"/>
      <point x="95" y="662"/>
      <point x="59" y="699"/>
      <point x="59" y="748" type="curve" smooth="yes"/>
      <point x="59" y="804"/>
      <point x="101" y="847"/>
      <point x="155" y="847" type="curve" smooth="yes"/>
      <point x="215" y="847"/>
      <point x="256" y="798"/>
      <point x="256" y="727" type="curve" smooth="yes"/>
      <point x="256" y="638"/>
      <point x="198" y="556"/>
    </contour>
    <contour>
      <point x="249" y="473" type="line"/>
      <point x="249" y="385" type="line"/>
      <point x="298" y="459"/>
      <point x="348" y="488"/>
      <point x="427" y="488" type="curve" smooth="yes"/>
      <point x="479" y="488"/>
      <point x="524" y="471"/>
      <point x="551" y="440" type="curve"/>
      <point x="578" y="411"/>
      <point x="589" y="373"/>
      <point x="589" y="311" type="curve" smooth="yes"/>
      <point x="589" y="98" type="line" smooth="yes"/>
      <point x="589" y="57"/>
      <point x="600" y="51"/>
      <point x="664" y="51" type="curve" smooth="yes"/>
      <point x="668" y="51" type="line"/>
      <point x="668" y="0" type="line"/>
      <point x="363" y="0" type="line"/>
      <point x="363" y="51" type="line"/>
      <point x="422" y="51"/>
      <point x="432" y="58"/>
      <point x="432" y="97" type="curve" smooth="yes"/>
      <point x="432" y="297" type="line" smooth="yes"/>
      <point x="432" y="361"/>
      <point x="406" y="395"/>
      <point x="359" y="395" type="curve" smooth="yes"/>
      <point x="323" y="395"/>
      <point x="288" y="372"/>
      <point x="272" y="336" type="curve"/>
      <point x="260" y="312"/>
      <point x="256" y="286"/>
      <point x="256" y="241" type="curve" smooth="yes"/>
      <point x="256" y="97" type="line" smooth="yes"/>
      <point x="256" y="58"/>
      <point x="266" y="51"/>
      <point x="325" y="51" type="curve"/>
      <point x="325" y="0" type="line"/>
      <point x="20" y="0" type="line"/>
      <point x="20" y="51" type="line"/>
      <point x="24" y="51" type="line" smooth="yes"/>
      <point x="88" y="51"/>
      <point x="99" y="57"/>
      <point x="99" y="98" type="curve" smooth="yes"/>
      <point x="99" y="318" type="line" smooth="yes"/>
      <point x="99" y="411"/>
      <point x="96" y="415"/>
      <point x="35" y="415" type="curve" smooth="yes"/>
      <point x="20" y="415" type="line"/>
      <point x="20" y="466" type="line"/>
    </contour>
  </outline>
</glyph>
<glyph name="eng" format="1">
  <advance width="625"/>
  <unicode hex="014B"/>
  <outline>
    <contour>
      <point x="589" y="53" type="line" smooth="yes"/>
      <point x="589" y="-64"/>
      <point x="505" y="-138"/>
      <point x="380" y="-138" type="curve" smooth="yes"/>
      <point x="324" y="-138" type="line"/>
      <point x="324" y="-78" type="line"/>
      <point x="350" y="-78"/>
      <point x="361" y="-78"/>
      <point x="384" y="-69" type="curve" smooth="yes"/>
      <point x="422" y="-54"/>
      <point x="432" y="-4"/>
      <point x="432" y="63" type="curve" smooth="yes"/>
      <point x="432" y="297" type="line" smooth="yes"/>
      <point x="432" y="361"/>
      <point x="406" y="395"/>
      <point x="359" y="395" type="curve" smooth="yes"/>
      <point x="323" y="395"/>
      <point x="288" y="372"/>
      <point x="272" y="336" type="curve"/>
      <point x="260" y="312"/>
      <point x="256" y="286"/>
      <point x="256" y="241" type="curve" smooth="yes"/>
      <point x="256" y="97" type="line" smooth="yes"/>
      <point x="256" y="58"/>
      <point x="266" y="51"/>
      <point x="325" y="51" type="curve"/>
      <point x="325" y="0" type="line"/>
      <point x="20" y="0" type="line"/>
      <point x="20" y="51" type="line"/>
      <point x="24" y="51" type="line" smooth="yes"/>
      <point x="88" y="51"/>
      <point x="99" y="57"/>
      <point x="99" y="98" type="curve" smooth="yes"/>
      <point x="99" y="318" type="line" smooth="yes"/>
      <point x="99" y="411"/>
      <point x="96" y="415"/>
      <point x="35" y="415" type="curve" smooth="yes"/>
      <point x="20" y="415" type="line"/>
      <point x="20" y="466" type="line"/>
      <point x="249" y="473" type="line"/>
      <point x="249" y="385" type="line"/>
      <point x="298" y="459"/>
      <point x="348" y="488"/>
      <point x="427" y="488" type="curve" smooth="yes"/>
      <point x="479" y="488"/>
      <point x="524" y="471"/>
      <point x="551" y="440" type="curve"/>
      <point x="578" y="411"/>
      <point x="589" y="373"/>
      <point x="589" y="311" type="curve" smooth="yes"/>
    </contour>
  </outline>
</glyph>
<glyph name="Obreve" format="1">
  <advance width="833"/>
  <unicode hex="014E"/>
  <outline>
    <contour>
      <point x="259" y="989" type="curve"/>
      <point x="312" y="989" type="line"/>
      <point x="319" y="934"/>
      <point x="353" y="907"/>
      <point x="417" y="907" type="curve" smooth="yes"/>
      <point x="480" y="907"/>
      <point x="514" y="934"/>
      <point x="521" y="989" type="curve"/>
      <point x="574" y="989" type="line"/>
      <point x="574" y="884"/>
      <point x="516" y="822"/>
      <point x="416" y="822" type="curve" smooth="yes"/>
      <point x="316" y="822"/>
      <point x="259" y="883"/>
    </contour>
    <contour>
      <point x="417" y="737" type="curve" smooth="yes"/>
      <point x="515" y="737"/>
      <point x="593" y="710"/>
      <point x="660" y="652" type="curve" smooth="yes"/>
      <point x="743" y="581"/>
      <point x="794" y="467"/>
      <point x="794" y="351" type="curve" smooth="yes"/>
      <point x="794" y="234"/>
      <point x="746" y="132"/>
      <point x="660" y="63" type="curve" smooth="yes"/>
      <point x="593" y="10"/>
      <point x="514" y="-15"/>
      <point x="412" y="-15" type="curve" smooth="yes"/>
      <point x="195" y="-15"/>
      <point x="39" y="138"/>
      <point x="39" y="350" type="curve" smooth="yes"/>
      <point x="39" y="467"/>
      <point x="89" y="580"/>
      <point x="173" y="652" type="curve" smooth="yes"/>
      <point x="238" y="709"/>
      <point x="320" y="737"/>
    </contour>
    <contour>
      <point x="418" y="685" type="curve" smooth="yes"/>
      <point x="359" y="685"/>
      <point x="319" y="663"/>
      <point x="290" y="614" type="curve" smooth="yes"/>
      <point x="256" y="557"/>
      <point x="239" y="477"/>
      <point x="239" y="369" type="curve" smooth="yes"/>
      <point x="239" y="264"/>
      <point x="257" y="176"/>
      <point x="290" y="114" type="curve" smooth="yes"/>
      <point x="318" y="62"/>
      <point x="360" y="37"/>
      <point x="418" y="37" type="curve" smooth="yes"/>
      <point x="532" y="37"/>
      <point x="594" y="147"/>
      <point x="594" y="350" type="curve" smooth="yes"/>
      <point x="594" y="458"/>
      <point x="576" y="548"/>
      <point x="543" y="608" type="curve" smooth="yes"/>
      <point x="514" y="659"/>
      <point x="472" y="685"/>
    </contour>
  </outline>
</glyph>
<glyph name="OE" format="1">
  <advance width="1000"/>
  <unicode hex="0152"/>
  <outline>
    <contour>
      <point x="970" y="722" type="line"/>
      <point x="975" y="462" type="line"/>
      <point x="923" y="462" type="line"/>
      <point x="909" y="515"/>
      <point x="887" y="565"/>
      <point x="866" y="594" type="curve" smooth="yes"/>
      <point x="833" y="639"/>
      <point x="773" y="668"/>
      <point x="714" y="668" type="curve" smooth="yes"/>
      <point x="708" y="668" type="line" smooth="yes"/>
      <point x="681" y="668"/>
      <point x="660" y="660"/>
      <point x="650" y="645" type="curve" smooth="yes"/>
      <point x="642" y="634"/>
      <point x="640" y="623"/>
      <point x="640" y="582" type="curve" smooth="yes"/>
      <point x="640" y="401" type="line"/>
      <point x="643" y="401" type="line" smooth="yes"/>
      <point x="722" y="401"/>
      <point x="771" y="451"/>
      <point x="782" y="543" type="curve"/>
      <point x="836" y="543" type="line"/>
      <point x="836" y="204" type="line"/>
      <point x="782" y="204" type="line"/>
      <point x="771" y="296"/>
      <point x="722" y="346"/>
      <point x="643" y="346" type="curve" smooth="yes"/>
      <point x="640" y="346" type="line"/>
      <point x="640" y="125" type="line" smooth="yes"/>
      <point x="640" y="68"/>
      <point x="655" y="54"/>
      <point x="712" y="54" type="curve" smooth="yes"/>
      <point x="719" y="54" type="line" smooth="yes"/>
      <point x="774" y="54"/>
      <point x="830" y="82"/>
      <point x="869" y="129" type="curve" smooth="yes"/>
      <point x="898" y="164"/>
      <point x="916" y="202"/>
      <point x="934" y="269" type="curve"/>
      <point x="987" y="269" type="line"/>
      <point x="976" y="0" type="line"/>
      <point x="366" y="0" type="line" smooth="yes"/>
      <point x="256" y="0"/>
      <point x="169" y="34"/>
      <point x="105" y="101" type="curve" smooth="yes"/>
      <point x="42" y="168"/>
      <point x="5" y="264"/>
      <point x="5" y="358" type="curve" smooth="yes"/>
      <point x="5" y="452"/>
      <point x="43" y="550"/>
      <point x="105" y="617" type="curve" smooth="yes"/>
      <point x="171" y="687"/>
      <point x="257" y="722"/>
      <point x="363" y="722" type="curve" smooth="yes"/>
    </contour>
    <contour>
      <point x="460" y="191" type="curve" smooth="yes"/>
      <point x="460" y="544" type="line" smooth="yes"/>
      <point x="460" y="630"/>
      <point x="430" y="668"/>
      <point x="361" y="668" type="curve" smooth="yes"/>
      <point x="253" y="668"/>
      <point x="205" y="577"/>
      <point x="205" y="369" type="curve" smooth="yes"/>
      <point x="205" y="266"/>
      <point x="213" y="198"/>
      <point x="232" y="148" type="curve" smooth="yes"/>
      <point x="253" y="91"/>
      <point x="305" y="54"/>
      <point x="364" y="54" type="curve" smooth="yes"/>
      <point x="396" y="54"/>
      <point x="425" y="67"/>
      <point x="439" y="87" type="curve" smooth="yes"/>
      <point x="454" y="109"/>
      <point x="460" y="138"/>
    </contour>
  </outline>
</glyph>
<glyph name="Racute" format="1">
  <advance width="815"/>
  <unicode hex="0154"/>
  <outline>
    <contour>
      <point x="304" y="347" type="line"/>
      <point x="304" y="145" type="line" smooth="yes"/>
      <point x="304" y="81"/>
      <point x="304" y="78"/>
      <point x="311" y="69" type="curve" smooth="yes"/>
      <point x="320" y="59"/>
      <point x="342" y="55"/>
      <point x="394" y="55" type="curve" smooth="yes"/>
      <point x="420" y="55" type="line"/>
      <point x="420" y="1" type="line"/>
      <point x="20" y="1" type="line"/>
      <point x="20" y="55" type="line"/>
      <point x="35" y="55" type="line" smooth="yes"/>
      <point x="87" y="55"/>
      <point x="108" y="59"/>
      <point x="117" y="69" type="curve" smooth="yes"/>
      <point x="124" y="78"/>
      <point x="124" y="81"/>
      <point x="124" y="145" type="curve" smooth="yes"/>
      <point x="124" y="578" type="line" smooth="yes"/>
      <point x="124" y="642"/>
      <point x="124" y="645"/>
      <point x="117" y="654" type="curve" smooth="yes"/>
      <point x="108" y="664"/>
      <point x="87" y="668"/>
      <point x="35" y="668" type="curve" smooth="yes"/>
      <point x="20" y="668" type="line"/>
      <point x="20" y="722" type="line"/>
      <point x="447" y="722" type="line" smooth="yes"/>
      <point x="539" y="722"/>
      <point x="606" y="710"/>
      <point x="644" y="686" type="curve" smooth="yes"/>
      <point x="696" y="652"/>
      <point x="725" y="601"/>
      <point x="725" y="541" type="curve" smooth="yes"/>
      <point x="725" y="476"/>
      <point x="690" y="421"/>
      <point x="629" y="390" type="curve" smooth="yes"/>
      <point x="604" y="378"/>
      <point x="578" y="371"/>
      <point x="525" y="361" type="curve"/>
      <point x="612" y="332"/>
      <point x="650" y="287"/>
      <point x="665" y="197" type="curve"/>
      <point x="672" y="159" type="line" smooth="yes"/>
      <point x="674" y="145"/>
      <point x="676" y="135"/>
      <point x="676" y="131" type="curve" smooth="yes"/>
      <point x="681" y="99"/>
      <point x="682" y="92"/>
      <point x="688" y="84" type="curve" smooth="yes"/>
      <point x="694" y="75"/>
      <point x="706" y="69"/>
      <point x="717" y="69" type="curve" smooth="yes"/>
      <point x="747" y="69"/>
      <point x="762" y="101"/>
      <point x="763" y="164" type="curve"/>
      <point x="817" y="164" type="line"/>
      <point x="817" y="152" type="line" smooth="yes"/>
      <point x="817" y="46"/>
      <point x="755" y="-15"/>
      <point x="647" y="-15" type="curve" smooth="yes"/>
      <point x="560" y="-15"/>
      <point x="504" y="26"/>
      <point x="487" y="104" type="curve" smooth="yes"/>
      <point x="484" y="120"/>
      <point x="479" y="162"/>
      <point x="473" y="229" type="curve"/>
      <point x="469" y="286"/>
      <point x="465" y="298"/>
      <point x="449" y="317" type="curve" smooth="yes"/>
      <point x="431" y="337"/>
      <point x="403" y="347"/>
      <point x="360" y="347" type="curve" smooth="yes"/>
    </contour>
    <contour>
      <point x="304" y="402" type="line"/>
      <point x="359" y="402" type="line" smooth="yes"/>
      <point x="492" y="402"/>
      <point x="534" y="434"/>
      <point x="534" y="536" type="curve" smooth="yes"/>
      <point x="534" y="627"/>
      <point x="492" y="668"/>
      <point x="399" y="668" type="curve" smooth="yes"/>
      <point x="375" y="668" type="line" smooth="yes"/>
      <point x="311" y="668"/>
      <point x="304" y="661"/>
      <point x="304" y="604" type="curve" smooth="yes"/>
    </contour>
    <contour>
      <point x="325" y="790" type="line"/>
      <point x="438" y="928" type="line" smooth="yes"/>
      <point x="473" y="971"/>
      <point x="485" y="979"/>
      <point x="515" y="979" type="curve" smooth="yes"/>
      <point x="547" y="979"/>
      <point x="572" y="957"/>
      <point x="572" y="929" type="curve" smooth="yes"/>
      <point x="572" y="908"/>
      <point x="560" y="891"/>
      <point x="536" y="877" type="curve" smooth="yes"/>
      <point x="389" y="790" type="line"/>
    </contour>
  </outline>
</glyph>
<glyph name="rcommaaccent" format="1">
  <advance width="519"/>
  <unicode hex="0157"/>
  <outline>
    <contour>
      <point x="241" y="473" type="line"/>
      <point x="241" y="352" type="line"/>
      <point x="277" y="444"/>
      <point x="330" y="488"/>
      <point x="407" y="488" type="curve" smooth="yes"/>
      <point x="471" y="488"/>
      <point x="517" y="445"/>
      <point x="517" y="387" type="curve" smooth="yes"/>
      <point x="517" y="338"/>
      <point x="480" y="301"/>
      <point x="431" y="301" type="curve" smooth="yes"/>
      <point x="388" y="301"/>
      <point x="356" y="332"/>
      <point x="356" y="375" type="curve" smooth="yes"/>
      <point x="356" y="393"/>
      <point x="360" y="404"/>
      <point x="373" y="422" type="curve"/>
      <point x="339" y="412"/>
      <point x="318" y="394"/>
      <point x="297" y="357" type="curve" smooth="yes"/>
      <point x="272" y="313"/>
      <point x="255" y="234"/>
      <point x="255" y="164" type="curve" smooth="yes"/>
      <point x="255" y="144" type="line"/>
      <point x="255" y="98" type="line" smooth="yes"/>
      <point x="255" y="57"/>
      <point x="266" y="51"/>
      <point x="330" y="51" type="curve" smooth="yes"/>
      <point x="352" y="51" type="line"/>
      <point x="352" y="0" type="line"/>
      <point x="18" y="0" type="line"/>
      <point x="18" y="51" type="line"/>
      <point x="22" y="51" type="line" smooth="yes"/>
      <point x="86" y="51"/>
      <point x="97" y="57"/>
      <point x="97" y="98" type="curve" smooth="yes"/>
      <point x="97" y="144" type="line"/>
      <point x="97" y="318" type="line" smooth="yes"/>
      <point x="97" y="411"/>
      <point x="94" y="415"/>
      <point x="33" y="415" type="curve" smooth="yes"/>
      <point x="18" y="415" type="line"/>
      <point x="18" y="466" type="line"/>
    </contour>
    <contour>
      <point x="116" y="-372" type="curve"/>
      <point x="92" y="-336" type="line"/>
      <point x="147" y="-298"/>
      <point x="181" y="-254"/>
      <point x="181" y="-220" type="curve" smooth="yes"/>
      <point x="181" y="-217"/>
      <point x="180" y="-215"/>
      <point x="177" y="-215" type="curve" smooth="yes"/>
      <point x="174" y="-215" type="line"/>
      <point x="171" y="-216"/>
      <point x="169" y="-216"/>
      <point x="166" y="-216" type="curve" smooth="yes"/>
      <point x="124" y="-216"/>
      <point x="91" y="-182"/>
      <point x="91" y="-139" type="curve" smooth="yes"/>
      <point x="91" y="-89"/>
      <point x="129" y="-50"/>
      <point x="177" y="-50" type="curve" smooth="yes"/>
      <point x="231" y="-50"/>
      <point x="268" y="-94"/>
      <point x="268" y="-158" type="curve" smooth="yes"/>
      <point x="268" y="-238"/>
      <point x="217" y="-310"/>
    </contour>
  </outline>
</glyph>
<glyph name="sacute" format="1">
  <advance width="500"/>
  <unicode hex="015B"/>
  <outline>
    <contour>
      <point x="439" y="478" type="line"/>
      <point x="443" y="320" type="line"/>
      <point x="396" y="320" type="line"/>
      <point x="347" y="402"/>
      <point x="300" y="436"/>
      <point x="236" y="436" type="curve" smooth="yes"/>
      <point x="187" y="436"/>
      <point x="152" y="412"/>
      <point x="152" y="378" type="curve" smooth="yes"/>
      <point x="152" y="352"/>
      <point x="165" y="342"/>
      <point x="214" y="329" type="curve" smooth="yes"/>
      <point x="304" y="307" type="line" smooth="yes"/>
      <point x="376" y="289"/>
      <point x="397" y="280"/>
      <point x="423" y="257" type="curve" smooth="yes"/>
      <point x="451" y="232"/>
      <point x="466" y="197"/>
      <point x="466" y="155" type="curve" smooth="yes"/>
      <point x="466" y="55"/>
      <point x="383" y="-15"/>
      <point x="265" y="-15" type="curve" smooth="yes"/>
      <point x="213" y="-15"/>
      <point x="161" y="-2"/>
      <point x="124" y="20" type="curve"/>
      <point x="85" y="2" type="line"/>
      <point x="43" y="2" type="line"/>
      <point x="38" y="175" type="line"/>
      <point x="83" y="175" type="line"/>
      <point x="131" y="80"/>
      <point x="188" y="37"/>
      <point x="265" y="37" type="curve" smooth="yes"/>
      <point x="318" y="37"/>
      <point x="351" y="60"/>
      <point x="351" y="96" type="curve" smooth="yes"/>
      <point x="351" y="126"/>
      <point x="331" y="143"/>
      <point x="281" y="154" type="curve" smooth="yes"/>
      <point x="208" y="170" type="line" smooth="yes"/>
      <point x="143" y="184"/>
      <point x="114" y="198"/>
      <point x="84" y="227" type="curve" smooth="yes"/>
      <point x="57" y="253"/>
      <point x="42" y="288"/>
      <point x="42" y="326" type="curve" smooth="yes"/>
      <point x="42" y="420"/>
      <point x="123" y="488"/>
      <point x="235" y="488" type="curve" smooth="yes"/>
      <point x="283" y="488"/>
      <point x="321" y="478"/>
      <point x="359" y="456" type="curve"/>
      <point x="396" y="478" type="line"/>
    </contour>
    <contour>
      <point x="188" y="545" type="line"/>
      <point x="301" y="683" type="line" smooth="yes"/>
      <point x="336" y="726"/>
      <point x="348" y="734"/>
      <point x="378" y="734" type="curve" smooth="yes"/>
      <point x="410" y="734"/>
      <point x="435" y="712"/>
      <point x="435" y="684" type="curve" smooth="yes"/>
      <point x="435" y="663"/>
      <point x="423" y="646"/>
      <point x="399" y="632" type="curve" smooth="yes"/>
      <point x="252" y="545" type="line"/>
    </contour>
  </outline>
</glyph>
